  0
SECTION
  2
HEADER
  9
$ACADVER
  1
AC1024
  9
$ACADMAINTVER
 70
6
  9
$DWGCODEPAGE
  3
ANSI_1252
  9
$LASTSAVEDBY
  1
ezdxf
  9
$INSBASE
 10
0.0
 20
0.0
 30
0.0
  9
$EXTMIN
 10
1e+20
 20
1e+20
 30
1e+20
  9
$EXTMAX
 10
-1e+20
 20
-1e+20
 30
-1e+20
  9
$LIMMIN
 10
0.0
 20
0.0
  9
$LIMMAX
 10
420.0
 20
297.0
  9
$ORTHOMODE
 70
0
  9
$REGENMODE
 70
1
  9
$FILLMODE
 70
1
  9
$QTEXTMODE
 70
0
  9
$MIRRTEXT
 70
1
  9
$LTSCALE
 40
1.0
  9
$ATTMODE
 70
1
  9
$TEXTSIZE
 40
2.5
  9
$TRACEWID
 40
1.0
  9
$TEXTSTYLE
  7
Standard
  9
$CLAYER
  8
0
  9
$CELTYPE
  6
ByLayer
  9
$CECOLOR
 62
256
  9
$CELTSCALE
 40
1.0
  9
$DISPSILH
 70
0
  9
$DIMSCALE
 40
1.0
  9
$DIMASZ
 40
2.5
  9
$DIMEXO
 40
0.625
  9
$DIMDLI
 40
3.75
  9
$DIMRND
 40
0.0
  9
$DIMDLE
 40
0.0
  9
$DIMEXE
 40
1.25
  9
$DIMTP
 40
0.0
  9
$DIMTM
 40
0.0
  9
$DIMTXT
 40
2.5
  9
$DIMCEN
 40
2.5
  9
$DIMTSZ
 40
0.0
  9
$DIMTOL
 70
0
  9
$DIMLIM
 70
0
  9
$DIMTIH
 70
0
  9
$DIMTOH
 70
0
  9
$DIMSE1
 70
0
  9
$DIMSE2
 70
0
  9
$DIMTAD
 70
1
  9
$DIMZIN
 70
8
  9
$DIMBLK
  1

  9
$DIMASO
 70
1
  9
$DIMSHO
 70
1
  9
$DIMPOST
  1

  9
$DIMAPOST
  1

  9
$DIMALT
 70
0
  9
$DIMALTD
 70
3
  9
$DIMALTF
 40
0.03937007874
  9
$DIMLFAC
 40
1.0
  9
$DIMTOFL
 70
1
  9
$DIMTVP
 40
0.0
  9
$DIMTIX
 70
0
  9
$DIMSOXD
 70
0
  9
$DIMSAH
 70
0
  9
$DIMBLK1
  1

  9
$DIMBLK2
  1

  9
$DIMSTYLE
  2
ISO-25
  9
$DIMCLRD
 70
0
  9
$DIMCLRE
 70
0
  9
$DIMCLRT
 70
0
  9
$DIMTFAC
 40
1.0
  9
$DIMGAP
 40
0.625
  9
$DIMJUST
 70
0
  9
$DIMSD1
 70
0
  9
$DIMSD2
 70
0
  9
$DIMTOLJ
 70
0
  9
$DIMTZIN
 70
8
  9
$DIMALTZ
 70
0
  9
$DIMALTTZ
 70
0
  9
$DIMUPT
 70
0
  9
$DIMDEC
 70
2
  9
$DIMTDEC
 70
2
  9
$DIMALTU
 70
2
  9
$DIMALTTD
 70
3
  9
$DIMTXSTY
  7
Standard
  9
$DIMAUNIT
 70
0
  9
$DIMADEC
 70
0
  9
$DIMALTRND
 40
0.0
  9
$DIMAZIN
 70
0
  9
$DIMDSEP
 70
44
  9
$DIMATFIT
 70
3
  9
$DIMFRAC
 70
0
  9
$DIMLDRBLK
  1

  9
$DIMLUNIT
 70
2
  9
$DIMLWD
 70
-2
  9
$DIMLWE
 70
-2
  9
$DIMTMOVE
 70
0
  9
$DIMFXL
 40
1.0
  9
$DIMFXLON
 70
0
  9
$DIMJOGANG
 40
0.785398163397
  9
$DIMTFILL
 70
0
  9
$DIMTFILLCLR
 70
0
  9
$DIMARCSYM
 70
0
  9
$DIMLTYPE
  6

  9
$DIMLTEX1
  6

  9
$DIMLTEX2
  6

  9
$DIMTXTDIRECTION
 70
0
  9
$LUNITS
 70
2
  9
$LUPREC
 70
4
  9
$SKETCHINC
 40
1.0
  9
$FILLETRAD
 40
10.0
  9
$AUNITS
 70
0
  9
$AUPREC
 70
2
  9
$MENU
  1
.
  9
$ELEVATION
 40
0.0
  9
$PELEVATION
 40
0.0
  9
$THICKNESS
 40
0.0
  9
$LIMCHECK
 70
0
  9
$CHAMFERA
 40
0.0
  9
$CHAMFERB
 40
0.0
  9
$CHAMFERC
 40
0.0
  9
$CHAMFERD
 40
0.0
  9
$SKPOLY
 70
0
  9
$TDCREATE
 40
2461302.6546412036
  9
$TDUCREATE
 40
2458532.153996898
  9
$TDUPDATE
 40
2461302.6546412036
  9
$TDUUPDATE
 40
2458532.1544311
  9
$TDINDWG
 40
0.0
  9
$TDUSRTIMER
 40
0.0
  9
$USRTIMER
 70
1
  9
$ANGBASE
 50
0.0
  9
$ANGDIR
 70
0
  9
$PDMODE
 70
0
  9
$PDSIZE
 40
0.0
  9
$PLINEWID
 40
0.0
  9
$SPLFRAME
 70
0
  9
$SPLINETYPE
 70
6
  9
$SPLINESEGS
 70
8
  9
$HANDSEED
  5
5D
  9
$SURFTAB1
 70
6
  9
$SURFTAB2
 70
6
  9
$SURFTYPE
 70
6
  9
$SURFU
 70
6
  9
$SURFV
 70
6
  9
$UCSBASE
  2

  9
$UCSNAME
  2

  9
$UCSORG
 10
0.0
 20
0.0
 30
0.0
  9
$UCSXDIR
 10
1.0
 20
0.0
 30
0.0
  9
$UCSYDIR
 10
0.0
 20
1.0
 30
0.0
  9
$UCSORTHOREF
  2

  9
$UCSORTHOVIEW
 70
0
  9
$UCSORGTOP
 10
0.0
 20
0.0
 30
0.0
  9
$UCSORGBOTTOM
 10
0.0
 20
0.0
 30
0.0
  9
$UCSORGLEFT
 10
0.0
 20
0.0
 30
0.0
  9
$UCSORGRIGHT
 10
0.0
 20
0.0
 30
0.0
  9
$UCSORGFRONT
 10
0.0
 20
0.0
 30
0.0
  9
$UCSORGBACK
 10
0.0
 20
0.0
 30
0.0
  9
$PUCSBASE
  2

  9
$PUCSNAME
  2

  9
$PUCSORG
 10
0.0
 20
0.0
 30
0.0
  9
$PUCSXDIR
 10
1.0
 20
0.0
 30
0.0
  9
$PUCSYDIR
 10
0.0
 20
1.0
 30
0.0
  9
$PUCSORTHOREF
  2

  9
$PUCSORTHOVIEW
 70
0
  9
$PUCSORGTOP
 10
0.0
 20
0.0
 30
0.0
  9
$PUCSORGBOTTOM
 10
0.0
 20
0.0
 30
0.0
  9
$PUCSORGLEFT
 10
0.0
 20
0.0
 30
0.0
  9
$PUCSORGRIGHT
 10
0.0
 20
0.0
 30
0.0
  9
$PUCSORGFRONT
 10
0.0
 20
0.0
 30
0.0
  9
$PUCSORGBACK
 10
0.0
 20
0.0
 30
0.0
  9
$USERI1
 70
0
  9
$USERI2
 70
0
  9
$USERI3
 70
0
  9
$USERI4
 70
0
  9
$USERI5
 70
0
  9
$USERR1
 40
0.0
  9
$USERR2
 40
0.0
  9
$USERR3
 40
0.0
  9
$USERR4
 40
0.0
  9
$USERR5
 40
0.0
  9
$WORLDVIEW
 70
1
  9
$SHADEDGE
 70
3
  9
$SHADEDIF
 70
70
  9
$TILEMODE
 70
1
  9
$MAXACTVP
 70
64
  9
$PINSBASE
 10
0.0
 20
0.0
 30
0.0
  9
$PLIMCHECK
 70
0
  9
$PEXTMIN
 10
1e+20
 20
1e+20
 30
1e+20
  9
$PEXTMAX
 10
-1e+20
 20
-1e+20
 30
-1e+20
  9
$PLIMMIN
 10
0.0
 20
0.0
  9
$PLIMMAX
 10
420.0
 20
297.0
  9
$UNITMODE
 70
0
  9
$VISRETAIN
 70
1
  9
$PLINEGEN
 70
0
  9
$PSLTSCALE
 70
1
  9
$TREEDEPTH
 70
3020
  9
$CMLSTYLE
  2
Standard
  9
$CMLJUST
 70
0
  9
$CMLSCALE
 40
20.0
  9
$PROXYGRAPHICS
 70
1
  9
$MEASUREMENT
 70
1
  9
$CELWEIGHT
370
-1
  9
$ENDCAPS
280
0
  9
$JOINSTYLE
280
0
  9
$LWDISPLAY
290
0
  9
$INSUNITS
 70
6
  9
$HYPERLINKBASE
  1

  9
$STYLESHEET
  1

  9
$XEDIT
290
1
  9
$CEPSNTYPE
380
0
  9
$PSTYLEMODE
290
1
  9
$FINGERPRINTGUID
  2
{0CF0D82C-7245-49BB-B5F1-4CDC4138D882}
  9
$VERSIONGUID
  2
{16B34C9C-06C2-4944-8291-D1C7994DE990}
  9
$EXTNAMES
290
1
  9
$PSVPSCALE
 40
0.0
  9
$OLESTARTUP
290
0
  9
$SORTENTS
280
127
  9
$INDEXCTL
280
0
  9
$HIDETEXT
280
1
  9
$XCLIPFRAME
280
1
  9
$HALOGAP
280
0
  9
$OBSCOLOR
 70
257
  9
$OBSLTYPE
280
0
  9
$INTERSECTIONDISPLAY
280
0
  9
$INTERSECTIONCOLOR
 70
257
  9
$DIMASSOC
280
2
  9
$PROJECTNAME
  1

  9
$CAMERADISPLAY
290
0
  9
$LENSLENGTH
 40
50.0
  9
$CAMERAHEIGHT
 40
0.0
  9
$STEPSPERSEC
 40
24.0
  9
$STEPSIZE
 40
100.0
  9
$3DDWFPREC
 40
2.0
  9
$PSOLWIDTH
 40
0.005
  9
$PSOLHEIGHT
 40
0.08
  9
$LOFTANG1
 40
1.570796326795
  9
$LOFTANG2
 40
1.570796326795
  9
$LOFTMAG1
 40
0.0
  9
$LOFTMAG2
 40
0.0
  9
$LOFTPARAM
 70
7
  9
$LOFTNORMALS
280
1
  9
$LATITUDE
 40
37.795
  9
$LONGITUDE
 40
-122.394
  9
$NORTHDIRECTION
 40
0.0
  9
$TIMEZONE
 70
-8000
  9
$LIGHTGLYPHDISPLAY
280
1
  9
$TILEMODELIGHTSYNCH
280
1
  9
$CMATERIAL
347
20
  9
$SOLIDHIST
280
0
  9
$SHOWHIST
280
1
  9
$DWFFRAME
280
2
  9
$DGNFRAME
280
2
  9
$REALWORLDSCALE
290
1
  9
$INTERFERECOLOR
 62
256
  9
$CSHADOW
280
0
  9
$SHADOWPLANELOCATION
 40
0.0
  0
ENDSEC
  0
SECTION
  2
CLASSES
  0
CLASS
  1
ACDBDICTIONARYWDFLT
  2
AcDbDictionaryWithDefault
  3
ObjectDBX Classes
 90
0
 91
0
280
0
281
0
  0
CLASS
  1
SUN
  2
AcDbSun
  3
SCENEOE
 90
1153
 91
0
280
0
281
0
  0
CLASS
  1
VISUALSTYLE
  2
AcDbVisualStyle
  3
ObjectDBX Classes
 90
4095
 91
0
280
0
281
0
  0
CLASS
  1
MATERIAL
  2
AcDbMaterial
  3
ObjectDBX Classes
 90
1153
 91
0
280
0
281
0
  0
CLASS
  1
SCALE
  2
AcDbScale
  3
ObjectDBX Classes
 90
1153
 91
0
280
0
281
0
  0
CLASS
  1
TABLESTYLE
  2
AcDbTableStyle
  3
ObjectDBX Classes
 90
4095
 91
0
280
0
281
0
  0
CLASS
  1
MLEADERSTYLE
  2
AcDbMLeaderStyle
  3
ACDB_MLEADERSTYLE_CLASS
 90
4095
 91
0
280
0
281
0
  0
CLASS
  1
DICTIONARYVAR
  2
AcDbDictionaryVar
  3
ObjectDBX Classes
 90
0
 91
0
280
0
281
0
  0
CLASS
  1
CELLSTYLEMAP
  2
AcDbCellStyleMap
  3
ObjectDBX Classes
 90
1152
 91
0
280
0
281
0
  0
CLASS
  1
MENTALRAYRENDERSETTINGS
  2
AcDbMentalRayRenderSettings
  3
SCENEOE
 90
1024
 91
0
280
0
281
0
  0
CLASS
  1
ACDBDETAILVIEWSTYLE
  2
AcDbDetailViewStyle
  3
ObjectDBX Classes
 90
1025
 91
0
280
0
281
0
  0
CLASS
  1
ACDBSECTIONVIEWSTYLE
  2
AcDbSectionViewStyle
  3
ObjectDBX Classes
 90
1025
 91
0
280
0
281
0
  0
CLASS
  1
RASTERVARIABLES
  2
AcDbRasterVariables
  3
ISM
 90
0
 91
0
280
0
281
0
  0
CLASS
  1
ACDBPLACEHOLDER
  2
AcDbPlaceHolder
  3
ObjectDBX Classes
 90
0
 91
0
280
0
281
0
  0
CLASS
  1
LAYOUT
  2
AcDbLayout
  3
ObjectDBX Classes
 90
0
 91
0
280
0
281
0
  0
ENDSEC
  0
SECTION
  2
TABLES
  0
TABLE
  2
VPORT
  5
8
330
0
100
AcDbSymbolTable
 70
1
  0
VPORT
  5
23
330
8
100
AcDbSymbolTableRecord
100
AcDbViewportTableRecord
  2
*Active
 70
0
 10
0.0
 20
0.0
 11
1.0
 21
1.0
 12
0.0
 22
0.0
 13
0.0
 23
0.0
 14
0.5
 24
0.5
 15
0.5
 25
0.5
 16
0.0
 26
0.0
 36
1.0
 17
0.0
 27
0.0
 37
0.0
 40
1000.0
 41
1.34
 42
50.0
 43
0.0
 44
0.0
 50
0.0
 51
0.0
 71
0
 72
1000
 73
1
 74
3
 75
0
 76
0
 77
0
 78
0
281
0
 65
0
146
0.0
  0
ENDTAB
  0
TABLE
  2
LTYPE
  5
2
330
0
100
AcDbSymbolTable
 70
3
  0
LTYPE
  5
24
330
2
100
AcDbSymbolTableRecord
100
AcDbLinetypeTableRecord
  2
ByBlock
 70
0
  3

 72
65
 73
0
 40
0.0
  0
LTYPE
  5
25
330
2
100
AcDbSymbolTableRecord
100
AcDbLinetypeTableRecord
  2
ByLayer
 70
0
  3

 72
65
 73
0
 40
0.0
  0
LTYPE
  5
26
330
2
100
AcDbSymbolTableRecord
100
AcDbLinetypeTableRecord
  2
Continuous
 70
0
  3

 72
65
 73
0
 40
0.0
  0
ENDTAB
  0
TABLE
  2
LAYER
  5
1
330
0
100
AcDbSymbolTable
 70
17
  0
LAYER
  5
27
330
1
100
AcDbSymbolTableRecord
100
AcDbLayerTableRecord
  2
0
 70
0
 62
7
  6
Continuous
370
-3
390
13
347
21
  0
LAYER
  5
28
330
1
100
AcDbSymbolTableRecord
100
AcDbLayerTableRecord
  2
Defpoints
 70
0
 62
7
  6
Continuous
290
0
370
-3
390
13
347
21
  0
LAYER
  5
2F
330
1
100
AcDbSymbolTableRecord
100
AcDbLayerTableRecord
  2
MATERIAL
 70
0
 62
8
  6
Continuous
370
-3
390
13
347
21
  0
LAYER
  5
30
330
1
100
AcDbSymbolTableRecord
100
AcDbLayerTableRecord
  2
HOLES
 70
0
 62
5
  6
Continuous
370
-3
390
13
347
21
  0
LAYER
  5
32
330
1
100
AcDbSymbolTableRecord
100
AcDbLayerTableRecord
  2
PART_51-13898
 70
0
 62
3
  6
Continuous
370
-3
390
13
347
21
  0
LAYER
  5
35
330
1
100
AcDbSymbolTableRecord
100
AcDbLayerTableRecord
  2
PART_51-12330
 70
0
 62
3
  6
Continuous
370
-3
390
13
347
21
  0
LAYER
  5
37
330
1
100
AcDbSymbolTableRecord
100
AcDbLayerTableRecord
  2
PART_51-12719
 70
0
 62
3
  6
Continuous
370
-3
390
13
347
21
  0
LAYER
  5
39
330
1
100
AcDbSymbolTableRecord
100
AcDbLayerTableRecord
  2
PART_51-12724
 70
0
 62
3
  6
Continuous
370
-3
390
13
347
21
  0
LAYER
  5
3B
330
1
100
AcDbSymbolTableRecord
100
AcDbLayerTableRecord
  2
PART_51-13896
 70
0
 62
3
  6
Continuous
370
-3
390
13
347
21
  0
LAYER
  5
3E
330
1
100
AcDbSymbolTableRecord
100
AcDbLayerTableRecord
  2
PART_51-12328
 70
0
 62
3
  6
Continuous
370
-3
390
13
347
21
  0
LAYER
  5
42
330
1
100
AcDbSymbolTableRecord
100
AcDbLayerTableRecord
  2
PART_51-12727
 70
0
 62
3
  6
Continuous
370
-3
390
13
347
21
  0
LAYER
  5
45
330
1
100
AcDbSymbolTableRecord
100
AcDbLayerTableRecord
  2
PART_51-12720
 70
0
 62
3
  6
Continuous
370
-3
390
13
347
21
  0
LAYER
  5
48
330
1
100
AcDbSymbolTableRecord
100
AcDbLayerTableRecord
  2
PART_51-13897
 70
0
 62
3
  6
Continuous
370
-3
390
13
347
21
  0
LAYER
  5
4C
330
1
100
AcDbSymbolTableRecord
100
AcDbLayerTableRecord
  2
PART_51-12725
 70
0
 62
3
  6
Continuous
370
-3
390
13
347
21
  0
LAYER
  5
4E
330
1
100
AcDbSymbolTableRecord
100
AcDbLayerTableRecord
  2
PART_51-13899
 70
0
 62
3
  6
Continuous
370
-3
390
13
347
21
  0
LAYER
  5
54
330
1
100
AcDbSymbolTableRecord
100
AcDbLayerTableRecord
  2
PART_51-12721
 70
0
 62
3
  6
Continuous
370
-3
390
13
347
21
  0
LAYER
  5
58
330
1
100
AcDbSymbolTableRecord
100
AcDbLayerTableRecord
  2
PART_51-12726
 70
0
 62
3
  6
Continuous
370
-3
390
13
347
21
  0
ENDTAB
  0
TABLE
  2
STYLE
  5
5
330
0
100
AcDbSymbolTable
 70
1
  0
STYLE
  5
29
330
5
100
AcDbSymbolTableRecord
100
AcDbTextStyleTableRecord
  2
Standard
 70
0
 40
0.0
 41
1.0
 50
0.0
 71
0
 42
2.5
  3
txt
  4

  0
ENDTAB
  0
TABLE
  2
VIEW
  5
7
330
0
100
AcDbSymbolTable
 70
0
  0
ENDTAB
  0
TABLE
  2
UCS
  5
6
330
0
100
AcDbSymbolTable
 70
0
  0
ENDTAB
  0
TABLE
  2
APPID
  5
3
330
0
100
AcDbSymbolTable
 70
3
  0
APPID
  5
2A
330
3
100
AcDbSymbolTableRecord
100
AcDbRegAppTableRecord
  2
ACAD
 70
0
  0
APPID
  5
5A
330
3
100
AcDbSymbolTableRecord
100
AcDbRegAppTableRecord
  2
HATCHBACKGROUNDCOLOR
 70
0
  0
APPID
  5
5B
330
3
100
AcDbSymbolTableRecord
100
AcDbRegAppTableRecord
  2
EZDXF
 70
0
  0
ENDTAB
  0
TABLE
  2
DIMSTYLE
  5
4
330
0
100
AcDbSymbolTable
 70
1
100
AcDbDimStyleTable
  0
DIMSTYLE
105
2B
330
4
100
AcDbSymbolTableRecord
100
AcDbDimStyleTableRecord
  2
Standard
 70
0
 40
1.0
 41
2.5
 42
0.625
 43
3.75
 44
1.25
 45
0.0
 46
0.0
 47
0.0
 48
0.0
 49
2.5
140
2.5
141
2.5
142
0.0
143
0.03937007874
144
1.0
145
0.0
146
1.0
147
0.625
148
0.0
 69
0
 70
0
 71
0
 72
0
 73
0
 74
0
 75
0
 76
0
 77
1
 78
8
 79
3
170
0
171
3
172
1
173
0
174
0
175
0
176
0
177
0
178
0
179
2
271
2
272
2
273
2
274
3
275
0
276
0
277
2
278
44
279
0
280
0
281
0
282
0
283
0
284
8
285
0
286
0
288
0
289
3
290
0
371
-2
372
-2
  0
ENDTAB
  0
TABLE
  2
BLOCK_RECORD
  5
9
330
0
100
AcDbSymbolTable
 70
2
  0
BLOCK_RECORD
  5
17
330
9
100
AcDbSymbolTableRecord
100
AcDbBlockTableRecord
  2
*Model_Space
340
1A
 70
0
280
1
281
0
  0
BLOCK_RECORD
  5
1B
330
9
100
AcDbSymbolTableRecord
100
AcDbBlockTableRecord
  2
*Paper_Space
340
1E
 70
0
280
1
281
0
  0
ENDTAB
  0
ENDSEC
  0
SECTION
  2
BLOCKS
  0
BLOCK
  5
18
330
17
100
AcDbEntity
  8
0
100
AcDbBlockBegin
  2
*Model_Space
 70
0
 10
0.0
 20
0.0
 30
0.0
  3
*Model_Space
  1

  0
ENDBLK
  5
19
330
17
100
AcDbEntity
  8
0
100
AcDbBlockEnd
  0
BLOCK
  5
1C
330
1B
100
AcDbEntity
  8
0
100
AcDbBlockBegin
  2
*Paper_Space
 70
0
 10
0.0
 20
0.0
 30
0.0
  3
*Paper_Space
  1

  0
ENDBLK
  5
1D
330
1B
100
AcDbEntity
  8
0
100
AcDbBlockEnd
  0
ENDSEC
  0
SECTION
  2
ENTITIES
  0
LWPOLYLINE
  5
31
330
17
100
AcDbEntity
  8
MATERIAL
100
AcDbPolyline
 90
4
 70
1
 10
0.0
 20
0.0
 10
1200.0
 20
0.0
 10
1200.0
 20
1787.8
 10
0.0
 20
1787.8
  0
LWPOLYLINE
  5
33
330
17
100
AcDbEntity
  8
PART_51-13898
100
AcDbPolyline
 90
943
 70
1
 10
327.75
 20
599.75
 10
538.5
 20
539.5
 10
539.0
 20
539.25
 10
539.5
 20
539.0
 10
540.0
 20
539.0
 10
540.5
 20
538.75
 10
540.75
 20
538.5
 10
541.25
 20
538.0
 10
541.75
 20
537.75
 10
542.25
 20
537.5
 10
542.5
 20
537.0
 10
543.0
 20
536.75
 10
543.25
 20
536.25
 10
543.75
 20
535.75
 10
544.0
 20
535.5
 10
544.25
 20
535.0
 10
544.5
 20
534.5
 10
544.75
 20
534.0
 10
545.0
 20
533.5
 10
545.25
 20
533.0
 10
545.25
 20
532.5
 10
545.5
 20
532.0
 10
545.5
 20
531.5
 10
545.5
 20
531.0
 10
545.75
 20
530.5
 10
545.75
 20
529.75
 10
545.75
 20
529.25
 10
545.5
 20
528.75
 10
545.5
 20
528.25
 10
545.5
 20
527.75
 10
545.25
 20
527.25
 10
518.75
 20
431.25
 10
518.75
 20
430.75
 10
518.5
 20
430.25
 10
518.25
 20
429.75
 10
518.0
 20
429.25
 10
517.75
 20
428.75
 10
517.5
 20
428.25
 10
517.25
 20
427.75
 10
516.75
 20
427.5
 10
516.5
 20
427.0
 10
516.25
 20
426.75
 10
515.75
 20
426.25
 10
515.25
 20
426.0
 10
515.0
 20
425.75
 10
514.5
 20
425.25
 10
514.0
 20
425.0
 10
513.5
 20
424.75
 10
513.0
 20
424.5
 10
512.5
 20
424.5
 10
512.0
 20
424.25
 10
511.5
 20
424.0
 10
511.0
 20
424.0
 10
510.5
 20
424.0
 10
510.0
 20
423.75
 10
509.5
 20
423.75
 10
509.0
 20
423.75
 10
508.5
 20
423.75
 10
508.0
 20
424.0
 10
507.25
 20
424.0
 10
506.75
 20
424.0
 10
506.25
 20
424.25
 10
355.25
 20
468.5
 10
355.0
 20
468.5
 10
354.75
 20
468.5
 10
354.5
 20
468.75
 10
354.25
 20
468.75
 10
354.0
 20
468.75
 10
353.75
 20
468.75
 10
353.5
 20
468.75
 10
353.25
 20
468.75
 10
353.0
 20
468.75
 10
352.75
 20
468.75
 10
352.5
 20
469.0
 10
352.25
 20
469.0
 10
352.0
 20
468.75
 10
351.75
 20
468.75
 10
351.5
 20
468.75
 10
351.25
 20
468.75
 10
351.0
 20
468.75
 10
154.5
 20
440.75
 10
153.75
 20
440.75
 10
153.25
 20
440.5
 10
152.5
 20
440.5
 10
152.0
 20
440.25
 10
151.5
 20
440.0
 10
150.75
 20
439.75
 10
150.25
 20
439.5
 10
149.75
 20
439.25
 10
149.25
 20
438.75
 10
148.75
 20
438.5
 10
148.25
 20
438.0
 10
147.75
 20
437.5
 10
147.25
 20
437.0
 10
147.0
 20
436.75
 10
146.5
 20
436.25
 10
146.0
 20
435.75
 10
145.75
 20
435.0
 10
145.5
 20
434.5
 10
145.25
 20
434.0
 10
145.0
 20
433.5
 10
144.75
 20
432.75
 10
144.5
 20
432.25
 10
144.5
 20
431.5
 10
144.25
 20
431.0
 10
144.25
 20
430.25
 10
144.25
 20
429.75
 10
144.0
 20
429.0
 10
144.0
 20
428.5
 10
149.0
 20
318.25
 10
149.25
 20
317.75
 10
149.25
 20
317.0
 10
149.25
 20
316.5
 10
149.5
 20
315.75
 10
149.75
 20
315.25
 10
150.0
 20
314.5
 10
150.25
 20
314.0
 10
150.5
 20
313.5
 10
150.75
 20
312.75
 10
151.0
 20
312.25
 10
151.5
 20
311.75
 10
151.75
 20
311.25
 10
152.25
 20
310.75
 10
152.75
 20
310.25
 10
153.25
 20
309.75
 10
153.75
 20
309.5
 10
154.25
 20
309.0
 10
154.75
 20
308.75
 10
155.25
 20
308.25
 10
156.0
 20
308.0
 10
156.5
 20
307.75
 10
157.0
 20
307.5
 10
157.75
 20
307.5
 10
158.25
 20
307.25
 10
159.0
 20
307.0
 10
159.75
 20
307.0
 10
160.25
 20
307.0
 10
161.0
 20
307.0
 10
355.0
 20
304.75
 10
355.5
 20
304.75
 10
356.0
 20
304.75
 10
356.25
 20
304.75
 10
356.75
 20
304.75
 10
357.25
 20
305.0
 10
357.5
 20
305.0
 10
358.0
 20
305.25
 10
358.25
 20
305.25
 10
358.75
 20
305.5
 10
359.25
 20
305.5
 10
359.5
 20
305.75
 10
360.0
 20
306.0
 10
360.25
 20
306.0
 10
360.5
 20
306.25
 10
361.0
 20
306.5
 10
361.25
 20
306.75
 10
361.5
 20
307.0
 10
362.0
 20
307.25
 10
362.25
 20
307.5
 10
362.5
 20
308.0
 10
362.75
 20
308.25
 10
363.0
 20
308.5
 10
363.25
 20
308.75
 10
363.5
 20
309.25
 10
364.5
 20
310.5
 10
365.5
 20
312.0
 10
366.75
 20
313.25
 10
368.0
 20
314.5
 10
369.25
 20
315.75
 10
370.5
 20
316.75
 10
372.0
 20
317.75
 10
373.5
 20
318.75
 10
375.0
 20
319.75
 10
376.5
 20
320.5
 10
378.0
 20
321.25
 10
379.75
 20
321.75
 10
381.25
 20
322.5
 10
383.0
 20
323.0
 10
384.75
 20
323.25
 10
386.5
 20
323.5
 10
388.0
 20
323.75
 10
389.75
 20
323.75
 10
391.5
 20
323.75
 10
393.25
 20
323.75
 10
395.0
 20
323.5
 10
396.75
 20
323.25
 10
398.5
 20
323.0
 10
400.25
 20
322.5
 10
401.75
 20
322.0
 10
403.5
 20
321.5
 10
405.0
 20
320.75
 10
406.5
 20
320.0
 10
408.0
 20
319.0
 10
409.5
 20
318.25
 10
411.0
 20
317.25
 10
412.25
 20
316.0
 10
413.5
 20
315.0
 10
414.75
 20
313.75
 10
416.0
 20
312.5
 10
417.0
 20
311.0
 10
418.25
 20
309.75
 10
419.0
 20
308.25
 10
477.75
 20
212.75
 10
478.25
 20
212.25
 10
478.5
 20
211.75
 10
478.75
 20
211.25
 10
479.0
 20
210.75
 10
479.25
 20
210.25
 10
479.5
 20
209.75
 10
479.75
 20
209.25
 10
480.0
 20
208.75
 10
480.25
 20
208.25
 10
480.5
 20
207.75
 10
480.5
 20
207.0
 10
480.75
 20
206.5
 10
481.0
 20
206.0
 10
481.0
 20
205.5
 10
481.25
 20
204.75
 10
481.5
 20
204.25
 10
481.5
 20
203.75
 10
481.75
 20
203.25
 10
481.75
 20
202.5
 10
482.0
 20
202.0
 10
482.0
 20
201.5
 10
482.0
 20
200.75
 10
482.25
 20
200.25
 10
482.25
 20
199.75
 10
482.75
 20
193.0
 10
483.0
 20
191.75
 10
483.25
 20
190.25
 10
483.5
 20
189.0
 10
483.75
 20
187.75
 10
484.25
 20
186.5
 10
484.75
 20
185.25
 10
485.25
 20
184.0
 10
485.75
 20
183.0
 10
486.5
 20
181.75
 10
487.25
 20
180.75
 10
488.0
 20
179.5
 10
489.0
 20
178.5
 10
489.75
 20
177.5
 10
490.75
 20
176.75
 10
491.75
 20
175.75
 10
492.75
 20
175.0
 10
494.0
 20
174.25
 10
495.0
 20
173.5
 10
496.25
 20
173.0
 10
497.5
 20
172.25
 10
498.5
 20
171.75
 10
499.75
 20
171.25
 10
501.25
 20
171.0
 10
502.5
 20
170.75
 10
503.75
 20
170.5
 10
505.0
 20
170.25
 10
506.25
 20
170.25
 10
507.75
 20
170.0
 10
561.0
 20
170.25
 10
561.25
 20
170.25
 10
561.5
 20
170.25
 10
561.75
 20
170.25
 10
562.0
 20
170.25
 10
562.25
 20
170.25
 10
562.5
 20
170.25
 10
562.75
 20
170.25
 10
563.0
 20
170.25
 10
563.25
 20
170.5
 10
563.5
 20
170.5
 10
563.75
 20
170.5
 10
564.0
 20
170.5
 10
564.25
 20
170.75
 10
564.5
 20
170.75
 10
564.75
 20
170.75
 10
565.0
 20
171.0
 10
565.25
 20
171.0
 10
565.5
 20
171.25
 10
565.75
 20
171.25
 10
566.25
 20
171.75
 10
567.0
 20
172.0
 10
567.75
 20
172.25
 10
568.5
 20
172.75
 10
569.25
 20
173.0
 10
570.0
 20
173.25
 10
570.75
 20
173.5
 10
571.5
 20
173.75
 10
572.25
 20
174.0
 10
573.0
 20
174.25
 10
573.75
 20
174.5
 10
574.75
 20
174.5
 10
575.5
 20
174.75
 10
576.25
 20
175.0
 10
577.0
 20
175.0
 10
577.75
 20
175.25
 10
578.5
 20
175.25
 10
579.25
 20
175.5
 10
580.25
 20
175.5
 10
581.0
 20
175.5
 10
581.75
 20
175.75
 10
582.5
 20
175.75
 10
583.25
 20
175.75
 10
584.25
 20
175.75
 10
778.0
 20
175.0
 10
778.5
 20
175.0
 10
779.0
 20
175.0
 10
779.5
 20
175.0
 10
780.25
 20
174.75
 10
780.75
 20
174.75
 10
781.25
 20
174.5
 10
781.75
 20
174.25
 10
782.25
 20
174.0
 10
782.75
 20
173.75
 10
783.25
 20
173.5
 10
783.5
 20
173.25
 10
784.0
 20
173.0
 10
784.5
 20
172.75
 10
784.75
 20
172.25
 10
785.25
 20
172.0
 10
785.5
 20
171.5
 10
786.0
 20
171.0
 10
786.25
 20
170.75
 10
786.5
 20
170.25
 10
786.75
 20
169.75
 10
787.0
 20
169.25
 10
787.25
 20
168.75
 10
787.5
 20
168.25
 10
787.5
 20
167.75
 10
787.75
 20
167.25
 10
787.75
 20
166.75
 10
788.0
 20
166.0
 10
788.0
 20
165.5
 10
788.0
 20
165.0
 10
787.75
 20
65.0
 10
787.75
 20
64.5
 10
787.75
 20
64.0
 10
787.75
 20
63.5
 10
787.5
 20
63.0
 10
787.5
 20
62.25
 10
787.25
 20
61.75
 10
787.0
 20
61.25
 10
787.0
 20
60.75
 10
786.75
 20
60.5
 10
786.5
 20
60.0
 10
786.0
 20
59.5
 10
785.75
 20
59.0
 10
785.5
 20
58.5
 10
785.25
 20
58.25
 10
784.75
 20
57.75
 10
784.25
 20
57.5
 10
784.0
 20
57.25
 10
783.5
 20
56.75
 10
783.0
 20
56.5
 10
782.75
 20
56.25
 10
782.25
 20
56.0
 10
781.75
 20
55.75
 10
781.25
 20
55.5
 10
780.75
 20
55.5
 10
780.25
 20
55.25
 10
779.75
 20
55.25
 10
779.25
 20
55.0
 10
778.5
 20
55.0
 10
778.0
 20
55.0
 10
777.5
 20
55.0
 10
713.5
 20
56.5
 10
713.25
 20
56.5
 10
712.75
 20
56.5
 10
712.25
 20
56.5
 10
712.0
 20
56.25
 10
711.5
 20
56.25
 10
711.0
 20
56.25
 10
710.75
 20
56.0
 10
710.25
 20
56.0
 10
710.0
 20
55.75
 10
709.5
 20
55.75
 10
709.25
 20
55.5
 10
708.75
 20
55.5
 10
708.5
 20
55.25
 10
708.0
 20
55.0
 10
707.75
 20
54.75
 10
707.5
 20
54.5
 10
707.0
 20
54.25
 10
706.75
 20
54.0
 10
706.5
 20
53.75
 10
706.25
 20
53.5
 10
705.75
 20
53.0
 10
705.5
 20
52.75
 10
705.25
 20
52.5
 10
705.0
 20
52.25
 10
684.75
 20
22.5
 10
684.5
 20
22.25
 10
684.25
 20
22.0
 10
684.25
 20
21.75
 10
684.0
 20
21.5
 10
683.75
 20
21.25
 10
683.5
 20
21.25
 10
683.25
 20
21.0
 10
683.25
 20
20.75
 10
683.0
 20
20.5
 10
682.75
 20
20.25
 10
682.5
 20
20.25
 10
682.25
 20
20.0
 10
682.0
 20
19.75
 10
681.75
 20
19.75
 10
681.5
 20
19.5
 10
681.25
 20
19.5
 10
681.0
 20
19.25
 10
680.75
 20
19.0
 10
680.5
 20
19.0
 10
680.0
 20
19.0
 10
679.75
 20
18.75
 10
679.5
 20
18.75
 10
679.25
 20
18.5
 10
679.0
 20
18.5
 10
667.5
 20
15.75
 10
656.0
 20
13.0
 10
644.5
 20
10.75
 10
633.0
 20
8.5
 10
621.5
 20
6.5
 10
609.75
 20
5.0
 10
598.0
 20
3.5
 10
586.25
 20
2.25
 10
574.5
 20
1.25
 10
562.75
 20
0.75
 10
551.0
 20
0.25
 10
539.25
 20
0.0
 10
527.5
 20
0.0
 10
515.75
 20
0.25
 10
504.0
 20
1.0
 10
492.25
 20
1.75
 10
480.5
 20
2.75
 10
468.75
 20
4.0
 10
457.25
 20
5.5
 10
445.5
 20
7.25
 10
434.0
 20
9.25
 10
422.25
 20
11.5
 10
410.75
 20
14.0
 10
399.25
 20
16.5
 10
399.25
 20
16.75
 10
399.0
 20
16.75
 10
398.75
 20
16.75
 10
398.5
 20
16.75
 10
398.25
 20
16.75
 10
398.0
 20
16.75
 10
397.75
 20
16.75
 10
397.75
 20
17.0
 10
397.5
 20
17.0
 10
397.25
 20
17.0
 10
397.0
 20
17.0
 10
387.5
 20
16.75
 10
378.0
 20
16.75
 10
368.75
 20
16.75
 10
359.25
 20
16.5
 10
350.0
 20
16.5
 10
340.5
 20
16.25
 10
331.25
 20
16.0
 10
321.75
 20
16.0
 10
312.5
 20
15.75
 10
303.0
 20
15.5
 10
293.75
 20
15.25
 10
284.25
 20
15.0
 10
274.75
 20
14.75
 10
265.5
 20
14.5
 10
256.0
 20
14.25
 10
246.75
 20
14.0
 10
237.25
 20
13.75
 10
228.0
 20
13.25
 10
218.5
 20
13.0
 10
209.25
 20
12.75
 10
199.75
 20
12.25
 10
190.5
 20
12.0
 10
181.0
 20
11.5
 10
171.75
 20
11.0
 10
171.25
 20
11.0
 10
171.0
 20
11.0
 10
170.5
 20
11.25
 10
170.25
 20
11.25
 10
169.75
 20
11.25
 10
169.5
 20
11.25
 10
169.0
 20
11.5
 10
168.75
 20
11.5
 10
168.5
 20
11.75
 10
168.0
 20
12.0
 10
167.75
 20
12.0
 10
167.5
 20
12.25
 10
167.0
 20
12.5
 10
166.75
 20
12.75
 10
166.5
 20
13.0
 10
166.25
 20
13.25
 10
166.0
 20
13.5
 10
165.75
 20
13.75
 10
165.5
 20
14.25
 10
165.25
 20
14.5
 10
165.25
 20
14.75
 10
165.0
 20
15.0
 10
164.75
 20
15.5
 10
164.75
 20
15.75
 10
164.5
 20
16.25
 10
164.5
 20
16.5
 10
164.5
 20
17.0
 10
164.5
 20
17.25
 10
164.25
 20
17.75
 10
164.25
 20
18.0
 10
163.25
 20
115.5
 10
163.25
 20
116.25
 10
163.25
 20
116.75
 10
163.25
 20
117.5
 10
163.0
 20
118.25
 10
163.0
 20
118.75
 10
162.75
 20
119.5
 10
162.5
 20
120.25
 10
162.25
 20
120.75
 10
162.0
 20
121.5
 10
161.5
 20
122.0
 10
161.25
 20
122.5
 10
160.75
 20
123.0
 10
160.25
 20
123.75
 10
160.0
 20
124.25
 10
159.5
 20
124.75
 10
159.0
 20
125.25
 10
158.5
 20
125.5
 10
157.75
 20
126.0
 10
157.25
 20
126.25
 10
156.75
 20
126.75
 10
156.0
 20
127.0
 10
155.5
 20
127.25
 10
154.75
 20
127.5
 10
154.25
 20
127.75
 10
153.5
 20
128.0
 10
152.75
 20
128.0
 10
152.25
 20
128.25
 10
151.5
 20
128.25
 10
150.75
 20
128.25
 10
150.25
 20
128.25
 10
149.5
 20
128.25
 10
23.0
 20
119.5
 10
22.5
 20
119.5
 10
22.25
 20
119.5
 10
21.75
 20
119.5
 10
21.25
 20
119.75
 10
21.0
 20
119.75
 10
20.5
 20
119.75
 10
20.0
 20
120.0
 10
19.75
 20
120.0
 10
19.25
 20
120.25
 10
19.0
 20
120.5
 10
18.5
 20
120.5
 10
18.25
 20
120.75
 10
17.75
 20
121.0
 10
17.5
 20
121.25
 10
17.25
 20
121.5
 10
16.75
 20
122.0
 10
16.5
 20
122.25
 10
16.25
 20
122.5
 10
16.0
 20
122.75
 10
15.75
 20
123.25
 10
15.5
 20
123.5
 10
15.25
 20
124.0
 10
15.25
 20
124.25
 10
15.0
 20
124.75
 10
14.75
 20
125.25
 10
14.75
 20
125.5
 10
14.75
 20
126.0
 10
14.5
 20
126.25
 10
14.5
 20
126.75
 10
14.5
 20
127.25
 10
12.0
 20
186.0
 10
12.0
 20
186.5
 10
12.0
 20
186.75
 10
12.0
 20
187.25
 10
12.0
 20
187.5
 10
12.0
 20
188.0
 10
12.25
 20
188.25
 10
12.25
 20
188.5
 10
12.5
 20
189.0
 10
12.5
 20
189.25
 10
12.75
 20
189.5
 10
13.0
 20
190.0
 10
13.0
 20
190.25
 10
13.25
 20
190.5
 10
13.5
 20
190.75
 10
13.75
 20
191.0
 10
14.0
 20
191.25
 10
14.25
 20
191.5
 10
14.5
 20
191.75
 10
14.75
 20
192.0
 10
15.25
 20
192.25
 10
15.5
 20
192.5
 10
15.75
 20
192.75
 10
16.25
 20
192.75
 10
16.5
 20
193.0
 10
16.75
 20
193.0
 10
17.25
 20
193.25
 10
17.5
 20
193.25
 10
18.0
 20
193.25
 10
18.25
 20
193.25
 10
18.75
 20
193.25
 10
58.0
 20
194.75
 10
58.75
 20
195.0
 10
59.5
 20
195.0
 10
60.0
 20
195.0
 10
60.75
 20
195.25
 10
61.5
 20
195.25
 10
62.0
 20
195.5
 10
62.75
 20
195.75
 10
63.25
 20
196.0
 10
64.0
 20
196.25
 10
64.5
 20
196.5
 10
65.25
 20
197.0
 10
65.75
 20
197.25
 10
66.25
 20
197.75
 10
66.75
 20
198.0
 10
67.25
 20
198.5
 10
67.75
 20
199.0
 10
68.25
 20
199.5
 10
68.75
 20
200.0
 10
69.25
 20
200.5
 10
69.5
 20
201.0
 10
70.0
 20
201.5
 10
70.25
 20
202.0
 10
70.75
 20
202.75
 10
71.0
 20
203.25
 10
72.0
 20
205.5
 10
73.0
 20
207.75
 10
73.75
 20
210.25
 10
74.5
 20
212.5
 10
75.25
 20
215.0
 10
75.75
 20
217.5
 10
76.0
 20
219.75
 10
76.5
 20
222.25
 10
76.5
 20
224.75
 10
76.75
 20
227.25
 10
76.75
 20
229.75
 10
76.5
 20
232.25
 10
76.25
 20
234.75
 10
75.75
 20
237.25
 10
75.5
 20
239.75
 10
74.75
 20
242.0
 10
74.25
 20
244.5
 10
73.25
 20
246.75
 10
72.5
 20
249.25
 10
71.5
 20
251.5
 10
70.25
 20
253.75
 10
69.25
 20
255.75
 10
67.75
 20
258.0
 10
66.5
 20
260.0
 10
66.0
 20
260.5
 10
65.75
 20
261.0
 10
65.25
 20
261.5
 10
64.75
 20
262.0
 10
64.25
 20
262.5
 10
63.75
 20
263.0
 10
63.25
 20
263.25
 10
62.75
 20
263.75
 10
62.25
 20
264.0
 10
61.75
 20
264.5
 10
61.25
 20
264.75
 10
60.5
 20
265.0
 10
60.0
 20
265.25
 10
59.25
 20
265.5
 10
58.75
 20
265.75
 10
58.0
 20
266.0
 10
57.5
 20
266.0
 10
56.75
 20
266.25
 10
56.25
 20
266.25
 10
55.5
 20
266.25
 10
55.0
 20
266.5
 10
54.25
 20
266.5
 10
53.5
 20
266.5
 10
53.0
 20
266.25
 10
13.0
 20
263.0
 10
12.5
 20
263.0
 10
12.25
 20
263.0
 10
11.75
 20
263.0
 10
11.5
 20
263.0
 10
11.25
 20
263.0
 10
10.75
 20
263.0
 10
10.5
 20
263.25
 10
10.0
 20
263.25
 10
9.75
 20
263.5
 10
9.5
 20
263.5
 10
9.0
 20
263.75
 10
8.75
 20
264.0
 10
8.5
 20
264.25
 10
8.25
 20
264.25
 10
7.75
 20
264.5
 10
7.5
 20
264.75
 10
7.25
 20
265.0
 10
7.0
 20
265.5
 10
6.75
 20
265.75
 10
6.5
 20
266.0
 10
6.5
 20
266.25
 10
6.25
 20
266.5
 10
6.0
 20
267.0
 10
6.0
 20
267.25
 10
5.75
 20
267.5
 10
5.75
 20
268.0
 10
5.5
 20
268.25
 10
5.5
 20
268.75
 10
5.5
 20
269.0
 10
5.5
 20
269.5
 10
5.5
 20
269.75
 10
5.25
 20
272.75
 10
5.25
 20
276.0
 10
5.0
 20
279.0
 10
5.0
 20
282.0
 10
4.75
 20
285.0
 10
4.75
 20
288.25
 10
4.5
 20
291.25
 10
4.25
 20
294.25
 10
4.25
 20
297.5
 10
4.0
 20
300.5
 10
3.75
 20
303.5
 10
3.5
 20
306.5
 10
3.25
 20
309.75
 10
3.0
 20
312.75
 10
2.75
 20
315.75
 10
2.5
 20
318.75
 10
2.25
 20
322.0
 10
2.0
 20
325.0
 10
1.75
 20
328.0
 10
1.5
 20
331.0
 10
1.0
 20
334.25
 10
0.75
 20
337.25
 10
0.5
 20
340.25
 10
0.0
 20
343.25
 10
0.0
 20
343.75
 10
0.0
 20
344.0
 10
0.0
 20
344.5
 10
0.0
 20
344.75
 10
0.0
 20
345.25
 10
0.25
 20
345.5
 10
0.25
 20
346.0
 10
0.25
 20
346.25
 10
0.5
 20
346.5
 10
0.5
 20
347.0
 10
0.75
 20
347.25
 10
1.0
 20
347.5
 10
1.25
 20
348.0
 10
1.25
 20
348.25
 10
1.5
 20
348.5
 10
1.75
 20
348.75
 10
2.0
 20
349.0
 10
2.25
 20
349.25
 10
2.5
 20
349.5
 10
3.0
 20
349.75
 10
3.25
 20
350.0
 10
3.5
 20
350.25
 10
3.75
 20
350.5
 10
4.25
 20
350.5
 10
4.5
 20
350.75
 10
5.0
 20
350.75
 10
5.25
 20
351.0
 10
5.5
 20
351.0
 10
6.0
 20
351.0
 10
6.25
 20
351.0
 10
6.75
 20
351.25
 10
63.75
 20
353.5
 10
64.5
 20
353.5
 10
65.25
 20
353.75
 10
66.0
 20
353.75
 10
66.75
 20
354.0
 10
67.75
 20
354.25
 10
68.5
 20
354.5
 10
69.25
 20
354.75
 10
69.75
 20
355.25
 10
70.5
 20
355.5
 10
71.25
 20
356.0
 10
72.0
 20
356.5
 10
72.5
 20
357.0
 10
73.25
 20
357.5
 10
73.75
 20
358.0
 10
74.25
 20
358.5
 10
74.75
 20
359.25
 10
75.25
 20
359.75
 10
75.75
 20
360.5
 10
76.25
 20
361.25
 10
76.5
 20
361.75
 10
76.75
 20
362.5
 10
77.25
 20
363.25
 10
77.5
 20
364.0
 10
77.5
 20
365.0
 10
77.75
 20
365.75
 10
78.0
 20
366.5
 10
78.0
 20
367.25
 10
78.0
 20
368.0
 10
78.0
 20
368.75
 10
78.0
 20
369.75
 10
74.25
 20
419.25
 10
74.25
 20
419.75
 10
74.0
 20
420.25
 10
74.0
 20
421.0
 10
73.75
 20
421.5
 10
73.75
 20
422.0
 10
73.5
 20
422.5
 10
73.25
 20
422.75
 10
73.0
 20
423.25
 10
72.75
 20
423.75
 10
72.5
 20
424.25
 10
72.25
 20
424.75
 10
71.75
 20
425.0
 10
71.5
 20
425.5
 10
71.25
 20
425.75
 10
70.75
 20
426.25
 10
70.25
 20
426.5
 10
70.0
 20
426.75
 10
69.5
 20
427.0
 10
69.0
 20
427.25
 10
68.5
 20
427.5
 10
68.0
 20
427.75
 10
67.5
 20
428.0
 10
67.0
 20
428.25
 10
66.5
 20
428.25
 10
66.0
 20
428.5
 10
65.5
 20
428.5
 10
65.0
 20
428.5
 10
64.5
 20
428.5
 10
64.0
 20
428.5
 10
63.5
 20
428.5
 10
63.0
 20
428.5
 10
31.5
 20
424.25
 10
31.0
 20
424.0
 10
30.5
 20
424.0
 10
30.0
 20
424.0
 10
29.5
 20
424.0
 10
28.75
 20
424.25
 10
28.25
 20
424.25
 10
27.75
 20
424.25
 10
27.25
 20
424.5
 10
26.75
 20
424.75
 10
26.25
 20
424.75
 10
25.75
 20
425.0
 10
25.25
 20
425.25
 10
25.0
 20
425.5
 10
24.5
 20
425.75
 10
24.0
 20
426.25
 10
23.5
 20
426.5
 10
23.25
 20
426.75
 10
22.75
 20
427.25
 10
22.5
 20
427.5
 10
22.25
 20
428.0
 10
21.75
 20
428.5
 10
21.5
 20
429.0
 10
21.25
 20
429.25
 10
21.0
 20
429.75
 10
20.75
 20
430.25
 10
20.75
 20
430.75
 10
20.5
 20
431.25
 10
20.5
 20
431.75
 10
20.25
 20
432.25
 10
20.25
 20
432.75
 10
20.25
 20
433.5
 10
20.25
 20
434.0
 10
20.25
 20
434.5
 10
20.25
 20
435.0
 10
20.25
 20
435.5
 10
20.25
 20
436.0
 10
20.5
 20
436.5
 10
20.5
 20
437.0
 10
22.25
 20
442.0
 10
23.75
 20
447.0
 10
25.5
 20
452.0
 10
27.0
 20
457.0
 10
28.75
 20
462.0
 10
30.25
 20
467.0
 10
31.75
 20
472.0
 10
33.5
 20
477.0
 10
35.0
 20
482.0
 10
36.5
 20
487.0
 10
38.0
 20
492.0
 10
39.5
 20
497.0
 10
41.0
 20
502.0
 10
42.5
 20
507.0
 10
44.0
 20
512.0
 10
45.5
 20
517.0
 10
46.75
 20
522.0
 10
48.25
 20
527.0
 10
49.75
 20
532.25
 10
51.0
 20
537.25
 10
52.5
 20
542.25
 10
53.75
 20
547.25
 10
55.25
 20
552.25
 10
56.5
 20
557.5
 10
56.75
 20
558.0
 10
57.0
 20
558.75
 10
57.25
 20
559.25
 10
57.5
 20
560.0
 10
58.0
 20
560.5
 10
58.25
 20
561.25
 10
58.5
 20
561.75
 10
59.0
 20
562.25
 10
59.5
 20
563.0
 10
60.0
 20
563.5
 10
60.5
 20
564.0
 10
61.0
 20
564.25
 10
61.5
 20
564.75
 10
62.0
 20
565.25
 10
62.5
 20
565.5
 10
63.25
 20
566.0
 10
63.75
 20
566.25
 10
64.5
 20
566.5
 10
65.0
 20
566.75
 10
65.75
 20
567.0
 10
66.25
 20
567.25
 10
67.0
 20
567.5
 10
67.75
 20
567.5
 10
68.5
 20
567.75
 10
79.0
 20
569.0
 10
89.75
 20
570.25
 10
100.25
 20
571.75
 10
111.0
 20
573.0
 10
121.5
 20
574.25
 10
132.25
 20
575.75
 10
142.75
 20
577.0
 10
153.5
 20
578.25
 10
164.0
 20
579.75
 10
174.75
 20
581.0
 10
185.5
 20
582.5
 10
196.0
 20
583.75
 10
206.75
 20
585.0
 10
217.25
 20
586.5
 10
228.0
 20
587.75
 10
238.5
 20
589.25
 10
249.25
 20
590.5
 10
259.75
 20
592.0
 10
270.5
 20
593.25
 10
281.0
 20
594.5
 10
291.75
 20
596.0
 10
302.25
 20
597.25
 10
313.0
 20
598.75
 10
323.75
 20
600.0
 10
324.0
 20
600.25
 10
324.25
 20
600.25
 10
324.5
 20
600.25
 10
324.75
 20
600.25
 10
325.0
 20
600.25
 10
325.25
 20
600.25
 10
325.5
 20
600.25
 10
325.75
 20
600.25
 10
326.0
 20
600.0
 10
326.25
 20
600.0
 10
326.5
 20
600.0
 10
326.75
 20
600.0
 10
327.0
 20
600.0
 10
327.25
 20
600.0
 10
327.5
 20
599.75
 10
327.75
 20
599.75
  0
LWPOLYLINE
  5
34
330
17
100
AcDbEntity
  8
HOLES
100
AcDbPolyline
 90
122
 70
1
 10
167.25
 20
284.0
 10
175.25
 20
169.0
 10
175.25
 20
168.75
 10
175.25
 20
168.5
 10
175.25
 20
168.25
 10
175.25
 20
168.0
 10
175.5
 20
167.75
 10
175.5
 20
167.5
 10
175.5
 20
167.25
 10
175.75
 20
167.0
 10
175.75
 20
166.75
 10
176.0
 20
166.5
 10
176.25
 20
166.5
 10
176.25
 20
166.25
 10
176.5
 20
166.0
 10
176.75
 20
165.75
 10
177.0
 20
165.5
 10
177.25
 20
165.25
 10
177.5
 20
165.25
 10
177.75
 20
165.0
 10
178.0
 20
165.0
 10
178.25
 20
164.75
 10
178.5
 20
164.75
 10
178.75
 20
164.75
 10
179.0
 20
164.5
 10
179.25
 20
164.5
 10
179.5
 20
164.5
 10
179.75
 20
164.5
 10
180.0
 20
164.5
 10
180.25
 20
164.5
 10
369.5
 20
167.75
 10
369.75
 20
167.75
 10
370.0
 20
167.75
 10
370.25
 20
167.75
 10
370.5
 20
167.75
 10
370.75
 20
168.0
 10
371.0
 20
168.0
 10
371.25
 20
168.0
 10
371.5
 20
168.25
 10
371.75
 20
168.25
 10
372.0
 20
168.5
 10
372.25
 20
168.5
 10
372.25
 20
168.75
 10
372.5
 20
168.75
 10
372.75
 20
169.0
 10
373.0
 20
169.25
 10
373.0
 20
169.5
 10
373.25
 20
169.5
 10
373.5
 20
169.75
 10
373.5
 20
170.0
 10
373.75
 20
170.25
 10
373.75
 20
170.5
 10
374.0
 20
170.75
 10
374.0
 20
171.0
 10
374.25
 20
171.25
 10
374.25
 20
171.5
 10
374.25
 20
171.75
 10
374.25
 20
172.0
 10
374.25
 20
172.25
 10
374.25
 20
172.5
 10
374.25
 20
172.75
 10
374.25
 20
173.0
 10
366.5
 20
282.5
 10
366.5
 20
282.75
 10
366.5
 20
283.0
 10
366.5
 20
283.25
 10
366.25
 20
283.5
 10
366.25
 20
283.75
 10
366.25
 20
284.0
 10
366.0
 20
284.25
 10
366.0
 20
284.5
 10
365.75
 20
284.75
 10
365.75
 20
285.0
 10
365.5
 20
285.25
 10
365.25
 20
285.5
 10
365.25
 20
285.75
 10
365.0
 20
285.75
 10
364.75
 20
286.0
 10
364.5
 20
286.25
 10
364.25
 20
286.5
 10
364.0
 20
286.5
 10
363.75
 20
286.75
 10
363.5
 20
286.75
 10
363.25
 20
287.0
 10
363.0
 20
287.0
 10
362.75
 20
287.0
 10
362.5
 20
287.0
 10
362.25
 20
287.25
 10
362.0
 20
287.25
 10
361.5
 20
287.25
 10
172.25
 20
289.25
 10
172.0
 20
289.25
 10
171.75
 20
289.25
 10
171.5
 20
289.25
 10
171.25
 20
289.25
 10
171.0
 20
289.25
 10
170.75
 20
289.0
 10
170.5
 20
289.0
 10
170.25
 20
289.0
 10
170.0
 20
288.75
 10
169.75
 20
288.75
 10
169.5
 20
288.5
 10
169.25
 20
288.25
 10
169.0
 20
288.25
 10
168.75
 20
288.0
 10
168.75
 20
287.75
 10
168.5
 20
287.75
 10
168.25
 20
287.5
 10
168.0
 20
287.25
 10
168.0
 20
287.0
 10
167.75
 20
286.75
 10
167.75
 20
286.5
 10
167.5
 20
286.25
 10
167.5
 20
286.0
 10
167.5
 20
285.75
 10
167.25
 20
285.5
 10
167.25
 20
285.25
 10
167.25
 20
285.0
 10
167.25
 20
284.75
 10
167.25
 20
284.5
 10
167.25
 20
284.25
 10
167.25
 20
284.0
  0
LWPOLYLINE
  5
36
330
17
100
AcDbEntity
  8
PART_51-12330
100
AcDbPolyline
 90
415
 70
1
 10
822.25
 20
66.5
 10
809.5
 20
130.0
 10
809.5
 20
130.25
 10
809.5
 20
130.5
 10
809.5
 20
130.75
 10
809.25
 20
131.0
 10
809.25
 20
131.25
 10
809.5
 20
131.25
 10
809.5
 20
131.5
 10
809.5
 20
131.75
 10
809.5
 20
132.0
 10
809.5
 20
132.25
 10
809.5
 20
132.5
 10
809.75
 20
132.5
 10
809.75
 20
132.75
 10
809.75
 20
133.0
 10
849.0
 20
217.5
 10
849.0
 20
217.75
 10
849.0
 20
218.0
 10
849.25
 20
218.25
 10
849.5
 20
218.5
 10
849.75
 20
218.75
 10
849.75
 20
219.0
 10
850.0
 20
219.0
 10
850.0
 20
219.25
 10
850.25
 20
219.25
 10
850.25
 20
219.5
 10
850.5
 20
219.5
 10
850.75
 20
219.75
 10
851.0
 20
220.0
 10
851.25
 20
220.0
 10
851.5
 20
220.25
 10
851.75
 20
220.25
 10
852.0
 20
220.25
 10
852.25
 20
220.5
 10
852.5
 20
220.5
 10
929.5
 20
236.25
 10
930.25
 20
236.25
 10
930.75
 20
236.5
 10
931.25
 20
236.5
 10
932.0
 20
236.5
 10
932.5
 20
236.5
 10
933.0
 20
236.5
 10
933.75
 20
236.25
 10
934.25
 20
236.25
 10
934.75
 20
236.0
 10
935.5
 20
235.75
 10
936.0
 20
235.75
 10
936.5
 20
235.5
 10
937.0
 20
235.25
 10
937.5
 20
234.75
 10
938.0
 20
234.5
 10
938.5
 20
234.25
 10
939.0
 20
233.75
 10
939.25
 20
233.5
 10
939.75
 20
233.0
 10
940.25
 20
232.5
 10
940.5
 20
232.25
 10
941.0
 20
231.75
 10
941.25
 20
231.25
 10
941.5
 20
230.75
 10
941.75
 20
230.0
 10
942.0
 20
229.5
 10
942.25
 20
229.0
 10
942.5
 20
228.5
 10
942.5
 20
228.0
 10
942.75
 20
227.25
 10
949.25
 20
188.25
 10
949.5
 20
187.75
 10
949.5
 20
187.0
 10
949.75
 20
186.5
 10
950.0
 20
186.0
 10
950.0
 20
185.75
 10
950.25
 20
185.25
 10
950.5
 20
184.75
 10
951.0
 20
184.25
 10
951.25
 20
183.75
 10
951.5
 20
183.5
 10
951.75
 20
183.0
 10
952.25
 20
182.75
 10
952.75
 20
182.25
 10
953.0
 20
182.0
 10
953.5
 20
181.75
 10
954.0
 20
181.25
 10
954.25
 20
181.0
 10
954.75
 20
180.75
 10
955.25
 20
180.5
 10
955.75
 20
180.5
 10
956.25
 20
180.25
 10
956.75
 20
180.0
 10
957.25
 20
180.0
 10
957.75
 20
180.0
 10
958.5
 20
179.75
 10
959.0
 20
179.75
 10
959.5
 20
179.75
 10
960.0
 20
179.75
 10
960.5
 20
180.0
 10
961.0
 20
180.0
 10
961.5
 20
180.0
 10
999.25
 20
189.25
 10
999.5
 20
189.25
 10
999.75
 20
189.25
 10
1000.0
 20
189.25
 10
1000.25
 20
189.25
 10
1000.5
 20
189.25
 10
1000.75
 20
189.25
 10
1001.0
 20
189.25
 10
1001.25
 20
189.25
 10
1001.5
 20
189.25
 10
1001.75
 20
189.0
 10
1002.0
 20
189.0
 10
1002.25
 20
188.75
 10
1002.5
 20
188.75
 10
1002.75
 20
188.5
 10
1003.0
 20
188.25
 10
1003.25
 20
188.25
 10
1003.25
 20
188.0
 10
1003.5
 20
187.75
 10
1003.75
 20
187.5
 10
1003.75
 20
187.25
 10
1004.0
 20
187.0
 10
1004.0
 20
186.75
 10
1004.0
 20
186.5
 10
1004.25
 20
186.25
 10
1004.25
 20
186.0
 10
1004.25
 20
185.75
 10
1011.0
 20
138.0
 10
1011.0
 20
137.75
 10
1011.0
 20
137.5
 10
1011.0
 20
137.25
 10
1011.0
 20
137.0
 10
1011.0
 20
136.75
 10
1011.0
 20
136.5
 10
1011.0
 20
136.25
 10
1010.75
 20
136.0
 10
1010.75
 20
135.75
 10
1010.5
 20
135.5
 10
1010.5
 20
135.25
 10
1010.25
 20
135.0
 10
1010.0
 20
134.75
 10
1010.0
 20
134.5
 10
1009.75
 20
134.5
 10
1009.75
 20
134.25
 10
1009.5
 20
134.25
 10
1009.25
 20
134.0
 10
1009.0
 20
133.75
 10
1008.75
 20
133.75
 10
1008.5
 20
133.75
 10
1008.25
 20
133.5
 10
1007.25
 20
133.25
 10
1006.75
 20
133.0
 10
1006.5
 20
133.0
 10
1006.25
 20
132.75
 10
1006.0
 20
132.75
 10
1005.75
 20
132.5
 10
1005.5
 20
132.25
 10
1005.25
 20
132.0
 10
1005.0
 20
131.75
 10
1004.75
 20
131.75
 10
1004.5
 20
131.5
 10
1004.25
 20
131.25
 10
1004.25
 20
131.0
 10
1004.0
 20
130.75
 10
1003.75
 20
130.25
 10
1003.75
 20
130.0
 10
1003.5
 20
129.75
 10
1003.5
 20
129.5
 10
1003.25
 20
129.25
 10
1003.25
 20
129.0
 10
1003.25
 20
128.5
 10
1003.25
 20
128.25
 10
1003.0
 20
128.0
 10
1003.0
 20
127.5
 10
1003.0
 20
127.25
 10
1003.0
 20
127.0
 10
1003.25
 20
126.75
 10
1003.25
 20
126.25
 10
1007.5
 20
104.25
 10
1007.5
 20
104.0
 10
1007.5
 20
103.75
 10
1007.75
 20
103.5
 10
1007.75
 20
103.25
 10
1008.0
 20
103.0
 10
1008.0
 20
102.75
 10
1008.25
 20
102.75
 10
1008.25
 20
102.5
 10
1008.5
 20
102.25
 10
1008.75
 20
102.0
 10
1008.75
 20
101.75
 10
1009.0
 20
101.5
 10
1009.25
 20
101.5
 10
1009.5
 20
101.25
 10
1009.75
 20
101.0
 10
1010.0
 20
101.0
 10
1010.25
 20
100.75
 10
1010.5
 20
100.75
 10
1010.75
 20
100.75
 10
1011.0
 20
100.5
 10
1011.25
 20
100.5
 10
1011.5
 20
100.5
 10
1011.75
 20
100.5
 10
1012.0
 20
100.25
 10
1012.25
 20
100.25
 10
1012.5
 20
100.25
 10
1012.75
 20
100.25
 10
1013.0
 20
100.25
 10
1020.5
 20
101.25
 10
1020.75
 20
101.25
 10
1021.0
 20
101.25
 10
1021.25
 20
101.25
 10
1021.5
 20
101.25
 10
1021.75
 20
101.25
 10
1022.0
 20
101.25
 10
1022.25
 20
101.25
 10
1022.5
 20
101.25
 10
1022.75
 20
101.0
 10
1023.0
 20
101.0
 10
1023.25
 20
100.75
 10
1023.5
 20
100.75
 10
1023.75
 20
100.5
 10
1024.0
 20
100.5
 10
1024.25
 20
100.25
 10
1024.5
 20
100.25
 10
1024.5
 20
100.0
 10
1024.75
 20
99.75
 10
1025.0
 20
99.5
 10
1025.0
 20
99.25
 10
1025.25
 20
99.25
 10
1025.5
 20
99.0
 10
1025.5
 20
98.75
 10
1025.75
 20
98.5
 10
1025.75
 20
98.25
 10
1025.75
 20
98.0
 10
1026.0
 20
97.75
 10
1026.0
 20
97.5
 10
1026.0
 20
97.25
 10
1026.0
 20
97.0
 10
1030.0
 20
62.75
 10
1030.0
 20
62.5
 10
1030.0
 20
62.25
 10
1030.0
 20
62.0
 10
1030.0
 20
61.75
 10
1030.0
 20
61.5
 10
1029.75
 20
61.25
 10
1029.75
 20
61.0
 10
1029.75
 20
60.75
 10
1029.75
 20
60.5
 10
1029.5
 20
60.5
 10
1029.5
 20
60.25
 10
1029.25
 20
60.0
 10
1029.25
 20
59.75
 10
1029.0
 20
59.75
 10
1029.0
 20
59.5
 10
1028.75
 20
59.25
 10
1028.5
 20
59.0
 10
1028.25
 20
59.0
 10
1028.25
 20
58.75
 10
1028.0
 20
58.75
 10
1027.75
 20
58.75
 10
1027.5
 20
58.5
 10
1027.25
 20
58.5
 10
1027.0
 20
58.25
 10
1026.75
 20
58.25
 10
991.25
 20
50.75
 10
990.75
 20
50.5
 10
990.25
 20
50.5
 10
989.75
 20
50.25
 10
989.25
 20
50.0
 10
988.75
 20
49.75
 10
988.25
 20
49.5
 10
987.75
 20
49.25
 10
987.5
 20
49.0
 10
987.0
 20
48.75
 10
986.5
 20
48.25
 10
986.25
 20
48.0
 10
985.75
 20
47.5
 10
985.5
 20
47.25
 10
985.25
 20
46.75
 10
985.0
 20
46.25
 10
984.75
 20
45.75
 10
984.5
 20
45.25
 10
984.25
 20
44.75
 10
984.0
 20
44.25
 10
983.75
 20
43.75
 10
983.75
 20
43.25
 10
983.5
 20
42.75
 10
983.5
 20
42.25
 10
983.5
 20
41.75
 10
983.25
 20
41.25
 10
983.25
 20
40.75
 10
983.25
 20
40.25
 10
983.5
 20
39.75
 10
983.5
 20
39.25
 10
983.5
 20
38.75
 10
989.75
 20
12.25
 10
989.75
 20
11.75
 10
989.75
 20
11.25
 10
990.0
 20
10.75
 10
990.0
 20
10.0
 10
990.0
 20
9.5
 10
990.0
 20
9.0
 10
989.75
 20
8.5
 10
989.75
 20
8.0
 10
989.5
 20
7.5
 10
989.5
 20
7.0
 10
989.25
 20
6.5
 10
989.0
 20
6.0
 10
988.75
 20
5.5
 10
988.5
 20
5.0
 10
988.25
 20
4.5
 10
988.0
 20
4.0
 10
987.75
 20
3.75
 10
987.25
 20
3.25
 10
987.0
 20
3.0
 10
986.5
 20
2.5
 10
986.25
 20
2.25
 10
985.75
 20
1.75
 10
985.25
 20
1.5
 10
984.75
 20
1.25
 10
984.5
 20
1.0
 10
984.0
 20
0.75
 10
983.5
 20
0.5
 10
983.0
 20
0.5
 10
982.5
 20
0.25
 10
981.75
 20
0.25
 10
981.25
 20
0.0
 10
980.75
 20
0.0
 10
980.25
 20
0.0
 10
979.75
 20
0.0
 10
979.25
 20
0.0
 10
797.75
 20
13.25
 10
797.5
 20
13.25
 10
797.25
 20
13.25
 10
797.0
 20
13.5
 10
796.75
 20
13.5
 10
796.5
 20
13.5
 10
796.25
 20
13.75
 10
796.0
 20
13.75
 10
795.75
 20
14.0
 10
795.5
 20
14.0
 10
795.5
 20
14.25
 10
795.25
 20
14.25
 10
795.0
 20
14.5
 10
794.75
 20
14.75
 10
794.75
 20
15.0
 10
794.5
 20
15.0
 10
794.5
 20
15.25
 10
794.25
 20
15.5
 10
794.25
 20
15.75
 10
794.25
 20
16.0
 10
794.0
 20
16.0
 10
794.0
 20
16.25
 10
794.0
 20
16.5
 10
788.0
 20
47.75
 10
788.0
 20
48.0
 10
788.0
 20
48.25
 10
788.0
 20
48.5
 10
788.0
 20
49.0
 10
788.0
 20
49.25
 10
788.0
 20
49.5
 10
788.0
 20
49.75
 10
788.0
 20
50.25
 10
788.25
 20
50.5
 10
788.25
 20
50.75
 10
788.25
 20
51.0
 10
788.5
 20
51.25
 10
788.75
 20
51.75
 10
788.75
 20
52.0
 10
789.0
 20
52.25
 10
789.25
 20
52.5
 10
789.25
 20
52.75
 10
789.5
 20
53.0
 10
789.75
 20
53.25
 10
790.0
 20
53.25
 10
790.25
 20
53.5
 10
790.5
 20
53.75
 10
790.75
 20
54.0
 10
791.0
 20
54.0
 10
791.25
 20
54.25
 10
791.5
 20
54.25
 10
792.0
 20
54.5
 10
792.25
 20
54.5
 10
792.5
 20
54.5
 10
792.75
 20
54.75
 10
817.5
 20
59.5
 10
818.0
 20
59.5
 10
818.25
 20
59.5
 10
818.5
 20
59.75
 10
818.75
 20
59.75
 10
819.0
 20
60.0
 10
819.25
 20
60.0
 10
819.75
 20
60.25
 10
820.0
 20
60.25
 10
820.25
 20
60.5
 10
820.5
 20
60.75
 10
820.75
 20
61.0
 10
820.75
 20
61.25
 10
821.0
 20
61.5
 10
821.25
 20
61.75
 10
821.5
 20
62.0
 10
821.5
 20
62.25
 10
821.75
 20
62.5
 10
822.0
 20
62.75
 10
822.0
 20
63.0
 10
822.25
 20
63.25
 10
822.25
 20
63.75
 10
822.25
 20
64.0
 10
822.5
 20
64.25
 10
822.5
 20
64.5
 10
822.5
 20
65.0
 10
822.5
 20
65.25
 10
822.5
 20
65.5
 10
822.5
 20
65.75
 10
822.5
 20
66.25
 10
822.25
 20
66.5
  0
LWPOLYLINE
  5
38
330
17
100
AcDbEntity
  8
PART_51-12719
100
AcDbPolyline
 90
134
 70
1
 10
1182.25
 20
247.25
 10
1182.25
 20
0.0
 10
1069.0
 20
17.25
 10
1070.25
 20
60.75
 10
1070.25
 20
61.75
 10
1070.5
 20
62.5
 10
1070.5
 20
63.5
 10
1070.75
 20
64.5
 10
1071.0
 20
65.25
 10
1071.25
 20
66.25
 10
1071.5
 20
67.0
 10
1072.0
 20
68.0
 10
1072.25
 20
68.75
 10
1072.75
 20
69.5
 10
1073.25
 20
70.25
 10
1073.75
 20
71.0
 10
1074.5
 20
71.75
 10
1075.0
 20
72.5
 10
1075.75
 20
73.25
 10
1076.25
 20
73.75
 10
1077.0
 20
74.25
 10
1077.75
 20
75.0
 10
1078.5
 20
75.5
 10
1079.25
 20
76.0
 10
1080.25
 20
76.25
 10
1081.0
 20
76.75
 10
1081.75
 20
77.0
 10
1082.75
 20
77.5
 10
1084.25
 20
78.0
 10
1086.0
 20
78.75
 10
1087.5
 20
79.25
 10
1089.0
 20
80.25
 10
1090.5
 20
81.0
 10
1092.0
 20
82.0
 10
1093.25
 20
83.0
 10
1094.5
 20
84.25
 10
1095.75
 20
85.5
 10
1097.0
 20
86.75
 10
1098.25
 20
88.0
 10
1099.25
 20
89.25
 10
1100.25
 20
90.75
 10
1101.0
 20
92.25
 10
1102.0
 20
93.75
 10
1102.75
 20
95.25
 10
1103.25
 20
96.75
 10
1104.0
 20
98.5
 10
1104.5
 20
100.25
 10
1104.75
 20
101.75
 10
1105.0
 20
103.5
 10
1105.25
 20
105.25
 10
1105.5
 20
107.0
 10
1105.5
 20
108.75
 10
1105.5
 20
110.5
 10
1105.25
 20
112.0
 10
1105.0
 20
113.75
 10
1104.75
 20
115.5
 10
1104.5
 20
117.25
 10
1104.0
 20
118.75
 10
1103.25
 20
120.5
 10
1102.75
 20
122.0
 10
1102.0
 20
123.5
 10
1101.0
 20
125.0
 10
1100.25
 20
126.5
 10
1099.25
 20
128.0
 10
1098.25
 20
129.25
 10
1097.0
 20
130.75
 10
1095.75
 20
132.0
 10
1094.5
 20
133.0
 10
1093.25
 20
134.25
 10
1092.0
 20
135.25
 10
1090.5
 20
136.25
 10
1089.0
 20
137.25
 10
1087.5
 20
138.0
 10
1086.0
 20
138.75
 10
1084.5
 20
139.25
 10
1082.75
 20
140.0
 10
1082.0
 20
140.25
 10
1081.0
 20
140.5
 10
1080.25
 20
141.0
 10
1079.25
 20
141.5
 10
1078.5
 20
142.0
 10
1077.75
 20
142.5
 10
1077.0
 20
143.0
 10
1076.25
 20
143.5
 10
1075.75
 20
144.25
 10
1075.0
 20
145.0
 10
1074.5
 20
145.5
 10
1073.75
 20
146.25
 10
1073.25
 20
147.0
 10
1072.75
 20
148.0
 10
1072.25
 20
148.75
 10
1072.0
 20
149.5
 10
1071.5
 20
150.5
 10
1071.25
 20
151.25
 10
1071.0
 20
152.25
 10
1070.75
 20
153.0
 10
1070.5
 20
154.0
 10
1070.5
 20
155.0
 10
1070.25
 20
155.75
 10
1070.25
 20
156.75
 10
1069.25
 20
232.0
 10
1069.25
 20
233.25
 10
1069.25
 20
234.75
 10
1069.5
 20
236.0
 10
1069.75
 20
237.25
 10
1070.0
 20
238.5
 10
1070.5
 20
239.75
 10
1070.75
 20
241.0
 10
1071.25
 20
242.25
 10
1071.75
 20
243.5
 10
1072.5
 20
244.75
 10
1073.25
 20
245.75
 10
1074.0
 20
247.0
 10
1074.75
 20
248.0
 10
1075.5
 20
249.0
 10
1076.5
 20
250.0
 10
1077.5
 20
251.0
 10
1078.5
 20
251.75
 10
1079.5
 20
252.5
 10
1080.75
 20
253.25
 10
1081.75
 20
254.0
 10
1083.0
 20
254.75
 10
1084.25
 20
255.25
 10
1085.25
 20
255.75
 10
1086.5
 20
256.25
 10
1088.0
 20
256.5
 10
1089.25
 20
256.75
 10
1090.5
 20
257.0
 10
1091.75
 20
257.25
 10
1093.25
 20
257.25
 10
1094.5
 20
257.25
 10
1095.75
 20
257.25
 10
1097.25
 20
257.25
 10
1182.25
 20
247.25
  0
LWPOLYLINE
  5
3A
330
17
100
AcDbEntity
  8
PART_51-12724
100
AcDbPolyline
 90
5
 70
1
 10
495.0
 20
264.75
 10
732.0
 20
264.75
 10
732.0
 20
178.75
 10
495.0
 20
178.75
 10
495.0
 20
264.75
  0
LWPOLYLINE
  5
3C
330
17
100
AcDbEntity
  8
PART_51-13896
100
AcDbPolyline
 90
1052
 70
1
 10
795.5
 20
401.0
 10
1019.75
 20
379.25
 10
1108.5
 20
373.25
 10
1108.75
 20
373.25
 10
1109.0
 20
373.25
 10
1109.25
 20
373.25
 10
1109.5
 20
373.25
 10
1109.75
 20
373.25
 10
1110.0
 20
373.25
 10
1110.25
 20
373.5
 10
1110.5
 20
373.5
 10
1110.75
 20
373.5
 10
1111.0
 20
373.75
 10
1111.25
 20
373.75
 10
1111.5
 20
374.0
 10
1111.75
 20
374.0
 10
1112.0
 20
374.25
 10
1112.0
 20
374.5
 10
1112.25
 20
374.75
 10
1112.5
 20
374.75
 10
1112.75
 20
375.0
 10
1112.75
 20
375.25
 10
1113.0
 20
375.5
 10
1113.0
 20
375.75
 10
1113.25
 20
376.0
 10
1113.25
 20
376.25
 10
1113.5
 20
376.5
 10
1113.5
 20
376.75
 10
1113.5
 20
377.0
 10
1113.75
 20
377.25
 10
1113.75
 20
377.5
 10
1113.75
 20
377.75
 10
1113.75
 20
378.0
 10
1113.75
 20
378.25
 10
1113.75
 20
378.5
 10
1113.75
 20
378.75
 10
1107.25
 20
428.75
 10
1107.25
 20
429.0
 10
1107.25
 20
429.25
 10
1107.0
 20
429.5
 10
1107.0
 20
429.75
 10
1107.0
 20
430.0
 10
1106.75
 20
430.25
 10
1106.75
 20
430.5
 10
1106.5
 20
430.75
 10
1106.5
 20
431.0
 10
1106.25
 20
431.25
 10
1106.0
 20
431.25
 10
1106.0
 20
431.5
 10
1105.75
 20
431.75
 10
1105.5
 20
432.0
 10
1105.25
 20
432.0
 10
1105.0
 20
432.25
 10
1104.75
 20
432.25
 10
1104.75
 20
432.5
 10
1104.5
 20
432.5
 10
1104.25
 20
432.75
 10
1104.0
 20
432.75
 10
1103.75
 20
433.0
 10
1103.5
 20
433.0
 10
1103.0
 20
433.0
 10
1102.75
 20
433.0
 10
1102.5
 20
433.0
 10
1102.25
 20
433.0
 10
1102.0
 20
433.0
 10
986.75
 20
426.75
 10
986.25
 20
426.75
 10
985.75
 20
426.75
 10
985.25
 20
426.75
 10
984.75
 20
427.0
 10
984.5
 20
427.0
 10
984.0
 20
427.0
 10
983.5
 20
427.25
 10
983.0
 20
427.5
 10
982.5
 20
427.5
 10
982.25
 20
427.75
 10
981.75
 20
428.0
 10
981.25
 20
428.25
 10
981.0
 20
428.5
 10
980.5
 20
428.75
 10
980.25
 20
429.25
 10
980.0
 20
429.5
 10
979.5
 20
429.75
 10
979.25
 20
430.25
 10
979.0
 20
430.5
 10
978.75
 20
431.0
 10
978.5
 20
431.25
 10
978.25
 20
431.75
 10
978.0
 20
432.25
 10
977.75
 20
432.75
 10
977.75
 20
433.0
 10
977.5
 20
433.5
 10
977.5
 20
434.0
 10
977.25
 20
434.5
 10
977.25
 20
435.0
 10
977.25
 20
435.5
 10
977.0
 20
441.25
 10
977.0
 20
441.75
 10
977.0
 20
442.25
 10
976.75
 20
442.75
 10
976.75
 20
443.25
 10
976.75
 20
443.75
 10
976.5
 20
444.0
 10
976.25
 20
444.5
 10
976.0
 20
445.0
 10
976.0
 20
445.5
 10
975.75
 20
445.75
 10
975.5
 20
446.25
 10
975.0
 20
446.5
 10
974.75
 20
447.0
 10
974.5
 20
447.25
 10
974.25
 20
447.5
 10
973.75
 20
448.0
 10
973.5
 20
448.25
 10
973.0
 20
448.5
 10
972.5
 20
448.75
 10
972.25
 20
449.0
 10
971.75
 20
449.25
 10
971.25
 20
449.25
 10
971.0
 20
449.5
 10
970.5
 20
449.75
 10
970.0
 20
449.75
 10
969.5
 20
449.75
 10
969.0
 20
450.0
 10
968.5
 20
450.0
 10
968.25
 20
450.0
 10
967.75
 20
450.0
 10
967.25
 20
450.0
 10
901.25
 20
443.75
 10
900.75
 20
443.5
 10
900.25
 20
443.5
 10
899.75
 20
443.5
 10
899.25
 20
443.75
 10
898.75
 20
443.75
 10
898.25
 20
443.75
 10
897.75
 20
444.0
 10
897.25
 20
444.0
 10
896.75
 20
444.25
 10
896.5
 20
444.5
 10
896.0
 20
444.75
 10
895.5
 20
445.0
 10
895.25
 20
445.25
 10
894.75
 20
445.5
 10
894.5
 20
445.75
 10
894.0
 20
446.25
 10
893.75
 20
446.5
 10
893.25
 20
446.75
 10
893.0
 20
447.25
 10
892.75
 20
447.75
 10
892.5
 20
448.0
 10
892.25
 20
448.5
 10
892.0
 20
449.0
 10
892.0
 20
449.25
 10
891.75
 20
449.75
 10
891.5
 20
450.25
 10
891.5
 20
450.75
 10
891.5
 20
451.25
 10
891.25
 20
451.75
 10
889.5
 20
471.0
 10
889.5
 20
471.5
 10
889.5
 20
472.0
 10
889.5
 20
472.5
 10
889.5
 20
473.0
 10
889.5
 20
473.5
 10
889.75
 20
473.75
 10
889.75
 20
474.25
 10
890.0
 20
474.75
 10
890.0
 20
475.25
 10
890.25
 20
475.75
 10
890.5
 20
476.0
 10
890.75
 20
476.5
 10
891.0
 20
477.0
 10
891.25
 20
477.25
 10
891.5
 20
477.75
 10
891.75
 20
478.0
 10
892.25
 20
478.25
 10
892.5
 20
478.75
 10
892.75
 20
479.0
 10
893.25
 20
479.25
 10
893.75
 20
479.5
 10
894.0
 20
479.75
 10
894.5
 20
480.0
 10
895.0
 20
480.25
 10
895.25
 20
480.25
 10
895.75
 20
480.5
 10
896.25
 20
480.75
 10
896.75
 20
480.75
 10
897.25
 20
480.75
 10
897.75
 20
481.0
 10
969.25
 20
487.0
 10
970.0
 20
487.0
 10
970.5
 20
487.25
 10
971.0
 20
487.25
 10
971.75
 20
487.5
 10
972.25
 20
487.75
 10
972.75
 20
488.0
 10
973.5
 20
488.25
 10
974.0
 20
488.5
 10
974.5
 20
488.75
 10
975.0
 20
489.25
 10
975.5
 20
489.5
 10
976.0
 20
490.0
 10
976.5
 20
490.25
 10
976.75
 20
490.75
 10
977.25
 20
491.25
 10
977.5
 20
491.75
 10
978.0
 20
492.25
 10
978.25
 20
492.75
 10
978.5
 20
493.25
 10
978.75
 20
493.75
 10
979.0
 20
494.5
 10
979.25
 20
495.0
 10
979.5
 20
495.5
 10
979.5
 20
496.25
 10
979.75
 20
496.75
 10
979.75
 20
497.5
 10
979.75
 20
498.0
 10
979.75
 20
498.5
 10
979.75
 20
499.25
 10
974.0
 20
589.0
 10
974.0
 20
589.5
 10
974.0
 20
590.25
 10
973.75
 20
590.75
 10
973.75
 20
591.25
 10
973.5
 20
592.0
 10
973.25
 20
592.5
 10
973.0
 20
593.0
 10
972.75
 20
593.5
 10
972.5
 20
594.0
 10
972.0
 20
594.5
 10
971.75
 20
595.0
 10
971.5
 20
595.5
 10
971.0
 20
596.0
 10
970.5
 20
596.5
 10
970.0
 20
597.0
 10
969.75
 20
597.25
 10
969.25
 20
597.75
 10
968.5
 20
598.0
 10
968.0
 20
598.25
 10
967.5
 20
598.5
 10
967.0
 20
598.75
 10
966.5
 20
599.0
 10
965.75
 20
599.25
 10
965.25
 20
599.25
 10
964.75
 20
599.5
 10
964.0
 20
599.5
 10
963.5
 20
599.75
 10
962.75
 20
599.75
 10
962.25
 20
599.75
 10
954.0
 20
599.5
 10
946.0
 20
599.25
 10
938.0
 20
599.0
 10
929.75
 20
598.75
 10
921.75
 20
598.5
 10
913.5
 20
598.25
 10
905.5
 20
598.25
 10
897.25
 20
598.0
 10
889.25
 20
597.75
 10
881.0
 20
597.75
 10
873.0
 20
597.5
 10
864.75
 20
597.5
 10
856.75
 20
597.25
 10
848.5
 20
597.25
 10
840.5
 20
597.0
 10
832.25
 20
597.0
 10
824.25
 20
597.0
 10
816.25
 20
597.0
 10
808.0
 20
596.75
 10
800.0
 20
596.75
 10
791.75
 20
596.75
 10
783.75
 20
596.75
 10
775.5
 20
596.75
 10
767.5
 20
596.75
 10
767.0
 20
596.75
 10
766.25
 20
596.75
 10
765.75
 20
596.5
 10
765.25
 20
596.5
 10
764.75
 20
596.5
 10
764.25
 20
596.25
 10
763.75
 20
596.0
 10
763.25
 20
595.75
 10
762.75
 20
595.5
 10
762.25
 20
595.25
 10
762.0
 20
595.0
 10
761.5
 20
594.75
 10
761.0
 20
594.5
 10
760.75
 20
594.0
 10
760.25
 20
593.75
 10
760.0
 20
593.25
 10
759.5
 20
593.0
 10
759.25
 20
592.5
 10
759.0
 20
592.0
 10
758.75
 20
591.5
 10
758.5
 20
591.25
 10
758.25
 20
590.75
 10
758.0
 20
590.25
 10
757.75
 20
589.75
 10
757.75
 20
589.25
 10
757.5
 20
588.5
 10
757.5
 20
588.0
 10
757.5
 20
587.5
 10
757.5
 20
587.0
 10
757.5
 20
586.5
 10
759.5
 20
495.25
 10
759.5
 20
494.75
 10
759.5
 20
494.25
 10
759.75
 20
494.0
 10
759.75
 20
493.5
 10
759.75
 20
493.0
 10
760.0
 20
492.75
 10
760.0
 20
492.25
 10
760.25
 20
492.0
 10
760.5
 20
491.5
 10
760.75
 20
491.25
 10
761.0
 20
490.75
 10
761.25
 20
490.5
 10
761.5
 20
490.25
 10
761.75
 20
489.75
 10
762.0
 20
489.5
 10
762.5
 20
489.25
 10
762.75
 20
489.0
 10
763.0
 20
488.75
 10
763.5
 20
488.5
 10
763.75
 20
488.25
 10
764.25
 20
488.0
 10
764.5
 20
488.0
 10
765.0
 20
487.75
 10
765.5
 20
487.75
 10
765.75
 20
487.5
 10
766.25
 20
487.5
 10
766.75
 20
487.5
 10
767.0
 20
487.5
 10
767.5
 20
487.5
 10
768.0
 20
487.5
 10
768.25
 20
487.5
 10
768.75
 20
487.5
 10
818.25
 20
495.5
 10
818.75
 20
495.5
 10
819.25
 20
495.75
 10
819.75
 20
495.75
 10
820.25
 20
495.75
 10
820.75
 20
495.5
 10
821.25
 20
495.5
 10
822.0
 20
495.5
 10
822.5
 20
495.25
 10
823.0
 20
495.25
 10
823.5
 20
495.0
 10
824.0
 20
494.75
 10
824.5
 20
494.5
 10
824.75
 20
494.25
 10
825.25
 20
494.0
 10
825.75
 20
493.75
 10
826.25
 20
493.25
 10
826.5
 20
493.0
 10
827.0
 20
492.5
 10
827.25
 20
492.25
 10
827.75
 20
491.75
 10
828.0
 20
491.5
 10
828.25
 20
491.0
 10
828.5
 20
490.5
 10
828.75
 20
490.0
 10
829.0
 20
489.5
 10
829.25
 20
489.0
 10
829.25
 20
488.5
 10
829.5
 20
488.0
 10
829.5
 20
487.5
 10
829.75
 20
487.0
 10
832.0
 20
468.0
 10
832.25
 20
467.5
 10
832.25
 20
467.0
 10
832.25
 20
466.5
 10
832.25
 20
465.75
 10
832.0
 20
465.25
 10
832.0
 20
464.75
 10
832.0
 20
464.25
 10
831.75
 20
463.75
 10
831.5
 20
463.25
 10
831.25
 20
462.75
 10
831.25
 20
462.25
 10
831.0
 20
461.75
 10
830.5
 20
461.25
 10
830.25
 20
461.0
 10
830.0
 20
460.5
 10
829.75
 20
460.0
 10
829.25
 20
459.75
 10
829.0
 20
459.25
 10
828.5
 20
459.0
 10
828.0
 20
458.75
 10
827.75
 20
458.25
 10
827.25
 20
458.0
 10
826.75
 20
457.75
 10
826.25
 20
457.5
 10
825.75
 20
457.25
 10
825.25
 20
457.25
 10
824.75
 20
457.0
 10
824.25
 20
457.0
 10
823.75
 20
456.75
 10
823.25
 20
456.75
 10
750.75
 20
449.5
 10
750.5
 20
449.5
 10
750.25
 20
449.5
 10
750.0
 20
449.5
 10
749.5
 20
449.5
 10
749.25
 20
449.5
 10
749.0
 20
449.5
 10
748.75
 20
449.5
 10
748.5
 20
449.5
 10
748.25
 20
449.75
 10
748.0
 20
449.75
 10
747.5
 20
449.75
 10
747.25
 20
449.75
 10
747.0
 20
450.0
 10
746.75
 20
450.0
 10
746.5
 20
450.0
 10
746.25
 20
450.25
 10
746.0
 20
450.25
 10
745.75
 20
450.5
 10
745.5
 20
450.5
 10
745.25
 20
450.75
 10
745.0
 20
450.75
 10
744.75
 20
451.0
 10
744.5
 20
451.0
 10
744.25
 20
451.25
 10
659.75
 20
508.75
 10
659.5
 20
509.0
 10
659.0
 20
509.25
 10
658.5
 20
509.5
 10
658.0
 20
509.75
 10
657.5
 20
510.0
 10
657.0
 20
510.25
 10
656.5
 20
510.5
 10
656.0
 20
510.75
 10
655.5
 20
511.0
 10
655.0
 20
511.0
 10
654.5
 20
511.25
 10
654.0
 20
511.5
 10
653.5
 20
511.5
 10
653.0
 20
511.75
 10
652.5
 20
511.75
 10
652.0
 20
511.75
 10
651.5
 20
512.0
 10
650.75
 20
512.0
 10
650.25
 20
512.0
 10
649.75
 20
512.0
 10
649.25
 20
512.25
 10
648.75
 20
512.25
 10
648.25
 20
512.25
 10
647.75
 20
512.0
 10
578.75
 20
508.75
 10
578.0
 20
508.75
 10
577.0
 20
508.75
 10
576.25
 20
509.0
 10
575.25
 20
509.0
 10
574.5
 20
509.25
 10
573.5
 20
509.25
 10
572.75
 20
509.5
 10
572.0
 20
509.75
 10
571.0
 20
510.0
 10
570.25
 20
510.25
 10
569.5
 20
510.75
 10
568.75
 20
511.0
 10
568.0
 20
511.5
 10
567.25
 20
512.0
 10
566.5
 20
512.5
 10
565.75
 20
513.0
 10
565.0
 20
513.5
 10
564.25
 20
514.0
 10
563.75
 20
514.75
 10
563.0
 20
515.25
 10
562.5
 20
516.0
 10
562.0
 20
516.5
 10
561.5
 20
517.25
 10
561.0
 20
518.0
 10
492.0
 20
625.75
 10
491.75
 20
626.25
 10
491.25
 20
626.75
 10
491.0
 20
627.25
 10
490.75
 20
627.75
 10
490.5
 20
628.25
 10
490.25
 20
628.75
 10
490.0
 20
629.5
 10
490.0
 20
630.0
 10
489.75
 20
630.5
 10
489.5
 20
631.0
 10
489.5
 20
631.75
 10
489.25
 20
632.25
 10
489.25
 20
632.75
 10
489.0
 20
633.5
 10
489.0
 20
634.0
 10
489.0
 20
634.5
 10
488.75
 20
635.25
 10
488.75
 20
635.75
 10
488.75
 20
636.25
 10
488.75
 20
637.0
 10
488.75
 20
637.5
 10
488.75
 20
638.0
 10
489.0
 20
638.75
 10
489.0
 20
639.25
 10
489.5
 20
642.75
 10
489.75
 20
646.25
 10
490.0
 20
649.75
 10
490.0
 20
653.25
 10
490.0
 20
656.75
 10
490.0
 20
660.25
 10
489.75
 20
663.75
 10
489.5
 20
667.0
 10
489.25
 20
670.5
 10
488.75
 20
674.0
 10
488.0
 20
677.5
 10
487.5
 20
681.0
 10
486.5
 20
684.25
 10
485.75
 20
687.75
 10
484.75
 20
691.0
 10
483.75
 20
694.5
 10
482.5
 20
697.75
 10
481.25
 20
701.0
 10
479.75
 20
704.25
 10
478.5
 20
707.25
 10
476.75
 20
710.5
 10
475.25
 20
713.5
 10
473.5
 20
716.5
 10
471.75
 20
719.5
 10
471.5
 20
719.75
 10
471.5
 20
720.0
 10
471.25
 20
720.25
 10
471.25
 20
720.5
 10
471.25
 20
720.75
 10
471.25
 20
721.0
 10
471.0
 20
721.0
 10
471.0
 20
721.25
 10
471.0
 20
721.5
 10
471.0
 20
721.75
 10
471.0
 20
722.0
 10
471.0
 20
722.25
 10
471.25
 20
722.5
 10
471.25
 20
722.75
 10
471.25
 20
723.0
 10
471.25
 20
723.25
 10
471.5
 20
723.25
 10
471.5
 20
723.5
 10
471.75
 20
723.75
 10
471.75
 20
724.0
 10
472.0
 20
724.25
 10
472.25
 20
724.5
 10
472.5
 20
724.75
 10
472.75
 20
725.0
 10
473.0
 20
725.0
 10
473.25
 20
725.25
 10
473.5
 20
725.25
 10
473.75
 20
725.5
 10
474.0
 20
725.5
 10
474.25
 20
725.5
 10
474.5
 20
725.75
 10
474.75
 20
725.75
 10
475.0
 20
725.75
 10
495.75
 20
726.5
 10
496.25
 20
726.5
 10
496.75
 20
726.5
 10
497.25
 20
726.5
 10
497.75
 20
726.5
 10
498.0
 20
726.75
 10
498.5
 20
726.75
 10
499.0
 20
727.0
 10
499.5
 20
727.0
 10
500.0
 20
727.25
 10
500.25
 20
727.5
 10
500.75
 20
727.5
 10
501.25
 20
727.75
 10
501.5
 20
728.0
 10
502.0
 20
728.25
 10
502.5
 20
728.5
 10
502.75
 20
728.75
 10
503.25
 20
729.0
 10
503.5
 20
729.25
 10
504.0
 20
729.5
 10
504.25
 20
730.0
 10
504.5
 20
730.25
 10
505.0
 20
730.5
 10
505.25
 20
731.0
 10
505.5
 20
731.25
 10
506.0
 20
731.75
 10
506.25
 20
732.25
 10
506.75
 20
732.75
 10
507.25
 20
733.0
 10
507.5
 20
733.5
 10
508.0
 20
733.75
 10
508.5
 20
734.25
 10
509.0
 20
734.5
 10
509.5
 20
735.0
 10
510.0
 20
735.25
 10
510.5
 20
735.5
 10
511.0
 20
735.75
 10
511.5
 20
736.0
 10
512.0
 20
736.25
 10
512.5
 20
736.5
 10
513.25
 20
736.75
 10
513.75
 20
736.75
 10
514.25
 20
737.0
 10
514.75
 20
737.0
 10
515.5
 20
737.25
 10
516.0
 20
737.25
 10
516.5
 20
737.25
 10
517.25
 20
737.5
 10
517.75
 20
737.5
 10
759.0
 20
743.0
 10
759.5
 20
743.0
 10
760.25
 20
743.0
 10
760.75
 20
743.0
 10
761.25
 20
742.75
 10
761.75
 20
742.75
 10
762.5
 20
742.75
 10
763.0
 20
742.5
 10
763.5
 20
742.25
 10
764.0
 20
742.25
 10
764.5
 20
742.0
 10
765.0
 20
741.75
 10
765.5
 20
741.5
 10
766.0
 20
741.25
 10
766.5
 20
741.0
 10
767.0
 20
740.75
 10
767.5
 20
740.25
 10
768.0
 20
740.0
 10
768.5
 20
739.5
 10
768.75
 20
739.25
 10
769.25
 20
738.75
 10
769.75
 20
738.5
 10
770.0
 20
738.0
 10
770.25
 20
737.5
 10
770.75
 20
737.0
 10
771.0
 20
736.75
 10
771.25
 20
736.5
 10
771.5
 20
736.0
 10
771.75
 20
735.75
 10
772.25
 20
735.5
 10
772.5
 20
735.25
 10
772.75
 20
734.75
 10
773.25
 20
734.5
 10
773.5
 20
734.25
 10
774.0
 20
734.0
 10
774.25
 20
733.75
 10
774.75
 20
733.75
 10
775.25
 20
733.5
 10
775.5
 20
733.25
 10
776.0
 20
733.25
 10
776.5
 20
733.0
 10
776.75
 20
732.75
 10
777.25
 20
732.75
 10
777.75
 20
732.75
 10
778.25
 20
732.5
 10
778.75
 20
732.5
 10
779.0
 20
732.5
 10
779.5
 20
732.5
 10
780.0
 20
732.5
 10
1084.5
 20
741.25
 10
1085.25
 20
741.25
 10
1085.75
 20
741.25
 10
1086.25
 20
741.25
 10
1086.75
 20
741.0
 10
1087.25
 20
741.0
 10
1087.75
 20
740.75
 10
1088.25
 20
740.75
 10
1088.75
 20
740.5
 10
1089.25
 20
740.25
 10
1089.75
 20
740.0
 10
1090.25
 20
739.75
 10
1090.75
 20
739.5
 10
1091.0
 20
739.0
 10
1091.5
 20
738.75
 10
1092.0
 20
738.5
 10
1092.25
 20
738.0
 10
1092.5
 20
737.5
 10
1093.0
 20
737.25
 10
1093.25
 20
736.75
 10
1093.5
 20
736.25
 10
1093.75
 20
735.75
 10
1094.0
 20
735.25
 10
1094.25
 20
734.75
 10
1094.5
 20
734.25
 10
1094.5
 20
733.75
 10
1094.75
 20
733.25
 10
1094.75
 20
732.75
 10
1094.75
 20
732.25
 10
1108.75
 20
588.75
 10
1108.75
 20
588.25
 10
1108.75
 20
587.75
 10
1108.75
 20
587.0
 10
1108.75
 20
586.5
 10
1108.75
 20
586.0
 10
1108.5
 20
585.5
 10
1108.5
 20
585.0
 10
1108.25
 20
584.5
 10
1108.0
 20
584.0
 10
1108.0
 20
583.5
 10
1107.75
 20
583.0
 10
1107.5
 20
582.5
 10
1107.0
 20
582.0
 10
1106.75
 20
581.75
 10
1106.5
 20
581.25
 10
1106.0
 20
580.75
 10
1105.75
 20
580.5
 10
1105.25
 20
580.0
 10
1104.75
 20
579.75
 10
1104.5
 20
579.5
 10
1104.0
 20
579.25
 10
1103.5
 20
579.0
 10
1103.0
 20
578.75
 10
1102.5
 20
578.5
 10
1102.0
 20
578.25
 10
1101.5
 20
578.0
 10
1101.0
 20
578.0
 10
1100.5
 20
578.0
 10
1100.0
 20
577.75
 10
1099.5
 20
577.75
 10
1098.75
 20
577.75
 10
1057.25
 20
577.75
 10
1057.0
 20
577.75
 10
1056.5
 20
577.75
 10
1056.25
 20
577.75
 10
1055.75
 20
577.75
 10
1055.5
 20
577.5
 10
1055.0
 20
577.5
 10
1054.5
 20
577.5
 10
1054.25
 20
577.25
 10
1053.75
 20
577.25
 10
1053.5
 20
577.0
 10
1053.0
 20
576.75
 10
1052.75
 20
576.75
 10
1052.5
 20
576.5
 10
1052.0
 20
576.25
 10
1051.75
 20
576.0
 10
1051.5
 20
575.75
 10
1051.0
 20
575.5
 10
1050.75
 20
575.25
 10
1050.5
 20
575.0
 10
1050.25
 20
574.75
 10
1050.0
 20
574.5
 10
1049.75
 20
574.25
 10
1049.5
 20
573.75
 10
1049.25
 20
573.5
 10
1047.75
 20
571.5
 10
1046.75
 20
569.5
 10
1045.5
 20
567.5
 10
1044.5
 20
565.25
 10
1043.75
 20
563.25
 10
1043.0
 20
561.0
 10
1042.25
 20
558.75
 10
1041.75
 20
556.25
 10
1041.5
 20
554.0
 10
1041.25
 20
551.75
 10
1041.0
 20
549.25
 10
1041.0
 20
547.0
 10
1041.25
 20
544.5
 10
1041.25
 20
542.25
 10
1041.75
 20
540.0
 10
1042.25
 20
537.75
 10
1042.75
 20
535.25
 10
1043.5
 20
533.0
 10
1044.25
 20
531.0
 10
1045.25
 20
528.75
 10
1046.25
 20
526.75
 10
1047.5
 20
524.5
 10
1048.75
 20
522.5
 10
1050.0
 20
520.75
 10
1051.5
 20
518.75
 10
1053.25
 20
517.0
 10
1053.5
 20
516.75
 10
1053.75
 20
516.5
 10
1054.0
 20
516.25
 10
1054.25
 20
516.0
 10
1054.5
 20
516.0
 10
1054.75
 20
515.75
 10
1055.25
 20
515.5
 10
1055.5
 20
515.25
 10
1055.75
 20
515.0
 10
1056.0
 20
515.0
 10
1056.5
 20
514.75
 10
1056.75
 20
514.75
 10
1057.0
 20
514.5
 10
1057.5
 20
514.5
 10
1057.75
 20
514.25
 10
1058.25
 20
514.25
 10
1058.5
 20
514.25
 10
1059.0
 20
514.0
 10
1059.25
 20
514.0
 10
1059.5
 20
514.0
 10
1060.0
 20
514.0
 10
1060.25
 20
514.0
 10
1060.75
 20
514.0
 10
1061.0
 20
514.0
 10
1113.25
 20
517.25
 10
1113.75
 20
517.25
 10
1114.25
 20
517.25
 10
1114.75
 20
517.5
 10
1115.25
 20
517.5
 10
1115.75
 20
517.75
 10
1116.25
 20
518.0
 10
1116.75
 20
518.0
 10
1117.25
 20
518.25
 10
1117.75
 20
518.5
 10
1118.25
 20
519.0
 10
1118.5
 20
519.25
 10
1119.0
 20
519.5
 10
1119.25
 20
519.75
 10
1119.75
 20
520.25
 10
1120.0
 20
520.5
 10
1120.5
 20
521.0
 10
1120.75
 20
521.5
 10
1121.0
 20
521.75
 10
1121.25
 20
522.25
 10
1121.5
 20
522.75
 10
1121.75
 20
523.25
 10
1122.0
 20
523.75
 10
1122.25
 20
524.25
 10
1122.25
 20
524.75
 10
1122.5
 20
525.25
 10
1122.5
 20
525.75
 10
1122.5
 20
526.25
 10
1122.5
 20
526.75
 10
1122.5
 20
527.25
 10
1122.5
 20
527.75
 10
1122.5
 20
528.5
 10
1122.5
 20
529.0
 10
1121.25
 20
535.25
 10
1121.25
 20
535.75
 10
1121.25
 20
536.5
 10
1121.25
 20
537.0
 10
1121.25
 20
537.5
 10
1121.25
 20
538.0
 10
1121.25
 20
538.5
 10
1121.5
 20
539.0
 10
1121.5
 20
539.5
 10
1121.75
 20
540.0
 10
1121.75
 20
540.5
 10
1122.0
 20
541.0
 10
1122.25
 20
541.5
 10
1122.5
 20
542.0
 10
1122.75
 20
542.5
 10
1123.0
 20
543.0
 10
1123.5
 20
543.25
 10
1123.75
 20
543.75
 10
1124.25
 20
544.25
 10
1124.5
 20
544.5
 10
1125.0
 20
544.75
 10
1125.25
 20
545.25
 10
1125.75
 20
545.5
 10
1126.25
 20
545.75
 10
1126.75
 20
546.0
 10
1127.25
 20
546.25
 10
1127.75
 20
546.5
 10
1128.25
 20
546.5
 10
1128.75
 20
546.75
 10
1129.25
 20
546.75
 10
1129.75
 20
547.0
 10
1130.25
 20
547.0
 10
1178.75
 20
551.25
 10
1179.25
 20
551.25
 10
1180.0
 20
551.25
 10
1180.5
 20
551.25
 10
1181.0
 20
551.25
 10
1181.5
 20
551.0
 10
1182.0
 20
551.0
 10
1182.5
 20
550.75
 10
1183.0
 20
550.75
 10
1183.5
 20
550.5
 10
1184.0
 20
550.25
 10
1184.5
 20
550.0
 10
1185.0
 20
549.75
 10
1185.25
 20
549.5
 10
1185.75
 20
549.25
 10
1186.25
 20
548.75
 10
1186.5
 20
548.5
 10
1187.0
 20
548.0
 10
1187.25
 20
547.75
 10
1187.75
 20
547.25
 10
1188.0
 20
546.75
 10
1188.25
 20
546.5
 10
1188.5
 20
546.0
 10
1188.75
 20
545.5
 10
1189.0
 20
545.0
 10
1189.25
 20
544.5
 10
1189.25
 20
544.0
 10
1189.5
 20
543.5
 10
1189.5
 20
543.0
 10
1189.5
 20
542.5
 10
1189.75
 20
541.75
 10
1189.75
 20
541.25
 10
1189.75
 20
540.75
 10
1189.25
 20
530.0
 10
1188.75
 20
519.25
 10
1188.5
 20
508.5
 10
1188.25
 20
497.75
 10
1188.25
 20
487.0
 10
1188.0
 20
476.25
 10
1188.0
 20
465.5
 10
1188.25
 20
454.75
 10
1188.25
 20
444.0
 10
1188.5
 20
433.25
 10
1188.75
 20
422.5
 10
1189.25
 20
411.75
 10
1189.75
 20
401.0
 10
1190.25
 20
390.25
 10
1190.75
 20
379.5
 10
1191.5
 20
368.75
 10
1192.25
 20
358.0
 10
1193.25
 20
347.25
 10
1194.0
 20
336.5
 10
1195.0
 20
326.0
 10
1196.25
 20
315.25
 10
1197.25
 20
304.5
 10
1198.5
 20
293.75
 10
1199.75
 20
283.25
 10
1200.0
 20
282.75
 10
1200.0
 20
282.25
 10
1200.0
 20
281.75
 10
1200.0
 20
281.25
 10
1199.75
 20
280.75
 10
1199.75
 20
280.25
 10
1199.75
 20
279.75
 10
1199.5
 20
279.5
 10
1199.25
 20
279.0
 10
1199.25
 20
278.5
 10
1199.0
 20
278.0
 10
1198.75
 20
277.75
 10
1198.5
 20
277.25
 10
1198.25
 20
276.75
 10
1198.0
 20
276.5
 10
1197.75
 20
276.0
 10
1197.25
 20
275.75
 10
1197.0
 20
275.5
 10
1196.75
 20
275.0
 10
1196.25
 20
274.75
 10
1196.0
 20
274.5
 10
1195.5
 20
274.25
 10
1195.0
 20
274.0
 10
1194.75
 20
273.75
 10
1194.25
 20
273.75
 10
1193.75
 20
273.5
 10
1193.25
 20
273.25
 10
1193.0
 20
273.25
 10
1192.5
 20
273.25
 10
1192.0
 20
273.0
 10
1191.5
 20
273.0
 10
1121.0
 20
268.5
 10
1120.75
 20
268.5
 10
1120.5
 20
268.5
 10
1120.25
 20
268.5
 10
1120.0
 20
268.5
 10
1119.75
 20
268.5
 10
1119.75
 20
268.25
 10
1119.5
 20
268.25
 10
1119.25
 20
268.25
 10
1119.0
 20
268.25
 10
1025.25
 20
243.0
 10
1025.0
 20
243.0
 10
1024.75
 20
243.0
 10
1024.75
 20
242.75
 10
1024.5
 20
242.75
 10
1024.25
 20
242.75
 10
1024.0
 20
242.75
 10
1023.75
 20
242.75
 10
1023.5
 20
242.75
 10
1023.25
 20
242.75
 10
1023.0
 20
242.75
 10
1022.75
 20
242.5
 10
1022.5
 20
242.5
 10
1022.25
 20
242.5
 10
1022.25
 20
242.75
 10
1022.0
 20
242.75
 10
1021.75
 20
242.75
 10
1021.5
 20
242.75
 10
782.5
 20
266.0
 10
782.25
 20
266.0
 10
782.0
 20
266.0
 10
781.75
 20
266.0
 10
781.75
 20
266.25
 10
781.5
 20
266.25
 10
781.25
 20
266.25
 10
781.0
 20
266.25
 10
780.75
 20
266.5
 10
780.5
 20
266.5
 10
780.25
 20
266.5
 10
780.0
 20
266.75
 10
779.75
 20
266.75
 10
779.5
 20
266.75
 10
779.25
 20
267.0
 10
779.0
 20
267.0
 10
778.75
 20
267.25
 10
778.5
 20
267.25
 10
778.5
 20
267.5
 10
778.25
 20
267.5
 10
597.75
 20
380.75
 10
597.25
 20
381.0
 10
596.75
 20
381.25
 10
596.25
 20
381.5
 10
596.0
 20
382.0
 10
595.5
 20
382.25
 10
595.25
 20
382.75
 10
595.0
 20
383.25
 10
594.5
 20
383.75
 10
594.25
 20
384.0
 10
594.0
 20
384.5
 10
593.75
 20
385.0
 10
593.5
 20
385.5
 10
593.5
 20
386.0
 10
593.25
 20
386.5
 10
593.25
 20
387.25
 10
593.0
 20
387.75
 10
593.0
 20
388.25
 10
593.0
 20
388.75
 10
593.0
 20
389.25
 10
593.0
 20
389.75
 10
593.0
 20
390.25
 10
593.0
 20
391.0
 10
593.25
 20
391.5
 10
593.25
 20
392.0
 10
593.5
 20
392.5
 10
593.75
 20
393.0
 10
594.0
 20
393.5
 10
594.25
 20
394.0
 10
594.5
 20
394.5
 10
594.75
 20
394.75
 10
640.0
 20
459.75
 10
640.25
 20
460.25
 10
640.75
 20
460.5
 10
641.0
 20
461.0
 10
641.5
 20
461.25
 10
641.75
 20
461.75
 10
642.25
 20
462.0
 10
642.75
 20
462.25
 10
643.0
 20
462.5
 10
643.5
 20
462.75
 10
644.0
 20
463.0
 10
644.5
 20
463.25
 10
645.0
 20
463.5
 10
645.5
 20
463.5
 10
646.0
 20
463.75
 10
646.5
 20
463.75
 10
647.0
 20
464.0
 10
647.5
 20
464.0
 10
648.25
 20
464.0
 10
648.75
 20
464.0
 10
649.25
 20
464.0
 10
649.75
 20
463.75
 10
650.25
 20
463.75
 10
650.75
 20
463.75
 10
651.25
 20
463.5
 10
651.75
 20
463.25
 10
652.25
 20
463.25
 10
652.75
 20
463.0
 10
653.25
 20
462.75
 10
747.25
 20
408.75
 10
795.5
 20
401.0
  0
LWPOLYLINE
  5
3D
330
17
100
AcDbEntity
  8
HOLES
100
AcDbPolyline
 90
135
 70
1
 10
654.0
 20
604.25
 10
603.0
 20
603.5
 10
602.5
 20
603.5
 10
602.0
 20
603.5
 10
601.5
 20
603.5
 10
601.0
 20
603.25
 10
600.5
 20
603.25
 10
600.0
 20
603.0
 10
599.5
 20
602.75
 10
599.0
 20
602.75
 10
598.5
 20
602.5
 10
598.0
 20
602.25
 10
597.5
 20
601.75
 10
597.25
 20
601.5
 10
596.75
 20
601.25
 10
596.25
 20
600.75
 10
596.0
 20
600.5
 10
595.5
 20
600.0
 10
595.25
 20
599.75
 10
595.0
 20
599.25
 10
594.75
 20
598.75
 10
594.5
 20
598.25
 10
594.25
 20
597.75
 10
594.0
 20
597.25
 10
593.75
 20
596.75
 10
593.5
 20
596.25
 10
593.5
 20
595.75
 10
593.25
 20
595.25
 10
593.25
 20
594.75
 10
593.25
 20
594.25
 10
593.25
 20
593.75
 10
593.25
 20
593.25
 10
594.75
 20
553.25
 10
594.75
 20
552.5
 10
595.0
 20
551.75
 10
595.0
 20
551.0
 10
595.25
 20
550.25
 10
595.5
 20
549.5
 10
595.75
 20
549.0
 10
596.0
 20
548.25
 10
596.25
 20
547.5
 10
596.75
 20
546.75
 10
597.0
 20
546.25
 10
597.5
 20
545.5
 10
598.0
 20
545.0
 10
598.5
 20
544.5
 10
599.0
 20
543.75
 10
599.5
 20
543.25
 10
600.0
 20
542.75
 10
600.75
 20
542.5
 10
601.25
 20
542.0
 10
602.0
 20
541.5
 10
602.5
 20
541.25
 10
603.25
 20
541.0
 10
604.0
 20
540.75
 10
604.75
 20
540.5
 10
605.5
 20
540.25
 10
606.25
 20
540.0
 10
607.0
 20
540.0
 10
607.75
 20
539.75
 10
608.5
 20
539.75
 10
609.25
 20
539.75
 10
656.0
 20
541.0
 10
656.75
 20
541.0
 10
657.25
 20
541.25
 10
658.0
 20
541.25
 10
658.5
 20
541.25
 10
659.0
 20
541.5
 10
659.75
 20
541.5
 10
660.25
 20
541.75
 10
660.75
 20
542.0
 10
661.5
 20
542.25
 10
662.0
 20
542.5
 10
662.5
 20
542.75
 10
663.0
 20
543.0
 10
663.5
 20
543.25
 10
664.0
 20
543.75
 10
664.5
 20
544.0
 10
665.0
 20
544.25
 10
665.5
 20
544.75
 10
666.0
 20
545.25
 10
666.5
 20
545.5
 10
666.75
 20
546.0
 10
667.25
 20
546.5
 10
667.5
 20
547.0
 10
668.0
 20
547.5
 10
668.25
 20
548.0
 10
669.5
 20
549.75
 10
670.5
 20
551.75
 10
671.5
 20
553.75
 10
672.5
 20
556.0
 10
673.25
 20
558.0
 10
673.75
 20
560.25
 10
674.25
 20
562.5
 10
674.75
 20
564.5
 10
675.0
 20
566.75
 10
675.25
 20
569.0
 10
675.25
 20
571.25
 10
675.25
 20
573.5
 10
675.25
 20
575.75
 10
674.75
 20
578.0
 10
674.5
 20
580.25
 10
674.0
 20
582.5
 10
673.25
 20
584.75
 10
672.5
 20
586.75
 10
671.75
 20
588.75
 10
670.75
 20
591.0
 10
669.75
 20
593.0
 10
668.75
 20
594.75
 10
667.5
 20
596.75
 10
666.0
 20
598.5
 10
665.75
 20
599.0
 10
665.25
 20
599.5
 10
665.0
 20
599.75
 10
664.5
 20
600.25
 10
664.0
 20
600.5
 10
663.75
 20
601.0
 10
663.25
 20
601.25
 10
662.75
 20
601.75
 10
662.25
 20
602.0
 10
661.75
 20
602.25
 10
661.25
 20
602.5
 10
660.75
 20
602.75
 10
660.25
 20
603.0
 10
659.75
 20
603.25
 10
659.0
 20
603.5
 10
658.5
 20
603.75
 10
658.0
 20
603.75
 10
657.5
 20
604.0
 10
657.0
 20
604.0
 10
656.25
 20
604.25
 10
655.75
 20
604.25
 10
655.25
 20
604.25
 10
654.5
 20
604.25
 10
654.0
 20
604.25
  0
LWPOLYLINE
  5
3F
330
17
100
AcDbEntity
  8
PART_51-12328
100
AcDbPolyline
 90
30
 70
1
 10
150.0
 20
406.75
 10
547.25
 20
406.75
 10
547.25
 20
326.75
 10
208.25
 20
326.75
 10
207.25
 20
328.75
 10
206.5
 20
330.5
 10
205.5
 20
332.5
 10
204.5
 20
334.25
 10
203.5
 20
336.25
 10
202.5
 20
338.0
 10
201.25
 20
339.75
 10
200.25
 20
341.5
 10
199.25
 20
343.25
 10
198.0
 20
345.0
 10
196.75
 20
346.75
 10
195.75
 20
348.5
 10
194.5
 20
350.25
 10
193.25
 20
352.0
 10
192.0
 20
353.5
 10
190.75
 20
355.25
 10
189.5
 20
357.0
 10
188.0
 20
358.5
 10
186.75
 20
360.0
 10
185.25
 20
361.75
 10
184.0
 20
363.25
 10
182.5
 20
364.75
 10
181.0
 20
366.25
 10
179.75
 20
367.75
 10
152.0
 20
396.0
 10
150.0
 20
406.75
  0
LWPOLYLINE
  5
40
330
17
100
AcDbEntity
  8
HOLES
100
AcDbPolyline
 90
64
 70
1
 10
221.5
 20
382.0
 10
208.25
 20
353.5
 10
221.25
 20
347.5
 10
222.0
 20
347.0
 10
222.75
 20
346.75
 10
223.75
 20
346.5
 10
224.5
 20
346.25
 10
225.25
 20
346.25
 10
226.0
 20
346.0
 10
227.0
 20
346.0
 10
227.75
 20
346.0
 10
228.5
 20
346.0
 10
229.25
 20
346.0
 10
230.25
 20
346.0
 10
231.0
 20
346.25
 10
231.75
 20
346.5
 10
232.5
 20
346.75
 10
233.25
 20
347.0
 10
234.25
 20
347.25
 10
235.0
 20
347.5
 10
235.5
 20
348.0
 10
236.25
 20
348.25
 10
237.0
 20
348.75
 10
237.75
 20
349.25
 10
238.25
 20
349.75
 10
239.0
 20
350.25
 10
239.5
 20
351.0
 10
240.0
 20
351.5
 10
240.5
 20
352.25
 10
241.0
 20
353.0
 10
241.5
 20
353.5
 10
242.0
 20
354.25
 10
242.25
 20
355.0
 10
242.5
 20
355.75
 10
243.0
 20
356.5
 10
243.25
 20
357.25
 10
243.25
 20
358.25
 10
243.5
 20
359.0
 10
243.75
 20
359.75
 10
243.75
 20
360.5
 10
243.75
 20
361.5
 10
243.75
 20
362.25
 10
243.75
 20
363.0
 10
243.5
 20
364.0
 10
243.5
 20
364.75
 10
243.25
 20
365.5
 10
243.0
 20
366.25
 10
242.75
 20
367.0
 10
242.5
 20
367.75
 10
242.25
 20
368.5
 10
241.75
 20
369.25
 10
241.25
 20
370.0
 10
241.0
 20
370.75
 10
240.5
 20
371.5
 10
240.0
 20
372.0
 10
239.25
 20
372.75
 10
238.75
 20
373.25
 10
238.25
 20
373.75
 10
237.5
 20
374.25
 10
236.75
 20
374.75
 10
236.0
 20
375.25
 10
235.5
 20
375.5
 10
234.75
 20
376.0
 10
221.5
 20
382.0
  0
LWPOLYLINE
  5
41
330
17
100
AcDbEntity
  8
HOLES
100
AcDbPolyline
 90
65
 70
1
 10
417.75
 20
348.25
 10
418.0
 20
381.75
 10
405.25
 20
381.75
 10
404.5
 20
381.75
 10
403.5
 20
381.75
 10
402.75
 20
381.75
 10
401.75
 20
381.5
 10
401.0
 20
381.25
 10
400.25
 20
381.0
 10
399.25
 20
380.75
 10
398.5
 20
380.5
 10
397.75
 20
380.0
 10
397.0
 20
379.75
 10
396.25
 20
379.25
 10
395.5
 20
378.75
 10
394.75
 20
378.25
 10
394.0
 20
377.5
 10
393.5
 20
377.0
 10
392.75
 20
376.25
 10
392.25
 20
375.75
 10
391.75
 20
375.0
 10
391.25
 20
374.25
 10
390.75
 20
373.5
 10
390.25
 20
372.75
 10
390.0
 20
372.0
 10
389.5
 20
371.25
 10
389.25
 20
370.25
 10
389.0
 20
369.5
 10
388.75
 20
368.75
 10
388.75
 20
367.75
 10
388.5
 20
367.0
 10
388.5
 20
366.0
 10
388.5
 20
365.25
 10
388.5
 20
365.0
 10
388.5
 20
364.25
 10
388.5
 20
363.5
 10
388.75
 20
362.5
 10
388.75
 20
361.75
 10
389.0
 20
360.75
 10
389.25
 20
360.0
 10
389.5
 20
359.25
 10
389.75
 20
358.25
 10
390.25
 20
357.5
 10
390.75
 20
356.75
 10
391.0
 20
356.0
 10
391.5
 20
355.25
 10
392.0
 20
354.5
 10
392.75
 20
354.0
 10
393.25
 20
353.25
 10
394.0
 20
352.75
 10
394.5
 20
352.0
 10
395.25
 20
351.5
 10
396.0
 20
351.0
 10
396.75
 20
350.5
 10
397.5
 20
350.25
 10
398.25
 20
349.75
 10
399.0
 20
349.5
 10
400.0
 20
349.25
 10
400.75
 20
349.0
 10
401.75
 20
348.75
 10
402.5
 20
348.5
 10
403.25
 20
348.5
 10
404.25
 20
348.25
 10
405.0
 20
348.25
 10
417.75
 20
348.25
  0
LWPOLYLINE
  5
43
330
17
100
AcDbEntity
  8
PART_51-12727
100
AcDbPolyline
 90
163
 70
1
 10
0.0
 20
913.12
 10
0.0
 20
1116.12
 10
453.0
 20
1116.12
 10
453.0
 20
962.12
 10
513.0
 20
962.12
 10
513.0
 20
848.12
 10
414.0
 20
848.12
 10
414.0
 20
751.12
 10
414.0
 20
749.62
 10
413.75
 20
748.12
 10
413.5
 20
746.62
 10
413.25
 20
744.88
 10
413.0
 20
743.38
 10
412.5
 20
741.88
 10
412.0
 20
740.38
 10
411.25
 20
739.12
 10
410.75
 20
737.62
 10
410.0
 20
736.12
 10
409.0
 20
734.88
 10
408.25
 20
733.62
 10
407.25
 20
732.38
 10
406.25
 20
731.12
 10
405.25
 20
730.12
 10
404.0
 20
728.88
 10
402.75
 20
727.88
 10
401.5
 20
726.88
 10
400.25
 20
726.12
 10
399.0
 20
725.12
 10
397.5
 20
724.38
 10
396.25
 20
723.88
 10
394.75
 20
723.12
 10
393.25
 20
722.62
 10
391.75
 20
722.12
 10
390.25
 20
721.88
 10
388.75
 20
721.62
 10
387.0
 20
721.38
 10
385.5
 20
721.38
 10
384.0
 20
721.12
 10
259.5
 20
721.12
 10
258.5
 20
721.12
 10
257.75
 20
721.12
 10
256.75
 20
721.12
 10
256.0
 20
720.88
 10
255.25
 20
720.62
 10
254.25
 20
720.38
 10
253.5
 20
720.12
 10
252.75
 20
719.88
 10
252.0
 20
719.38
 10
251.25
 20
719.12
 10
250.5
 20
718.62
 10
249.75
 20
718.12
 10
249.0
 20
717.62
 10
248.5
 20
716.88
 10
247.75
 20
716.38
 10
247.25
 20
715.88
 10
246.5
 20
715.12
 10
246.0
 20
714.38
 10
245.5
 20
713.62
 10
245.25
 20
712.88
 10
244.75
 20
712.12
 10
244.25
 20
711.38
 10
244.0
 20
710.62
 10
243.75
 20
709.88
 10
243.5
 20
708.88
 10
243.25
 20
708.12
 10
243.25
 20
707.38
 10
243.0
 20
706.38
 10
243.0
 20
705.62
 10
243.0
 20
704.62
 10
243.0
 20
607.62
 10
243.0
 20
606.88
 10
242.75
 20
606.12
 10
242.75
 20
605.12
 10
242.5
 20
604.38
 10
242.5
 20
603.38
 10
242.25
 20
602.62
 10
241.75
 20
601.88
 10
241.5
 20
601.12
 10
241.25
 20
600.12
 10
240.75
 20
599.38
 10
240.25
 20
598.62
 10
239.75
 20
598.12
 10
239.25
 20
597.38
 10
238.75
 20
596.62
 10
238.0
 20
596.12
 10
237.5
 20
595.38
 10
236.75
 20
594.88
 10
236.25
 20
594.38
 10
235.5
 20
593.88
 10
234.75
 20
593.38
 10
234.0
 20
593.12
 10
233.25
 20
592.62
 10
232.25
 20
592.38
 10
231.5
 20
592.12
 10
230.75
 20
591.88
 10
229.75
 20
591.62
 10
229.0
 20
591.38
 10
228.25
 20
591.38
 10
227.25
 20
591.12
 10
226.5
 20
591.12
 10
129.5
 20
591.12
 10
128.5
 20
591.12
 10
127.75
 20
591.38
 10
126.75
 20
591.38
 10
126.0
 20
591.62
 10
125.25
 20
591.88
 10
124.25
 20
592.12
 10
123.5
 20
592.38
 10
122.75
 20
592.62
 10
122.0
 20
593.12
 10
121.25
 20
593.38
 10
120.5
 20
593.88
 10
119.75
 20
594.38
 10
119.0
 20
594.88
 10
118.5
 20
595.38
 10
117.75
 20
596.12
 10
117.25
 20
596.62
 10
116.5
 20
597.38
 10
116.0
 20
598.12
 10
115.5
 20
598.62
 10
115.25
 20
599.38
 10
114.75
 20
600.12
 10
114.25
 20
601.12
 10
114.0
 20
601.88
 10
113.75
 20
602.62
 10
113.5
 20
603.38
 10
113.25
 20
604.38
 10
113.25
 20
605.12
 10
113.0
 20
606.12
 10
113.0
 20
606.88
 10
113.0
 20
607.62
 10
113.0
 20
901.12
 10
113.0
 20
901.88
 10
113.0
 20
902.38
 10
112.75
 20
903.12
 10
112.75
 20
903.62
 10
112.5
 20
904.38
 10
112.25
 20
904.88
 10
112.25
 20
905.62
 10
112.0
 20
906.12
 10
111.75
 20
906.62
 10
111.25
 20
907.12
 10
111.0
 20
907.88
 10
110.75
 20
908.38
 10
110.25
 20
908.88
 10
109.75
 20
909.38
 10
109.5
 20
909.62
 10
109.0
 20
910.12
 10
108.5
 20
910.62
 10
108.0
 20
910.88
 10
107.5
 20
911.38
 10
107.0
 20
911.62
 10
106.5
 20
911.88
 10
105.75
 20
912.12
 10
105.25
 20
912.38
 10
104.75
 20
912.62
 10
104.0
 20
912.88
 10
103.5
 20
912.88
 10
102.75
 20
913.12
 10
102.25
 20
913.12
 10
101.5
 20
913.12
 10
101.0
 20
913.12
 10
0.0
 20
913.12
  0
LWPOLYLINE
  5
44
330
17
100
AcDbEntity
  8
HOLES
100
AcDbPolyline
 90
121
 70
1
 10
323.0
 20
787.12
 10
322.5
 20
787.12
 10
322.0
 20
787.12
 10
321.5
 20
787.12
 10
320.75
 20
787.12
 10
320.25
 20
786.88
 10
319.75
 20
786.62
 10
319.25
 20
786.62
 10
318.75
 20
786.38
 10
318.5
 20
786.12
 10
318.0
 20
785.88
 10
317.5
 20
785.62
 10
317.0
 20
785.38
 10
316.75
 20
784.88
 10
316.25
 20
784.62
 10
315.75
 20
784.38
 10
315.5
 20
783.88
 10
315.25
 20
783.62
 10
314.75
 20
783.12
 10
314.5
 20
782.62
 10
314.25
 20
782.12
 10
314.0
 20
781.88
 10
313.75
 20
781.38
 10
313.5
 20
780.88
 10
313.5
 20
780.38
 10
313.25
 20
779.88
 10
313.25
 20
779.38
 10
313.0
 20
778.88
 10
313.0
 20
778.38
 10
313.0
 20
777.62
 10
313.0
 20
777.12
 10
313.0
 20
776.62
 10
313.0
 20
776.12
 10
313.0
 20
775.62
 10
313.25
 20
775.12
 10
313.25
 20
774.62
 10
313.5
 20
774.12
 10
313.5
 20
773.62
 10
313.75
 20
773.12
 10
314.0
 20
772.62
 10
314.25
 20
772.12
 10
314.5
 20
771.88
 10
314.75
 20
771.38
 10
315.25
 20
770.88
 10
315.5
 20
770.62
 10
315.75
 20
770.12
 10
316.25
 20
769.88
 10
316.75
 20
769.38
 10
317.0
 20
769.12
 10
317.5
 20
768.88
 10
318.0
 20
768.62
 10
318.5
 20
768.38
 10
318.75
 20
768.12
 10
319.25
 20
767.88
 10
319.75
 20
767.62
 10
320.25
 20
767.62
 10
320.75
 20
767.38
 10
321.5
 20
767.38
 10
322.0
 20
767.38
 10
322.5
 20
767.12
 10
323.0
 20
767.12
 10
323.5
 20
767.12
 10
324.0
 20
767.38
 10
324.5
 20
767.38
 10
325.0
 20
767.38
 10
325.5
 20
767.62
 10
326.0
 20
767.62
 10
326.5
 20
767.88
 10
327.0
 20
768.12
 10
327.5
 20
768.38
 10
328.0
 20
768.62
 10
328.5
 20
768.88
 10
328.75
 20
769.12
 10
329.25
 20
769.38
 10
329.75
 20
769.88
 10
330.0
 20
770.12
 10
330.25
 20
770.62
 10
330.75
 20
770.88
 10
331.0
 20
771.38
 10
331.25
 20
771.88
 10
331.5
 20
772.12
 10
331.75
 20
772.62
 10
332.0
 20
773.12
 10
332.25
 20
773.62
 10
332.5
 20
774.12
 10
332.5
 20
774.62
 10
332.75
 20
775.12
 10
332.75
 20
775.62
 10
333.0
 20
776.12
 10
333.0
 20
776.62
 10
333.0
 20
777.12
 10
333.0
 20
777.62
 10
333.0
 20
778.38
 10
332.75
 20
778.88
 10
332.75
 20
779.38
 10
332.5
 20
779.88
 10
332.5
 20
780.38
 10
332.25
 20
780.88
 10
332.0
 20
781.38
 10
331.75
 20
781.88
 10
331.5
 20
782.12
 10
331.25
 20
782.62
 10
331.0
 20
783.12
 10
330.75
 20
783.62
 10
330.25
 20
783.88
 10
330.0
 20
784.38
 10
329.75
 20
784.62
 10
329.25
 20
784.88
 10
328.75
 20
785.38
 10
328.5
 20
785.62
 10
328.0
 20
785.88
 10
327.5
 20
786.12
 10
327.0
 20
786.38
 10
326.5
 20
786.62
 10
326.0
 20
786.62
 10
325.5
 20
786.88
 10
325.0
 20
787.12
 10
324.5
 20
787.12
 10
324.0
 20
787.12
 10
323.5
 20
787.12
 10
323.0
 20
787.12
  0
LWPOLYLINE
  5
46
330
17
100
AcDbEntity
  8
PART_51-12720
100
AcDbPolyline
 90
34
 70
1
 10
1166.0
 20
739.88
 10
621.0
 20
772.88
 10
625.5
 20
823.38
 10
749.5
 20
812.12
 10
756.25
 20
950.12
 10
760.25
 20
950.12
 10
764.5
 20
950.38
 10
768.5
 20
950.62
 10
772.5
 20
951.38
 10
776.5
 20
952.38
 10
780.5
 20
953.38
 10
784.25
 20
954.62
 10
788.25
 20
956.12
 10
792.0
 20
957.88
 10
795.5
 20
959.88
 10
799.0
 20
961.88
 10
802.5
 20
964.12
 10
805.75
 20
966.62
 10
808.75
 20
969.12
 10
811.75
 20
972.12
 10
814.75
 20
974.88
 10
817.25
 20
978.12
 10
819.75
 20
981.38
 10
822.25
 20
984.62
 10
824.25
 20
988.12
 10
826.25
 20
991.88
 10
828.0
 20
995.38
 10
829.75
 20
999.12
 10
831.0
 20
1003.12
 10
832.25
 20
1007.12
 10
833.0
 20
1011.12
 10
833.75
 20
1015.12
 10
1193.75
 20
998.38
 10
1166.0
 20
739.88
  0
LWPOLYLINE
  5
47
330
17
100
AcDbEntity
  8
HOLES
100
AcDbPolyline
 90
5
 70
1
 10
916.5
 20
797.38
 10
920.0
 20
858.12
 10
854.25
 20
862.12
 10
850.75
 20
801.12
 10
916.5
 20
797.38
  0
LWPOLYLINE
  5
49
330
17
100
AcDbEntity
  8
PART_51-13897
100
AcDbPolyline
 90
407
 70
1
 10
849.0
 20
1316.88
 10
958.5
 20
1273.88
 10
959.0
 20
1273.62
 10
959.5
 20
1273.38
 10
960.0
 20
1273.12
 10
960.5
 20
1272.88
 10
961.0
 20
1272.38
 10
961.25
 20
1272.12
 10
961.75
 20
1271.88
 10
962.0
 20
1271.38
 10
962.5
 20
1271.12
 10
962.75
 20
1270.62
 10
963.0
 20
1270.12
 10
963.5
 20
1269.88
 10
963.75
 20
1269.38
 10
964.0
 20
1268.88
 10
964.25
 20
1268.38
 10
964.25
 20
1267.88
 10
964.5
 20
1267.38
 10
964.75
 20
1266.88
 10
964.75
 20
1266.38
 10
964.75
 20
1265.88
 10
965.0
 20
1265.38
 10
965.0
 20
1264.62
 10
965.0
 20
1264.12
 10
965.0
 20
1263.62
 10
964.75
 20
1263.12
 10
964.75
 20
1262.62
 10
964.5
 20
1262.12
 10
964.5
 20
1261.62
 10
964.25
 20
1261.12
 10
964.0
 20
1260.62
 10
964.0
 20
1260.12
 10
963.75
 20
1259.62
 10
963.5
 20
1259.12
 10
963.0
 20
1258.62
 10
962.75
 20
1258.38
 10
962.5
 20
1257.88
 10
962.0
 20
1257.38
 10
817.75
 20
1109.88
 10
817.5
 20
1109.62
 10
817.25
 20
1109.38
 10
817.25
 20
1109.12
 10
817.0
 20
1109.12
 10
817.0
 20
1108.88
 10
816.75
 20
1108.62
 10
816.5
 20
1108.38
 10
816.5
 20
1108.12
 10
816.25
 20
1108.12
 10
816.25
 20
1107.88
 10
816.0
 20
1107.62
 10
816.0
 20
1107.38
 10
816.0
 20
1107.12
 10
815.75
 20
1107.12
 10
815.75
 20
1106.88
 10
746.0
 20
939.88
 10
745.75
 20
939.38
 10
745.5
 20
938.88
 10
745.25
 20
938.38
 10
745.0
 20
937.88
 10
744.75
 20
937.62
 10
744.25
 20
937.12
 10
744.0
 20
936.62
 10
743.75
 20
936.38
 10
743.25
 20
936.12
 10
742.75
 20
935.62
 10
742.5
 20
935.38
 10
742.0
 20
935.12
 10
741.5
 20
934.88
 10
741.0
 20
934.62
 10
740.5
 20
934.38
 10
740.0
 20
934.12
 10
739.5
 20
934.12
 10
739.0
 20
933.88
 10
738.5
 20
933.88
 10
738.0
 20
933.62
 10
737.5
 20
933.62
 10
737.0
 20
933.62
 10
736.5
 20
933.62
 10
736.0
 20
933.62
 10
735.5
 20
933.62
 10
735.0
 20
933.88
 10
734.5
 20
933.88
 10
734.0
 20
934.12
 10
733.5
 20
934.12
 10
733.0
 20
934.38
 10
644.0
 20
971.62
 10
643.75
 20
971.88
 10
643.5
 20
971.88
 10
643.25
 20
971.88
 10
643.0
 20
971.88
 10
642.75
 20
972.12
 10
642.5
 20
972.12
 10
642.25
 20
972.12
 10
642.0
 20
972.12
 10
641.75
 20
972.12
 10
641.5
 20
972.12
 10
641.25
 20
972.12
 10
641.0
 20
971.88
 10
640.75
 20
971.88
 10
640.5
 20
971.88
 10
640.25
 20
971.62
 10
640.0
 20
971.62
 10
597.5
 20
951.62
 10
596.75
 20
951.38
 10
596.0
 20
950.88
 10
595.5
 20
950.62
 10
594.75
 20
950.62
 10
594.0
 20
950.38
 10
593.25
 20
950.12
 10
592.5
 20
949.88
 10
592.0
 20
949.88
 10
591.25
 20
949.88
 10
590.5
 20
949.62
 10
589.75
 20
949.62
 10
589.0
 20
949.62
 10
588.25
 20
949.62
 10
587.5
 20
949.62
 10
586.75
 20
949.88
 10
586.0
 20
949.88
 10
585.25
 20
949.88
 10
584.5
 20
950.12
 10
584.0
 20
950.38
 10
583.25
 20
950.38
 10
582.5
 20
950.62
 10
581.75
 20
950.88
 10
581.25
 20
951.12
 10
580.5
 20
951.62
 10
566.5
 20
958.12
 10
566.0
 20
958.38
 10
565.5
 20
958.62
 10
565.0
 20
958.88
 10
564.5
 20
959.12
 10
564.0
 20
959.38
 10
563.5
 20
959.88
 10
563.0
 20
960.12
 10
562.5
 20
960.38
 10
562.0
 20
960.88
 10
561.75
 20
961.12
 10
561.25
 20
961.62
 10
560.75
 20
961.88
 10
560.5
 20
962.38
 10
560.0
 20
962.88
 10
559.75
 20
963.38
 10
559.25
 20
963.62
 10
559.0
 20
964.12
 10
558.5
 20
964.62
 10
558.25
 20
965.12
 10
558.0
 20
965.62
 10
557.75
 20
966.12
 10
557.25
 20
966.62
 10
557.0
 20
967.12
 10
556.75
 20
967.62
 10
552.5
 20
976.62
 10
548.25
 20
985.62
 10
543.75
 20
994.88
 10
539.5
 20
1003.88
 10
535.0
 20
1012.88
 10
530.75
 20
1021.88
 10
526.25
 20
1030.88
 10
521.75
 20
1039.88
 10
517.25
 20
1048.88
 10
512.75
 20
1057.88
 10
508.25
 20
1066.88
 10
503.75
 20
1075.62
 10
499.25
 20
1084.62
 10
494.75
 20
1093.62
 10
490.0
 20
1102.38
 10
485.5
 20
1111.38
 10
480.75
 20
1120.38
 10
476.25
 20
1129.12
 10
471.5
 20
1138.12
 10
466.75
 20
1146.88
 10
462.0
 20
1155.88
 10
457.25
 20
1164.62
 10
452.5
 20
1173.38
 10
447.75
 20
1182.12
 10
447.25
 20
1183.12
 10
446.75
 20
1184.12
 10
446.0
 20
1184.88
 10
445.25
 20
1185.62
 10
444.75
 20
1186.62
 10
444.0
 20
1187.38
 10
443.25
 20
1188.12
 10
442.25
 20
1188.62
 10
441.5
 20
1189.38
 10
440.5
 20
1189.88
 10
439.75
 20
1190.38
 10
438.75
 20
1190.88
 10
437.75
 20
1191.38
 10
436.75
 20
1191.88
 10
435.75
 20
1192.12
 10
434.75
 20
1192.38
 10
433.75
 20
1192.62
 10
432.75
 20
1192.88
 10
431.5
 20
1192.88
 10
430.5
 20
1192.88
 10
429.5
 20
1192.88
 10
428.5
 20
1192.88
 10
427.5
 20
1192.88
 10
426.25
 20
1192.62
 10
34.75
 20
1119.62
 10
33.5
 20
1119.38
 10
32.5
 20
1119.38
 10
31.5
 20
1119.38
 10
30.25
 20
1119.38
 10
29.25
 20
1119.38
 10
28.25
 20
1119.62
 10
27.25
 20
1119.62
 10
26.0
 20
1119.88
 10
25.0
 20
1120.12
 10
24.0
 20
1120.62
 10
23.0
 20
1120.88
 10
22.0
 20
1121.38
 10
21.25
 20
1121.88
 10
20.25
 20
1122.38
 10
19.25
 20
1123.12
 10
18.5
 20
1123.62
 10
17.75
 20
1124.38
 10
17.0
 20
1125.12
 10
16.25
 20
1125.88
 10
15.5
 20
1126.62
 10
14.75
 20
1127.62
 10
14.25
 20
1128.38
 10
13.75
 20
1129.38
 10
13.0
 20
1130.38
 10
12.75
 20
1131.38
 10
12.25
 20
1132.38
 10
12.0
 20
1133.38
 10
11.5
 20
1134.38
 10
11.25
 20
1135.38
 10
11.25
 20
1136.38
 10
0.25
 20
1210.38
 10
0.25
 20
1211.62
 10
0.0
 20
1212.62
 10
0.0
 20
1213.62
 10
0.0
 20
1214.62
 10
0.25
 20
1215.88
 10
0.25
 20
1216.88
 10
0.5
 20
1217.88
 10
0.75
 20
1218.88
 10
1.0
 20
1219.88
 10
1.5
 20
1220.88
 10
2.0
 20
1221.88
 10
2.5
 20
1222.88
 10
3.0
 20
1223.62
 10
3.5
 20
1224.62
 10
4.0
 20
1225.38
 10
4.75
 20
1226.38
 10
5.5
 20
1227.12
 10
6.25
 20
1227.88
 10
7.0
 20
1228.62
 10
7.75
 20
1229.12
 10
8.5
 20
1229.88
 10
9.5
 20
1230.38
 10
10.5
 20
1230.88
 10
11.25
 20
1231.38
 10
12.25
 20
1231.88
 10
13.25
 20
1232.12
 10
14.25
 20
1232.62
 10
15.25
 20
1232.88
 10
16.25
 20
1233.12
 10
446.75
 20
1314.12
 10
447.5
 20
1314.12
 10
448.25
 20
1314.38
 10
448.75
 20
1314.38
 10
449.5
 20
1314.38
 10
450.25
 20
1314.38
 10
451.0
 20
1314.38
 10
451.5
 20
1314.12
 10
452.25
 20
1314.12
 10
453.0
 20
1313.88
 10
453.5
 20
1313.88
 10
454.25
 20
1313.62
 10
455.0
 20
1313.38
 10
455.5
 20
1313.12
 10
456.25
 20
1312.88
 10
456.75
 20
1312.62
 10
457.5
 20
1312.12
 10
458.0
 20
1311.88
 10
458.5
 20
1311.38
 10
459.0
 20
1311.12
 10
459.5
 20
1310.62
 10
460.0
 20
1310.12
 10
460.5
 20
1309.62
 10
461.0
 20
1309.12
 10
461.5
 20
1308.62
 10
549.25
 20
1195.62
 10
549.5
 20
1195.12
 10
550.0
 20
1194.62
 10
550.5
 20
1194.12
 10
551.0
 20
1193.62
 10
551.5
 20
1193.38
 10
552.0
 20
1192.88
 10
552.5
 20
1192.62
 10
553.0
 20
1192.38
 10
553.75
 20
1191.88
 10
554.25
 20
1191.62
 10
554.75
 20
1191.62
 10
555.5
 20
1191.38
 10
556.0
 20
1191.12
 10
556.75
 20
1191.12
 10
557.25
 20
1190.88
 10
558.0
 20
1190.88
 10
558.5
 20
1190.88
 10
559.25
 20
1190.88
 10
560.0
 20
1190.88
 10
560.5
 20
1191.12
 10
561.25
 20
1191.12
 10
561.75
 20
1191.38
 10
562.5
 20
1191.38
 10
563.0
 20
1191.62
 10
563.5
 20
1191.88
 10
564.25
 20
1192.12
 10
564.75
 20
1192.62
 10
565.25
 20
1192.88
 10
565.75
 20
1193.38
 10
566.25
 20
1193.62
 10
566.75
 20
1194.12
 10
567.25
 20
1194.62
 10
567.75
 20
1194.88
 10
568.0
 20
1195.38
 10
568.5
 20
1196.12
 10
568.75
 20
1196.62
 10
569.25
 20
1197.12
 10
569.5
 20
1197.62
 10
569.75
 20
1198.12
 10
604.5
 20
1281.12
 10
604.75
 20
1281.62
 10
605.0
 20
1282.12
 10
605.25
 20
1282.62
 10
605.5
 20
1283.12
 10
606.0
 20
1283.38
 10
606.25
 20
1283.88
 10
606.5
 20
1284.38
 10
607.0
 20
1284.62
 10
607.5
 20
1284.88
 10
607.75
 20
1285.38
 10
608.25
 20
1285.62
 10
608.75
 20
1285.88
 10
609.25
 20
1286.12
 10
609.75
 20
1286.38
 10
610.25
 20
1286.62
 10
610.75
 20
1286.88
 10
611.25
 20
1286.88
 10
611.75
 20
1287.12
 10
612.25
 20
1287.12
 10
612.75
 20
1287.12
 10
613.5
 20
1287.12
 10
614.0
 20
1287.38
 10
614.5
 20
1287.12
 10
615.0
 20
1287.12
 10
615.5
 20
1287.12
 10
616.0
 20
1286.88
 10
616.5
 20
1286.88
 10
617.0
 20
1286.62
 10
617.5
 20
1286.38
 10
739.5
 20
1235.38
 10
740.0
 20
1235.38
 10
740.25
 20
1235.12
 10
740.75
 20
1235.12
 10
741.25
 20
1234.88
 10
741.75
 20
1234.88
 10
742.25
 20
1234.88
 10
742.75
 20
1234.62
 10
743.25
 20
1234.62
 10
743.75
 20
1234.62
 10
744.25
 20
1234.88
 10
744.75
 20
1234.88
 10
745.25
 20
1234.88
 10
745.5
 20
1234.88
 10
746.0
 20
1235.12
 10
746.5
 20
1235.38
 10
747.0
 20
1235.38
 10
747.5
 20
1235.62
 10
748.0
 20
1235.88
 10
748.25
 20
1236.12
 10
748.75
 20
1236.38
 10
749.25
 20
1236.62
 10
749.5
 20
1236.88
 10
750.0
 20
1237.12
 10
750.25
 20
1237.62
 10
827.75
 20
1312.62
 10
828.5
 20
1313.12
 10
829.25
 20
1313.88
 10
830.0
 20
1314.38
 10
830.75
 20
1314.88
 10
831.5
 20
1315.38
 10
832.25
 20
1315.88
 10
833.25
 20
1316.38
 10
834.0
 20
1316.62
 10
835.0
 20
1317.12
 10
835.75
 20
1317.38
 10
836.75
 20
1317.62
 10
837.75
 20
1317.88
 10
838.75
 20
1317.88
 10
839.5
 20
1318.12
 10
840.5
 20
1318.12
 10
841.5
 20
1318.12
 10
842.5
 20
1318.12
 10
843.5
 20
1318.12
 10
844.25
 20
1318.12
 10
845.25
 20
1317.88
 10
846.25
 20
1317.62
 10
847.0
 20
1317.38
 10
848.0
 20
1317.12
 10
849.0
 20
1316.88
  0
LWPOLYLINE
  5
4A
330
17
100
AcDbEntity
  8
HOLES
100
AcDbPolyline
 90
123
 70
1
 10
848.0
 20
1220.88
 10
802.0
 20
1239.38
 10
801.5
 20
1239.62
 10
801.0
 20
1239.62
 10
800.5
 20
1239.88
 10
800.0
 20
1239.88
 10
799.5
 20
1239.88
 10
799.0
 20
1240.12
 10
798.25
 20
1240.12
 10
797.75
 20
1240.12
 10
797.25
 20
1239.88
 10
796.75
 20
1239.88
 10
796.25
 20
1239.88
 10
795.75
 20
1239.62
 10
795.25
 20
1239.62
 10
794.75
 20
1239.38
 10
794.25
 20
1239.12
 10
793.75
 20
1238.88
 10
793.25
 20
1238.62
 10
792.75
 20
1238.38
 10
792.25
 20
1238.12
 10
791.75
 20
1237.62
 10
791.5
 20
1237.38
 10
791.0
 20
1236.88
 10
790.75
 20
1236.62
 10
790.5
 20
1236.12
 10
790.0
 20
1235.62
 10
789.75
 20
1235.12
 10
789.5
 20
1234.88
 10
789.25
 20
1234.38
 10
789.0
 20
1233.88
 10
770.75
 20
1187.88
 10
770.5
 20
1187.38
 10
770.25
 20
1186.88
 10
770.25
 20
1186.38
 10
770.0
 20
1185.88
 10
770.0
 20
1185.38
 10
770.0
 20
1184.88
 10
770.0
 20
1184.12
 10
770.0
 20
1183.62
 10
770.0
 20
1183.12
 10
770.0
 20
1182.62
 10
770.25
 20
1182.12
 10
770.25
 20
1181.62
 10
770.5
 20
1181.12
 10
770.5
 20
1180.62
 10
770.75
 20
1180.12
 10
771.0
 20
1179.62
 10
771.25
 20
1179.12
 10
771.5
 20
1178.88
 10
771.75
 20
1178.38
 10
772.0
 20
1177.88
 10
772.5
 20
1177.62
 10
772.75
 20
1177.12
 10
773.25
 20
1176.88
 10
773.5
 20
1176.38
 10
774.0
 20
1176.12
 10
774.5
 20
1175.88
 10
774.75
 20
1175.62
 10
775.25
 20
1175.12
 10
775.75
 20
1175.12
 10
776.25
 20
1174.88
 10
822.25
 20
1156.38
 10
822.75
 20
1156.12
 10
823.25
 20
1156.12
 10
823.75
 20
1155.88
 10
824.25
 20
1155.88
 10
824.75
 20
1155.88
 10
825.25
 20
1155.62
 10
826.0
 20
1155.62
 10
826.5
 20
1155.62
 10
827.0
 20
1155.88
 10
827.5
 20
1155.88
 10
828.0
 20
1155.88
 10
828.5
 20
1156.12
 10
829.0
 20
1156.12
 10
829.5
 20
1156.38
 10
830.0
 20
1156.62
 10
830.5
 20
1156.88
 10
831.0
 20
1157.12
 10
831.5
 20
1157.38
 10
832.0
 20
1157.62
 10
832.5
 20
1158.12
 10
832.75
 20
1158.38
 10
833.25
 20
1158.88
 10
833.5
 20
1159.12
 10
833.75
 20
1159.62
 10
834.25
 20
1160.12
 10
834.5
 20
1160.62
 10
834.75
 20
1161.12
 10
835.0
 20
1161.62
 10
835.25
 20
1162.12
 10
853.5
 20
1207.88
 10
853.75
 20
1208.38
 10
854.0
 20
1208.88
 10
854.0
 20
1209.38
 10
854.25
 20
1209.88
 10
854.25
 20
1210.38
 10
854.25
 20
1211.12
 10
854.25
 20
1211.62
 10
854.25
 20
1212.12
 10
854.25
 20
1212.62
 10
854.25
 20
1213.12
 10
854.0
 20
1213.62
 10
854.0
 20
1214.12
 10
853.75
 20
1214.62
 10
853.75
 20
1215.12
 10
853.5
 20
1215.62
 10
853.25
 20
1216.12
 10
853.0
 20
1216.62
 10
852.75
 20
1217.12
 10
852.5
 20
1217.38
 10
852.25
 20
1217.88
 10
851.75
 20
1218.38
 10
851.5
 20
1218.62
 10
851.0
 20
1219.12
 10
850.75
 20
1219.38
 10
850.25
 20
1219.62
 10
849.75
 20
1219.88
 10
849.5
 20
1220.38
 10
849.0
 20
1220.62
 10
848.5
 20
1220.88
 10
848.0
 20
1220.88
  0
LWPOLYLINE
  5
4B
330
17
100
AcDbEntity
  8
PART_51-12330
100
AcDbPolyline
 90
415
 70
1
 10
977.25
 20
1070.75
 10
964.5
 20
1134.25
 10
964.5
 20
1134.5
 10
964.5
 20
1134.75
 10
964.5
 20
1135.0
 10
964.25
 20
1135.25
 10
964.25
 20
1135.5
 10
964.5
 20
1135.5
 10
964.5
 20
1135.75
 10
964.5
 20
1136.0
 10
964.5
 20
1136.25
 10
964.5
 20
1136.5
 10
964.5
 20
1136.75
 10
964.75
 20
1136.75
 10
964.75
 20
1137.0
 10
964.75
 20
1137.25
 10
1004.0
 20
1221.75
 10
1004.0
 20
1222.0
 10
1004.0
 20
1222.25
 10
1004.25
 20
1222.5
 10
1004.5
 20
1222.75
 10
1004.75
 20
1223.0
 10
1004.75
 20
1223.25
 10
1005.0
 20
1223.25
 10
1005.0
 20
1223.5
 10
1005.25
 20
1223.5
 10
1005.25
 20
1223.75
 10
1005.5
 20
1223.75
 10
1005.75
 20
1224.0
 10
1006.0
 20
1224.25
 10
1006.25
 20
1224.25
 10
1006.5
 20
1224.5
 10
1006.75
 20
1224.5
 10
1007.0
 20
1224.5
 10
1007.25
 20
1224.75
 10
1007.5
 20
1224.75
 10
1084.5
 20
1240.5
 10
1085.25
 20
1240.5
 10
1085.75
 20
1240.75
 10
1086.25
 20
1240.75
 10
1087.0
 20
1240.75
 10
1087.5
 20
1240.75
 10
1088.0
 20
1240.75
 10
1088.75
 20
1240.5
 10
1089.25
 20
1240.5
 10
1089.75
 20
1240.25
 10
1090.5
 20
1240.0
 10
1091.0
 20
1240.0
 10
1091.5
 20
1239.75
 10
1092.0
 20
1239.5
 10
1092.5
 20
1239.0
 10
1093.0
 20
1238.75
 10
1093.5
 20
1238.5
 10
1094.0
 20
1238.0
 10
1094.25
 20
1237.75
 10
1094.75
 20
1237.25
 10
1095.25
 20
1236.75
 10
1095.5
 20
1236.5
 10
1096.0
 20
1236.0
 10
1096.25
 20
1235.5
 10
1096.5
 20
1235.0
 10
1096.75
 20
1234.25
 10
1097.0
 20
1233.75
 10
1097.25
 20
1233.25
 10
1097.5
 20
1232.75
 10
1097.5
 20
1232.25
 10
1097.75
 20
1231.5
 10
1104.25
 20
1192.5
 10
1104.5
 20
1192.0
 10
1104.5
 20
1191.25
 10
1104.75
 20
1190.75
 10
1105.0
 20
1190.25
 10
1105.0
 20
1190.0
 10
1105.25
 20
1189.5
 10
1105.5
 20
1189.0
 10
1106.0
 20
1188.5
 10
1106.25
 20
1188.0
 10
1106.5
 20
1187.75
 10
1106.75
 20
1187.25
 10
1107.25
 20
1187.0
 10
1107.75
 20
1186.5
 10
1108.0
 20
1186.25
 10
1108.5
 20
1186.0
 10
1109.0
 20
1185.5
 10
1109.25
 20
1185.25
 10
1109.75
 20
1185.0
 10
1110.25
 20
1184.75
 10
1110.75
 20
1184.75
 10
1111.25
 20
1184.5
 10
1111.75
 20
1184.25
 10
1112.25
 20
1184.25
 10
1112.75
 20
1184.25
 10
1113.5
 20
1184.0
 10
1114.0
 20
1184.0
 10
1114.5
 20
1184.0
 10
1115.0
 20
1184.0
 10
1115.5
 20
1184.25
 10
1116.0
 20
1184.25
 10
1116.5
 20
1184.25
 10
1154.25
 20
1193.5
 10
1154.5
 20
1193.5
 10
1154.75
 20
1193.5
 10
1155.0
 20
1193.5
 10
1155.25
 20
1193.5
 10
1155.5
 20
1193.5
 10
1155.75
 20
1193.5
 10
1156.0
 20
1193.5
 10
1156.25
 20
1193.5
 10
1156.5
 20
1193.5
 10
1156.75
 20
1193.25
 10
1157.0
 20
1193.25
 10
1157.25
 20
1193.0
 10
1157.5
 20
1193.0
 10
1157.75
 20
1192.75
 10
1158.0
 20
1192.5
 10
1158.25
 20
1192.5
 10
1158.25
 20
1192.25
 10
1158.5
 20
1192.0
 10
1158.75
 20
1191.75
 10
1158.75
 20
1191.5
 10
1159.0
 20
1191.25
 10
1159.0
 20
1191.0
 10
1159.0
 20
1190.75
 10
1159.25
 20
1190.5
 10
1159.25
 20
1190.25
 10
1159.25
 20
1190.0
 10
1166.0
 20
1142.25
 10
1166.0
 20
1142.0
 10
1166.0
 20
1141.75
 10
1166.0
 20
1141.5
 10
1166.0
 20
1141.25
 10
1166.0
 20
1141.0
 10
1166.0
 20
1140.75
 10
1166.0
 20
1140.5
 10
1165.75
 20
1140.25
 10
1165.75
 20
1140.0
 10
1165.5
 20
1139.75
 10
1165.5
 20
1139.5
 10
1165.25
 20
1139.25
 10
1165.0
 20
1139.0
 10
1165.0
 20
1138.75
 10
1164.75
 20
1138.75
 10
1164.75
 20
1138.5
 10
1164.5
 20
1138.5
 10
1164.25
 20
1138.25
 10
1164.0
 20
1138.0
 10
1163.75
 20
1138.0
 10
1163.5
 20
1138.0
 10
1163.25
 20
1137.75
 10
1162.25
 20
1137.5
 10
1161.75
 20
1137.25
 10
1161.5
 20
1137.25
 10
1161.25
 20
1137.0
 10
1161.0
 20
1137.0
 10
1160.75
 20
1136.75
 10
1160.5
 20
1136.5
 10
1160.25
 20
1136.25
 10
1160.0
 20
1136.0
 10
1159.75
 20
1136.0
 10
1159.5
 20
1135.75
 10
1159.25
 20
1135.5
 10
1159.25
 20
1135.25
 10
1159.0
 20
1135.0
 10
1158.75
 20
1134.5
 10
1158.75
 20
1134.25
 10
1158.5
 20
1134.0
 10
1158.5
 20
1133.75
 10
1158.25
 20
1133.5
 10
1158.25
 20
1133.25
 10
1158.25
 20
1132.75
 10
1158.25
 20
1132.5
 10
1158.0
 20
1132.25
 10
1158.0
 20
1131.75
 10
1158.0
 20
1131.5
 10
1158.0
 20
1131.25
 10
1158.25
 20
1131.0
 10
1158.25
 20
1130.5
 10
1162.5
 20
1108.5
 10
1162.5
 20
1108.25
 10
1162.5
 20
1108.0
 10
1162.75
 20
1107.75
 10
1162.75
 20
1107.5
 10
1163.0
 20
1107.25
 10
1163.0
 20
1107.0
 10
1163.25
 20
1107.0
 10
1163.25
 20
1106.75
 10
1163.5
 20
1106.5
 10
1163.75
 20
1106.25
 10
1163.75
 20
1106.0
 10
1164.0
 20
1105.75
 10
1164.25
 20
1105.75
 10
1164.5
 20
1105.5
 10
1164.75
 20
1105.25
 10
1165.0
 20
1105.25
 10
1165.25
 20
1105.0
 10
1165.5
 20
1105.0
 10
1165.75
 20
1105.0
 10
1166.0
 20
1104.75
 10
1166.25
 20
1104.75
 10
1166.5
 20
1104.75
 10
1166.75
 20
1104.75
 10
1167.0
 20
1104.5
 10
1167.25
 20
1104.5
 10
1167.5
 20
1104.5
 10
1167.75
 20
1104.5
 10
1168.0
 20
1104.5
 10
1175.5
 20
1105.5
 10
1175.75
 20
1105.5
 10
1176.0
 20
1105.5
 10
1176.25
 20
1105.5
 10
1176.5
 20
1105.5
 10
1176.75
 20
1105.5
 10
1177.0
 20
1105.5
 10
1177.25
 20
1105.5
 10
1177.5
 20
1105.5
 10
1177.75
 20
1105.25
 10
1178.0
 20
1105.25
 10
1178.25
 20
1105.0
 10
1178.5
 20
1105.0
 10
1178.75
 20
1104.75
 10
1179.0
 20
1104.75
 10
1179.25
 20
1104.5
 10
1179.5
 20
1104.5
 10
1179.5
 20
1104.25
 10
1179.75
 20
1104.0
 10
1180.0
 20
1103.75
 10
1180.0
 20
1103.5
 10
1180.25
 20
1103.5
 10
1180.5
 20
1103.25
 10
1180.5
 20
1103.0
 10
1180.75
 20
1102.75
 10
1180.75
 20
1102.5
 10
1180.75
 20
1102.25
 10
1181.0
 20
1102.0
 10
1181.0
 20
1101.75
 10
1181.0
 20
1101.5
 10
1181.0
 20
1101.25
 10
1185.0
 20
1067.0
 10
1185.0
 20
1066.75
 10
1185.0
 20
1066.5
 10
1185.0
 20
1066.25
 10
1185.0
 20
1066.0
 10
1185.0
 20
1065.75
 10
1184.75
 20
1065.5
 10
1184.75
 20
1065.25
 10
1184.75
 20
1065.0
 10
1184.75
 20
1064.75
 10
1184.5
 20
1064.75
 10
1184.5
 20
1064.5
 10
1184.25
 20
1064.25
 10
1184.25
 20
1064.0
 10
1184.0
 20
1064.0
 10
1184.0
 20
1063.75
 10
1183.75
 20
1063.5
 10
1183.5
 20
1063.25
 10
1183.25
 20
1063.25
 10
1183.25
 20
1063.0
 10
1183.0
 20
1063.0
 10
1182.75
 20
1063.0
 10
1182.5
 20
1062.75
 10
1182.25
 20
1062.75
 10
1182.0
 20
1062.5
 10
1181.75
 20
1062.5
 10
1146.25
 20
1055.0
 10
1145.75
 20
1054.75
 10
1145.25
 20
1054.75
 10
1144.75
 20
1054.5
 10
1144.25
 20
1054.25
 10
1143.75
 20
1054.0
 10
1143.25
 20
1053.75
 10
1142.75
 20
1053.5
 10
1142.5
 20
1053.25
 10
1142.0
 20
1053.0
 10
1141.5
 20
1052.5
 10
1141.25
 20
1052.25
 10
1140.75
 20
1051.75
 10
1140.5
 20
1051.5
 10
1140.25
 20
1051.0
 10
1140.0
 20
1050.5
 10
1139.75
 20
1050.0
 10
1139.5
 20
1049.5
 10
1139.25
 20
1049.0
 10
1139.0
 20
1048.5
 10
1138.75
 20
1048.0
 10
1138.75
 20
1047.5
 10
1138.5
 20
1047.0
 10
1138.5
 20
1046.5
 10
1138.5
 20
1046.0
 10
1138.25
 20
1045.5
 10
1138.25
 20
1045.0
 10
1138.25
 20
1044.5
 10
1138.5
 20
1044.0
 10
1138.5
 20
1043.5
 10
1138.5
 20
1043.0
 10
1144.75
 20
1016.5
 10
1144.75
 20
1016.0
 10
1144.75
 20
1015.5
 10
1145.0
 20
1015.0
 10
1145.0
 20
1014.25
 10
1145.0
 20
1013.75
 10
1145.0
 20
1013.25
 10
1144.75
 20
1012.75
 10
1144.75
 20
1012.25
 10
1144.5
 20
1011.75
 10
1144.5
 20
1011.25
 10
1144.25
 20
1010.75
 10
1144.0
 20
1010.25
 10
1143.75
 20
1009.75
 10
1143.5
 20
1009.25
 10
1143.25
 20
1008.75
 10
1143.0
 20
1008.25
 10
1142.75
 20
1008.0
 10
1142.25
 20
1007.5
 10
1142.0
 20
1007.25
 10
1141.5
 20
1006.75
 10
1141.25
 20
1006.5
 10
1140.75
 20
1006.0
 10
1140.25
 20
1005.75
 10
1139.75
 20
1005.5
 10
1139.5
 20
1005.25
 10
1139.0
 20
1005.0
 10
1138.5
 20
1004.75
 10
1138.0
 20
1004.75
 10
1137.5
 20
1004.5
 10
1136.75
 20
1004.5
 10
1136.25
 20
1004.25
 10
1135.75
 20
1004.25
 10
1135.25
 20
1004.25
 10
1134.75
 20
1004.25
 10
1134.25
 20
1004.25
 10
952.75
 20
1017.5
 10
952.5
 20
1017.5
 10
952.25
 20
1017.5
 10
952.0
 20
1017.75
 10
951.75
 20
1017.75
 10
951.5
 20
1017.75
 10
951.25
 20
1018.0
 10
951.0
 20
1018.0
 10
950.75
 20
1018.25
 10
950.5
 20
1018.25
 10
950.5
 20
1018.5
 10
950.25
 20
1018.5
 10
950.0
 20
1018.75
 10
949.75
 20
1019.0
 10
949.75
 20
1019.25
 10
949.5
 20
1019.25
 10
949.5
 20
1019.5
 10
949.25
 20
1019.75
 10
949.25
 20
1020.0
 10
949.25
 20
1020.25
 10
949.0
 20
1020.25
 10
949.0
 20
1020.5
 10
949.0
 20
1020.75
 10
943.0
 20
1052.0
 10
943.0
 20
1052.25
 10
943.0
 20
1052.5
 10
943.0
 20
1052.75
 10
943.0
 20
1053.25
 10
943.0
 20
1053.5
 10
943.0
 20
1053.75
 10
943.0
 20
1054.0
 10
943.0
 20
1054.5
 10
943.25
 20
1054.75
 10
943.25
 20
1055.0
 10
943.25
 20
1055.25
 10
943.5
 20
1055.5
 10
943.75
 20
1056.0
 10
943.75
 20
1056.25
 10
944.0
 20
1056.5
 10
944.25
 20
1056.75
 10
944.25
 20
1057.0
 10
944.5
 20
1057.25
 10
944.75
 20
1057.5
 10
945.0
 20
1057.5
 10
945.25
 20
1057.75
 10
945.5
 20
1058.0
 10
945.75
 20
1058.25
 10
946.0
 20
1058.25
 10
946.25
 20
1058.5
 10
946.5
 20
1058.5
 10
947.0
 20
1058.75
 10
947.25
 20
1058.75
 10
947.5
 20
1058.75
 10
947.75
 20
1059.0
 10
972.5
 20
1063.75
 10
973.0
 20
1063.75
 10
973.25
 20
1063.75
 10
973.5
 20
1064.0
 10
973.75
 20
1064.0
 10
974.0
 20
1064.25
 10
974.25
 20
1064.25
 10
974.75
 20
1064.5
 10
975.0
 20
1064.5
 10
975.25
 20
1064.75
 10
975.5
 20
1065.0
 10
975.75
 20
1065.25
 10
975.75
 20
1065.5
 10
976.0
 20
1065.75
 10
976.25
 20
1066.0
 10
976.5
 20
1066.25
 10
976.5
 20
1066.5
 10
976.75
 20
1066.75
 10
977.0
 20
1067.0
 10
977.0
 20
1067.25
 10
977.25
 20
1067.5
 10
977.25
 20
1068.0
 10
977.25
 20
1068.25
 10
977.5
 20
1068.5
 10
977.5
 20
1068.75
 10
977.5
 20
1069.25
 10
977.5
 20
1069.5
 10
977.5
 20
1069.75
 10
977.5
 20
1070.0
 10
977.5
 20
1070.5
 10
977.25
 20
1070.75
  0
LWPOLYLINE
  5
4D
330
17
100
AcDbEntity
  8
PART_51-12725
100
AcDbPolyline
 90
13
 70
1
 10
86.0
 20
1249.75
 10
0.0
 20
1249.75
 10
0.0
 20
1408.75
 10
35.0
 20
1408.75
 10
35.0
 20
1486.75
 10
0.0
 20
1486.75
 10
0.0
 20
1559.75
 10
35.0
 20
1559.75
 10
35.0
 20
1629.75
 10
0.0
 20
1629.75
 10
0.0
 20
1738.75
 10
86.0
 20
1738.75
 10
86.0
 20
1249.75
  0
LWPOLYLINE
  5
4F
330
17
100
AcDbEntity
  8
PART_51-13899
100
AcDbPolyline
 90
493
 70
1
 10
597.75
 20
1287.0
 10
586.5
 20
1289.75
 10
575.0
 20
1292.75
 10
563.75
 20
1295.5
 10
552.5
 20
1298.25
 10
541.0
 20
1301.0
 10
529.75
 20
1303.75
 10
518.25
 20
1306.5
 10
507.0
 20
1309.0
 10
495.75
 20
1311.75
 10
484.25
 20
1314.25
 10
473.0
 20
1317.0
 10
461.5
 20
1319.5
 10
450.0
 20
1322.0
 10
438.75
 20
1324.5
 10
427.25
 20
1327.0
 10
416.0
 20
1329.5
 10
404.5
 20
1331.75
 10
393.0
 20
1334.25
 10
381.75
 20
1336.5
 10
370.25
 20
1339.0
 10
358.75
 20
1341.25
 10
347.25
 20
1343.5
 10
336.0
 20
1345.75
 10
324.5
 20
1348.0
 10
318.0
 20
1349.25
 10
311.5
 20
1350.75
 10
305.0
 20
1352.0
 10
298.75
 20
1353.5
 10
292.25
 20
1354.75
 10
285.75
 20
1356.25
 10
279.25
 20
1357.5
 10
272.75
 20
1359.0
 10
266.5
 20
1360.25
 10
260.0
 20
1361.75
 10
253.5
 20
1363.0
 10
247.0
 20
1364.25
 10
240.5
 20
1365.75
 10
234.0
 20
1367.0
 10
227.75
 20
1368.5
 10
221.25
 20
1369.75
 10
214.75
 20
1371.0
 10
208.25
 20
1372.25
 10
201.75
 20
1373.75
 10
195.25
 20
1375.0
 10
189.0
 20
1376.25
 10
182.5
 20
1377.5
 10
176.0
 20
1379.0
 10
169.5
 20
1380.25
 10
168.5
 20
1380.5
 10
167.75
 20
1380.75
 10
166.75
 20
1381.0
 10
166.0
 20
1381.25
 10
165.0
 20
1381.75
 10
164.25
 20
1382.25
 10
163.5
 20
1382.75
 10
162.5
 20
1383.25
 10
161.75
 20
1383.75
 10
161.0
 20
1384.25
 10
160.5
 20
1385.0
 10
159.75
 20
1385.75
 10
159.25
 20
1386.5
 10
158.5
 20
1387.25
 10
158.0
 20
1388.0
 10
157.5
 20
1388.75
 10
157.0
 20
1389.5
 10
156.75
 20
1390.5
 10
156.25
 20
1391.25
 10
156.0
 20
1392.25
 10
155.75
 20
1393.0
 10
155.5
 20
1394.0
 10
155.25
 20
1395.0
 10
155.25
 20
1395.75
 10
155.0
 20
1396.75
 10
155.0
 20
1397.75
 10
155.0
 20
1398.75
 10
155.0
 20
1399.5
 10
155.25
 20
1400.5
 10
155.5
 20
1401.5
 10
169.0
 20
1468.25
 10
169.25
 20
1469.25
 10
169.5
 20
1470.25
 10
170.0
 20
1471.25
 10
170.25
 20
1472.25
 10
170.75
 20
1473.0
 10
171.25
 20
1474.0
 10
171.75
 20
1474.75
 10
172.25
 20
1475.75
 10
173.0
 20
1476.5
 10
173.75
 20
1477.25
 10
174.25
 20
1478.0
 10
175.0
 20
1478.75
 10
176.0
 20
1479.25
 10
176.75
 20
1480.0
 10
177.5
 20
1480.5
 10
178.5
 20
1481.0
 10
179.25
 20
1481.5
 10
180.25
 20
1482.0
 10
181.25
 20
1482.25
 10
182.25
 20
1482.75
 10
183.25
 20
1483.0
 10
184.25
 20
1483.25
 10
185.25
 20
1483.25
 10
186.25
 20
1483.5
 10
187.25
 20
1483.5
 10
188.25
 20
1483.5
 10
189.25
 20
1483.5
 10
190.25
 20
1483.25
 10
191.25
 20
1483.25
 10
192.25
 20
1483.0
 10
199.0
 20
1481.25
 10
205.5
 20
1479.75
 10
212.25
 20
1478.0
 10
219.0
 20
1476.5
 10
225.75
 20
1475.0
 10
232.5
 20
1473.5
 10
239.25
 20
1471.75
 10
245.75
 20
1470.25
 10
252.5
 20
1468.75
 10
259.25
 20
1467.5
 10
266.0
 20
1466.0
 10
272.75
 20
1464.5
 10
279.5
 20
1463.0
 10
286.25
 20
1461.75
 10
293.0
 20
1460.25
 10
299.75
 20
1459.0
 10
306.5
 20
1457.5
 10
313.25
 20
1456.25
 10
320.0
 20
1455.0
 10
326.75
 20
1453.5
 10
333.5
 20
1452.25
 10
340.25
 20
1451.0
 10
347.0
 20
1449.75
 10
353.75
 20
1448.5
 10
363.5
 20
1446.5
 10
373.25
 20
1444.5
 10
383.0
 20
1442.75
 10
392.75
 20
1440.75
 10
402.5
 20
1438.5
 10
412.25
 20
1436.5
 10
421.75
 20
1434.5
 10
431.5
 20
1432.5
 10
441.25
 20
1430.5
 10
451.0
 20
1428.5
 10
460.75
 20
1426.25
 10
470.5
 20
1424.25
 10
480.0
 20
1422.0
 10
489.75
 20
1420.0
 10
499.5
 20
1418.0
 10
509.25
 20
1415.75
 10
518.75
 20
1413.5
 10
528.5
 20
1411.5
 10
538.25
 20
1409.25
 10
548.0
 20
1407.0
 10
557.5
 20
1405.0
 10
567.25
 20
1402.75
 10
577.0
 20
1400.5
 10
586.5
 20
1398.25
 10
587.0
 20
1398.25
 10
587.5
 20
1398.0
 10
588.0
 20
1398.0
 10
588.5
 20
1398.0
 10
589.25
 20
1398.0
 10
589.75
 20
1398.0
 10
590.25
 20
1398.25
 10
590.75
 20
1398.25
 10
591.25
 20
1398.25
 10
591.75
 20
1398.5
 10
592.25
 20
1398.5
 10
592.75
 20
1398.75
 10
593.0
 20
1399.0
 10
593.5
 20
1399.25
 10
594.0
 20
1399.5
 10
594.5
 20
1399.75
 10
595.0
 20
1400.0
 10
595.25
 20
1400.5
 10
595.75
 20
1400.75
 10
596.0
 20
1401.0
 10
596.5
 20
1401.5
 10
596.75
 20
1402.0
 10
597.0
 20
1402.25
 10
597.25
 20
1402.75
 10
664.0
 20
1509.5
 10
664.0
 20
1509.75
 10
664.25
 20
1510.0
 10
664.5
 20
1510.25
 10
664.75
 20
1510.5
 10
664.75
 20
1510.75
 10
665.0
 20
1511.0
 10
665.25
 20
1511.25
 10
665.5
 20
1511.5
 10
665.75
 20
1511.5
 10
665.75
 20
1511.75
 10
666.0
 20
1512.0
 10
666.25
 20
1512.25
 10
666.5
 20
1512.25
 10
666.75
 20
1512.5
 10
667.0
 20
1512.75
 10
667.25
 20
1512.75
 10
667.5
 20
1513.0
 10
667.75
 20
1513.0
 10
668.0
 20
1513.25
 10
668.25
 20
1513.5
 10
668.5
 20
1513.5
 10
669.0
 20
1513.5
 10
669.25
 20
1513.75
 10
669.5
 20
1513.75
 10
925.75
 20
1594.0
 10
926.75
 20
1594.25
 10
927.75
 20
1594.5
 10
928.75
 20
1594.75
 10
929.75
 20
1594.75
 10
930.75
 20
1594.75
 10
931.75
 20
1594.75
 10
932.75
 20
1594.75
 10
933.75
 20
1594.75
 10
934.75
 20
1594.5
 10
935.75
 20
1594.25
 10
936.75
 20
1594.0
 10
937.75
 20
1593.75
 10
938.75
 20
1593.25
 10
939.75
 20
1593.0
 10
940.5
 20
1592.5
 10
941.5
 20
1592.0
 10
942.25
 20
1591.25
 10
943.25
 20
1590.75
 10
944.0
 20
1590.0
 10
944.75
 20
1589.5
 10
945.5
 20
1588.75
 10
946.0
 20
1587.75
 10
946.75
 20
1587.0
 10
947.25
 20
1586.25
 10
947.75
 20
1585.25
 10
948.25
 20
1584.5
 10
948.75
 20
1583.5
 10
949.25
 20
1582.5
 10
949.5
 20
1581.5
 10
985.25
 20
1467.0
 10
985.5
 20
1466.75
 10
985.5
 20
1466.5
 10
985.75
 20
1466.25
 10
985.75
 20
1465.75
 10
985.75
 20
1465.5
 10
986.0
 20
1465.25
 10
986.0
 20
1465.0
 10
986.25
 20
1464.75
 10
986.25
 20
1464.5
 10
986.5
 20
1464.25
 10
986.5
 20
1464.0
 10
986.75
 20
1463.75
 10
986.75
 20
1463.5
 10
987.0
 20
1463.25
 10
987.25
 20
1463.0
 10
987.25
 20
1462.75
 10
987.5
 20
1462.5
 10
987.5
 20
1462.25
 10
987.75
 20
1462.0
 10
988.0
 20
1461.75
 10
988.0
 20
1461.5
 10
988.25
 20
1461.25
 10
988.5
 20
1461.0
 10
988.75
 20
1460.75
 10
994.0
 20
1454.0
 10
999.25
 20
1447.5
 10
1004.5
 20
1440.75
 10
1010.0
 20
1434.0
 10
1015.25
 20
1427.5
 10
1020.75
 20
1420.75
 10
1026.0
 20
1414.0
 10
1031.25
 20
1407.5
 10
1036.75
 20
1400.75
 10
1042.0
 20
1394.25
 10
1047.5
 20
1387.5
 10
1052.75
 20
1381.0
 10
1058.25
 20
1374.25
 10
1063.75
 20
1367.75
 10
1069.0
 20
1361.0
 10
1074.5
 20
1354.5
 10
1080.0
 20
1348.0
 10
1085.25
 20
1341.25
 10
1090.75
 20
1334.75
 10
1096.25
 20
1328.25
 10
1101.75
 20
1321.5
 10
1107.25
 20
1315.0
 10
1112.75
 20
1308.5
 10
1118.25
 20
1302.0
 10
1118.5
 20
1301.5
 10
1118.75
 20
1301.0
 10
1119.0
 20
1300.75
 10
1119.25
 20
1300.25
 10
1119.5
 20
1299.75
 10
1119.75
 20
1299.25
 10
1120.0
 20
1298.75
 10
1120.0
 20
1298.25
 10
1120.25
 20
1297.75
 10
1120.25
 20
1297.25
 10
1120.5
 20
1296.75
 10
1120.5
 20
1296.25
 10
1120.5
 20
1295.75
 10
1120.5
 20
1295.0
 10
1120.5
 20
1294.5
 10
1120.25
 20
1294.0
 10
1120.25
 20
1293.5
 10
1120.25
 20
1293.0
 10
1120.0
 20
1292.5
 10
1119.75
 20
1292.0
 10
1119.75
 20
1291.5
 10
1119.5
 20
1291.0
 10
1119.25
 20
1290.5
 10
1119.0
 20
1290.25
 10
1118.5
 20
1289.75
 10
1118.25
 20
1289.25
 10
1118.0
 20
1289.0
 10
1117.5
 20
1288.5
 10
1117.25
 20
1288.25
 10
1116.75
 20
1287.75
 10
1116.25
 20
1287.5
 10
1116.0
 20
1287.25
 10
1115.5
 20
1287.0
 10
1115.0
 20
1286.75
 10
1114.5
 20
1286.5
 10
1114.0
 20
1286.25
 10
1113.5
 20
1286.0
 10
1113.0
 20
1286.0
 10
1108.25
 20
1284.5
 10
1103.75
 20
1283.25
 10
1099.0
 20
1282.0
 10
1094.25
 20
1280.75
 10
1089.75
 20
1279.25
 10
1085.0
 20
1278.0
 10
1080.25
 20
1276.75
 10
1075.5
 20
1275.25
 10
1071.0
 20
1274.0
 10
1066.25
 20
1272.5
 10
1061.75
 20
1271.0
 10
1057.0
 20
1269.75
 10
1052.25
 20
1268.25
 10
1047.75
 20
1266.75
 10
1043.0
 20
1265.25
 10
1038.5
 20
1263.75
 10
1033.75
 20
1262.25
 10
1029.25
 20
1260.75
 10
1024.5
 20
1259.25
 10
1020.0
 20
1257.75
 10
1015.25
 20
1256.25
 10
1010.75
 20
1254.5
 10
1006.25
 20
1253.0
 10
1001.5
 20
1251.5
 10
1000.75
 20
1251.0
 10
999.75
 20
1250.75
 10
998.75
 20
1250.75
 10
997.75
 20
1250.5
 10
996.75
 20
1250.25
 10
995.75
 20
1250.25
 10
994.75
 20
1250.25
 10
993.75
 20
1250.25
 10
992.75
 20
1250.5
 10
991.75
 20
1250.5
 10
991.0
 20
1250.75
 10
990.0
 20
1251.0
 10
989.0
 20
1251.25
 10
988.0
 20
1251.5
 10
987.25
 20
1252.0
 10
986.25
 20
1252.25
 10
985.5
 20
1252.75
 10
984.5
 20
1253.25
 10
983.75
 20
1253.75
 10
983.0
 20
1254.25
 10
982.25
 20
1255.0
 10
981.5
 20
1255.5
 10
980.75
 20
1256.25
 10
980.0
 20
1257.0
 10
908.5
 20
1337.75
 10
908.0
 20
1338.25
 10
907.5
 20
1338.75
 10
906.75
 20
1339.25
 10
906.25
 20
1339.5
 10
905.75
 20
1340.0
 10
905.0
 20
1340.5
 10
904.5
 20
1340.75
 10
903.75
 20
1341.0
 10
903.25
 20
1341.5
 10
902.5
 20
1341.75
 10
901.75
 20
1342.0
 10
901.0
 20
1342.25
 10
900.5
 20
1342.25
 10
899.75
 20
1342.5
 10
899.0
 20
1342.5
 10
898.25
 20
1342.75
 10
897.5
 20
1342.75
 10
896.75
 20
1342.75
 10
896.0
 20
1342.75
 10
895.25
 20
1342.5
 10
894.75
 20
1342.5
 10
894.0
 20
1342.25
 10
893.25
 20
1342.25
 10
892.5
 20
1342.0
 10
770.25
 20
1301.75
 10
769.5
 20
1301.75
 10
769.0
 20
1301.5
 10
768.25
 20
1301.5
 10
767.75
 20
1301.25
 10
767.0
 20
1301.25
 10
766.5
 20
1301.25
 10
765.75
 20
1301.25
 10
765.25
 20
1301.25
 10
764.5
 20
1301.5
 10
764.0
 20
1301.5
 10
763.25
 20
1301.75
 10
762.75
 20
1301.75
 10
762.0
 20
1302.0
 10
761.5
 20
1302.25
 10
761.0
 20
1302.5
 10
760.5
 20
1303.0
 10
759.75
 20
1303.25
 10
759.25
 20
1303.5
 10
758.75
 20
1304.0
 10
758.25
 20
1304.5
 10
758.0
 20
1304.75
 10
757.5
 20
1305.25
 10
757.0
 20
1305.75
 10
756.75
 20
1306.25
 10
756.25
 20
1306.75
 10
756.0
 20
1307.25
 10
755.75
 20
1308.0
 10
755.5
 20
1308.5
 10
755.25
 20
1309.0
 10
755.0
 20
1309.75
 10
729.0
 20
1393.25
 10
728.75
 20
1393.75
 10
728.5
 20
1394.5
 10
728.25
 20
1395.0
 10
728.0
 20
1395.5
 10
727.75
 20
1396.0
 10
727.25
 20
1396.75
 10
727.0
 20
1397.25
 10
726.5
 20
1397.75
 10
726.0
 20
1398.0
 10
725.5
 20
1398.5
 10
725.0
 20
1399.0
 10
724.5
 20
1399.25
 10
724.0
 20
1399.75
 10
723.5
 20
1400.0
 10
723.0
 20
1400.25
 10
722.25
 20
1400.75
 10
721.75
 20
1400.75
 10
721.0
 20
1401.0
 10
720.5
 20
1401.25
 10
719.75
 20
1401.5
 10
719.25
 20
1401.5
 10
718.5
 20
1401.5
 10
718.0
 20
1401.5
 10
717.25
 20
1401.5
 10
716.75
 20
1401.5
 10
716.0
 20
1401.5
 10
715.5
 20
1401.5
 10
714.75
 20
1401.25
 10
714.25
 20
1401.25
 10
713.5
 20
1401.0
 10
713.0
 20
1400.75
 10
712.25
 20
1400.5
 10
711.75
 20
1400.25
 10
711.25
 20
1399.75
 10
710.75
 20
1399.5
 10
710.25
 20
1399.0
 10
709.75
 20
1398.75
 10
709.25
 20
1398.25
 10
708.75
 20
1397.75
 10
609.5
 20
1290.5
 10
609.0
 20
1290.0
 10
608.75
 20
1289.75
 10
608.25
 20
1289.5
 10
608.0
 20
1289.0
 10
607.5
 20
1288.75
 10
607.0
 20
1288.5
 10
606.5
 20
1288.25
 10
606.0
 20
1288.0
 10
605.5
 20
1287.75
 10
605.0
 20
1287.5
 10
604.5
 20
1287.25
 10
604.0
 20
1287.25
 10
603.5
 20
1287.0
 10
603.0
 20
1287.0
 10
602.5
 20
1286.75
 10
602.0
 20
1286.75
 10
601.5
 20
1286.75
 10
601.0
 20
1286.75
 10
600.25
 20
1286.75
 10
599.75
 20
1286.75
 10
599.25
 20
1286.75
 10
598.75
 20
1286.75
 10
598.25
 20
1287.0
 10
597.75
 20
1287.0
  0
LWPOLYLINE
  5
50
330
17
100
AcDbEntity
  8
HOLES
100
AcDbPolyline
 90
123
 70
1
 10
1014.5
 20
1361.25
 10
999.5
 20
1408.25
 10
999.5
 20
1408.75
 10
999.25
 20
1409.25
 10
999.0
 20
1409.75
 10
998.75
 20
1410.25
 10
998.5
 20
1410.75
 10
998.0
 20
1411.25
 10
997.75
 20
1411.75
 10
997.5
 20
1412.0
 10
997.0
 20
1412.5
 10
996.75
 20
1412.75
 10
996.25
 20
1413.25
 10
995.75
 20
1413.5
 10
995.25
 20
1413.75
 10
995.0
 20
1414.0
 10
994.5
 20
1414.25
 10
994.0
 20
1414.5
 10
993.5
 20
1414.75
 10
993.0
 20
1415.0
 10
992.25
 20
1415.0
 10
991.75
 20
1415.25
 10
991.25
 20
1415.25
 10
990.75
 20
1415.25
 10
990.25
 20
1415.25
 10
989.75
 20
1415.25
 10
989.25
 20
1415.25
 10
988.5
 20
1415.25
 10
988.0
 20
1415.25
 10
987.5
 20
1415.0
 10
987.0
 20
1415.0
 10
939.75
 20
1400.0
 10
939.25
 20
1399.75
 10
938.75
 20
1399.75
 10
938.25
 20
1399.5
 10
938.0
 20
1399.25
 10
937.5
 20
1399.0
 10
937.0
 20
1398.5
 10
936.5
 20
1398.25
 10
936.25
 20
1398.0
 10
935.75
 20
1397.5
 10
935.5
 20
1397.25
 10
935.0
 20
1396.75
 10
934.75
 20
1396.5
 10
934.5
 20
1396.0
 10
934.25
 20
1395.5
 10
934.0
 20
1395.0
 10
933.75
 20
1394.5
 10
933.5
 20
1394.25
 10
933.25
 20
1393.75
 10
933.25
 20
1393.25
 10
933.0
 20
1392.75
 10
933.0
 20
1392.0
 10
933.0
 20
1391.5
 10
932.75
 20
1391.0
 10
932.75
 20
1390.5
 10
932.75
 20
1390.0
 10
932.75
 20
1389.5
 10
933.0
 20
1389.0
 10
933.0
 20
1388.5
 10
933.25
 20
1388.0
 10
933.25
 20
1387.5
 10
948.25
 20
1340.25
 10
948.25
 20
1339.75
 10
948.5
 20
1339.25
 10
948.75
 20
1338.75
 10
949.0
 20
1338.25
 10
949.25
 20
1337.75
 10
949.5
 20
1337.25
 10
950.0
 20
1337.0
 10
950.25
 20
1336.5
 10
950.75
 20
1336.25
 10
951.0
 20
1335.75
 10
951.5
 20
1335.5
 10
952.0
 20
1335.0
 10
952.25
 20
1334.75
 10
952.75
 20
1334.5
 10
953.25
 20
1334.25
 10
953.75
 20
1334.0
 10
954.25
 20
1333.75
 10
954.75
 20
1333.75
 10
955.25
 20
1333.5
 10
956.0
 20
1333.5
 10
956.5
 20
1333.25
 10
957.0
 20
1333.25
 10
957.5
 20
1333.25
 10
958.0
 20
1333.25
 10
958.5
 20
1333.25
 10
959.0
 20
1333.25
 10
959.75
 20
1333.5
 10
960.25
 20
1333.5
 10
960.75
 20
1333.75
 10
1008.0
 20
1348.5
 10
1008.5
 20
1348.75
 10
1009.0
 20
1349.0
 10
1009.25
 20
1349.25
 10
1009.75
 20
1349.5
 10
1010.25
 20
1349.75
 10
1010.75
 20
1350.0
 10
1011.25
 20
1350.25
 10
1011.5
 20
1350.75
 10
1012.0
 20
1351.0
 10
1012.25
 20
1351.5
 10
1012.5
 20
1351.75
 10
1013.0
 20
1352.25
 10
1013.25
 20
1352.5
 10
1013.5
 20
1353.0
 10
1013.75
 20
1353.5
 10
1014.0
 20
1354.0
 10
1014.25
 20
1354.5
 10
1014.5
 20
1355.0
 10
1014.5
 20
1355.5
 10
1014.75
 20
1356.0
 10
1014.75
 20
1356.5
 10
1014.75
 20
1357.0
 10
1015.0
 20
1357.5
 10
1015.0
 20
1358.0
 10
1015.0
 20
1358.5
 10
1014.75
 20
1359.0
 10
1014.75
 20
1359.5
 10
1014.75
 20
1360.25
 10
1014.5
 20
1360.75
 10
1014.5
 20
1361.25
  0
LWPOLYLINE
  5
51
330
17
100
AcDbEntity
  8
PART_51-12328
100
AcDbPolyline
 90
30
 70
1
 10
1200.0
 20
1702.38
 10
1200.0
 20
1305.12
 10
1120.0
 20
1305.12
 10
1120.0
 20
1644.12
 10
1122.0
 20
1645.12
 10
1123.75
 20
1645.88
 10
1125.75
 20
1646.88
 10
1127.5
 20
1647.88
 10
1129.5
 20
1648.88
 10
1131.25
 20
1649.88
 10
1133.0
 20
1651.12
 10
1134.75
 20
1652.12
 10
1136.5
 20
1653.12
 10
1138.25
 20
1654.38
 10
1140.0
 20
1655.62
 10
1141.75
 20
1656.62
 10
1143.5
 20
1657.88
 10
1145.25
 20
1659.12
 10
1146.75
 20
1660.38
 10
1148.5
 20
1661.62
 10
1150.25
 20
1662.88
 10
1151.75
 20
1664.38
 10
1153.25
 20
1665.62
 10
1155.0
 20
1667.12
 10
1156.5
 20
1668.38
 10
1158.0
 20
1669.88
 10
1159.5
 20
1671.38
 10
1161.0
 20
1672.62
 10
1189.25
 20
1700.38
 10
1200.0
 20
1702.38
  0
LWPOLYLINE
  5
52
330
17
100
AcDbEntity
  8
HOLES
100
AcDbPolyline
 90
64
 70
1
 10
1175.25
 20
1630.88
 10
1146.75
 20
1644.12
 10
1140.75
 20
1631.12
 10
1140.25
 20
1630.38
 10
1140.0
 20
1629.62
 10
1139.75
 20
1628.62
 10
1139.5
 20
1627.88
 10
1139.5
 20
1627.12
 10
1139.25
 20
1626.38
 10
1139.25
 20
1625.38
 10
1139.25
 20
1624.62
 10
1139.25
 20
1623.88
 10
1139.25
 20
1623.12
 10
1139.25
 20
1622.12
 10
1139.5
 20
1621.38
 10
1139.75
 20
1620.62
 10
1140.0
 20
1619.88
 10
1140.25
 20
1619.12
 10
1140.5
 20
1618.12
 10
1140.75
 20
1617.38
 10
1141.25
 20
1616.88
 10
1141.5
 20
1616.12
 10
1142.0
 20
1615.38
 10
1142.5
 20
1614.62
 10
1143.0
 20
1614.12
 10
1143.5
 20
1613.38
 10
1144.25
 20
1612.88
 10
1144.75
 20
1612.38
 10
1145.5
 20
1611.88
 10
1146.25
 20
1611.38
 10
1146.75
 20
1610.88
 10
1147.5
 20
1610.38
 10
1148.25
 20
1610.12
 10
1149.0
 20
1609.88
 10
1149.75
 20
1609.38
 10
1150.5
 20
1609.12
 10
1151.5
 20
1609.12
 10
1152.25
 20
1608.88
 10
1153.0
 20
1608.62
 10
1153.75
 20
1608.62
 10
1154.75
 20
1608.62
 10
1155.5
 20
1608.62
 10
1156.25
 20
1608.62
 10
1157.25
 20
1608.88
 10
1158.0
 20
1608.88
 10
1158.75
 20
1609.12
 10
1159.5
 20
1609.38
 10
1160.25
 20
1609.62
 10
1161.0
 20
1609.88
 10
1161.75
 20
1610.12
 10
1162.5
 20
1610.62
 10
1163.25
 20
1611.12
 10
1164.0
 20
1611.38
 10
1164.75
 20
1611.88
 10
1165.25
 20
1612.38
 10
1166.0
 20
1613.12
 10
1166.5
 20
1613.62
 10
1167.0
 20
1614.12
 10
1167.5
 20
1614.88
 10
1168.0
 20
1615.62
 10
1168.5
 20
1616.38
 10
1168.75
 20
1616.88
 10
1169.25
 20
1617.62
 10
1175.25
 20
1630.88
  0
LWPOLYLINE
  5
53
330
17
100
AcDbEntity
  8
HOLES
100
AcDbPolyline
 90
65
 70
1
 10
1141.5
 20
1434.62
 10
1175.0
 20
1434.38
 10
1175.0
 20
1447.12
 10
1175.0
 20
1447.88
 10
1175.0
 20
1448.88
 10
1175.0
 20
1449.62
 10
1174.75
 20
1450.62
 10
1174.5
 20
1451.38
 10
1174.25
 20
1452.12
 10
1174.0
 20
1453.12
 10
1173.75
 20
1453.88
 10
1173.25
 20
1454.62
 10
1173.0
 20
1455.38
 10
1172.5
 20
1456.12
 10
1172.0
 20
1456.88
 10
1171.5
 20
1457.62
 10
1170.75
 20
1458.38
 10
1170.25
 20
1458.88
 10
1169.5
 20
1459.62
 10
1169.0
 20
1460.12
 10
1168.25
 20
1460.62
 10
1167.5
 20
1461.12
 10
1166.75
 20
1461.62
 10
1166.0
 20
1462.12
 10
1165.25
 20
1462.38
 10
1164.5
 20
1462.88
 10
1163.5
 20
1463.12
 10
1162.75
 20
1463.38
 10
1162.0
 20
1463.62
 10
1161.0
 20
1463.62
 10
1160.25
 20
1463.88
 10
1159.25
 20
1463.88
 10
1158.5
 20
1463.88
 10
1158.25
 20
1463.88
 10
1157.5
 20
1463.88
 10
1156.75
 20
1463.88
 10
1155.75
 20
1463.62
 10
1155.0
 20
1463.62
 10
1154.0
 20
1463.38
 10
1153.25
 20
1463.12
 10
1152.5
 20
1462.88
 10
1151.5
 20
1462.62
 10
1150.75
 20
1462.12
 10
1150.0
 20
1461.62
 10
1149.25
 20
1461.38
 10
1148.5
 20
1460.88
 10
1147.75
 20
1460.38
 10
1147.25
 20
1459.62
 10
1146.5
 20
1459.12
 10
1146.0
 20
1458.38
 10
1145.25
 20
1457.88
 10
1144.75
 20
1457.12
 10
1144.25
 20
1456.38
 10
1143.75
 20
1455.62
 10
1143.5
 20
1454.88
 10
1143.0
 20
1454.12
 10
1142.75
 20
1453.38
 10
1142.5
 20
1452.38
 10
1142.25
 20
1451.62
 10
1142.0
 20
1450.62
 10
1141.75
 20
1449.88
 10
1141.75
 20
1449.12
 10
1141.5
 20
1448.12
 10
1141.5
 20
1447.38
 10
1141.5
 20
1434.62
  0
LWPOLYLINE
  5
55
330
17
100
AcDbEntity
  8
PART_51-12721
100
AcDbPolyline
 90
132
 70
1
 10
326.5
 20
1742.88
 10
588.25
 20
1740.88
 10
778.5
 20
1694.88
 10
1037.0
 20
1709.12
 10
1040.5
 20
1628.88
 10
575.25
 20
1608.12
 10
575.0
 20
1608.12
 10
575.0
 20
1607.88
 10
574.75
 20
1607.88
 10
574.5
 20
1607.88
 10
574.25
 20
1607.88
 10
574.25
 20
1607.62
 10
574.0
 20
1607.62
 10
574.0
 20
1607.38
 10
573.75
 20
1607.38
 10
573.75
 20
1607.12
 10
573.5
 20
1607.12
 10
573.5
 20
1606.88
 10
573.5
 20
1606.62
 10
573.25
 20
1606.38
 10
573.25
 20
1606.12
 10
573.25
 20
1605.88
 10
573.25
 20
1605.62
 10
573.5
 20
1605.62
 10
573.5
 20
1605.38
 10
619.75
 20
1461.12
 10
619.75
 20
1460.88
 10
620.0
 20
1460.62
 10
620.0
 20
1460.38
 10
619.75
 20
1460.38
 10
619.75
 20
1460.12
 10
619.75
 20
1459.88
 10
619.75
 20
1459.62
 10
619.5
 20
1459.38
 10
619.5
 20
1459.12
 10
619.25
 20
1459.12
 10
619.25
 20
1458.88
 10
619.0
 20
1458.88
 10
618.75
 20
1458.88
 10
618.75
 20
1458.62
 10
618.5
 20
1458.62
 10
618.25
 20
1458.62
 10
618.0
 20
1458.62
 10
617.75
 20
1458.38
 10
305.75
 20
1461.12
 10
305.25
 20
1461.12
 10
304.75
 20
1461.12
 10
304.25
 20
1461.12
 10
303.75
 20
1461.38
 10
303.25
 20
1461.38
 10
302.75
 20
1461.62
 10
302.25
 20
1461.88
 10
301.75
 20
1462.12
 10
301.25
 20
1462.38
 10
300.75
 20
1462.62
 10
300.25
 20
1462.88
 10
299.75
 20
1463.12
 10
299.5
 20
1463.38
 10
299.0
 20
1463.88
 10
298.75
 20
1464.12
 10
298.25
 20
1464.62
 10
298.0
 20
1465.12
 10
297.75
 20
1465.38
 10
297.25
 20
1465.88
 10
297.0
 20
1466.38
 10
296.75
 20
1466.88
 10
296.75
 20
1467.38
 10
296.5
 20
1467.88
 10
296.25
 20
1468.38
 10
296.25
 20
1468.88
 10
296.0
 20
1469.38
 10
296.0
 20
1469.88
 10
296.0
 20
1470.38
 10
296.0
 20
1471.12
 10
296.0
 20
1471.62
 10
296.0
 20
1472.12
 10
296.0
 20
1472.62
 10
296.25
 20
1473.12
 10
296.25
 20
1473.62
 10
296.5
 20
1474.12
 10
296.5
 20
1474.62
 10
297.25
 20
1476.62
 10
298.0
 20
1478.38
 10
298.5
 20
1480.38
 10
299.0
 20
1482.38
 10
299.5
 20
1484.12
 10
300.0
 20
1486.12
 10
300.25
 20
1488.12
 10
300.75
 20
1490.12
 10
301.0
 20
1492.12
 10
301.25
 20
1493.88
 10
301.25
 20
1495.88
 10
301.5
 20
1497.88
 10
301.5
 20
1499.88
 10
301.5
 20
1501.88
 10
301.5
 20
1503.88
 10
301.25
 20
1505.88
 10
301.0
 20
1507.88
 10
300.75
 20
1509.88
 10
300.5
 20
1511.88
 10
300.25
 20
1513.88
 10
299.75
 20
1515.62
 10
299.5
 20
1517.62
 10
299.0
 20
1519.62
 10
298.25
 20
1521.62
 10
298.0
 20
1522.62
 10
297.75
 20
1523.88
 10
297.5
 20
1525.12
 10
297.25
 20
1526.38
 10
297.0
 20
1527.62
 10
296.75
 20
1528.88
 10
296.75
 20
1530.12
 10
296.75
 20
1531.38
 10
296.5
 20
1532.62
 10
296.5
 20
1533.88
 10
296.75
 20
1535.12
 10
296.75
 20
1536.38
 10
296.75
 20
1537.62
 10
297.0
 20
1538.88
 10
297.25
 20
1540.12
 10
297.5
 20
1541.38
 10
297.75
 20
1542.62
 10
298.0
 20
1543.62
 10
298.25
 20
1544.88
 10
298.75
 20
1546.12
 10
299.25
 20
1547.38
 10
299.75
 20
1548.38
 10
300.25
 20
1549.62
 10
300.75
 20
1550.88
 10
321.81
 20
1594.11
 10
329.25
 20
1609.38
 10
326.5
 20
1742.88
  0
LWPOLYLINE
  5
56
330
17
100
AcDbEntity
  8
HOLES
100
AcDbPolyline
 90
6
 70
1
 10
363.25
 20
1497.88
 10
565.25
 20
1497.88
 10
565.25
 20
1699.88
 10
363.25
 20
1699.88
 10
363.25
 20
1600.38
 10
363.25
 20
1497.88
  0
LWPOLYLINE
  5
57
330
17
100
AcDbEntity
  8
PART_51-12719
100
AcDbPolyline
 90
134
 70
1
 10
289.25
 20
1718.62
 10
289.25
 20
1471.38
 10
176.0
 20
1488.62
 10
177.25
 20
1532.12
 10
177.25
 20
1533.12
 10
177.5
 20
1533.88
 10
177.5
 20
1534.88
 10
177.75
 20
1535.88
 10
178.0
 20
1536.62
 10
178.25
 20
1537.62
 10
178.5
 20
1538.38
 10
179.0
 20
1539.38
 10
179.25
 20
1540.12
 10
179.75
 20
1540.88
 10
180.25
 20
1541.62
 10
180.75
 20
1542.38
 10
181.5
 20
1543.12
 10
182.0
 20
1543.88
 10
182.75
 20
1544.62
 10
183.25
 20
1545.12
 10
184.0
 20
1545.62
 10
184.75
 20
1546.38
 10
185.5
 20
1546.88
 10
186.25
 20
1547.38
 10
187.25
 20
1547.62
 10
188.0
 20
1548.12
 10
188.75
 20
1548.38
 10
189.75
 20
1548.88
 10
191.25
 20
1549.38
 10
193.0
 20
1550.12
 10
194.5
 20
1550.62
 10
196.0
 20
1551.62
 10
197.5
 20
1552.38
 10
199.0
 20
1553.38
 10
200.25
 20
1554.38
 10
201.5
 20
1555.62
 10
202.75
 20
1556.88
 10
204.0
 20
1558.12
 10
205.25
 20
1559.38
 10
206.25
 20
1560.62
 10
207.25
 20
1562.12
 10
208.0
 20
1563.62
 10
209.0
 20
1565.12
 10
209.75
 20
1566.62
 10
210.25
 20
1568.12
 10
211.0
 20
1569.88
 10
211.5
 20
1571.62
 10
211.75
 20
1573.12
 10
212.0
 20
1574.88
 10
212.25
 20
1576.62
 10
212.5
 20
1578.38
 10
212.5
 20
1580.12
 10
212.5
 20
1581.88
 10
212.25
 20
1583.38
 10
212.0
 20
1585.12
 10
211.75
 20
1586.88
 10
211.5
 20
1588.62
 10
211.0
 20
1590.12
 10
210.25
 20
1591.88
 10
209.75
 20
1593.38
 10
209.0
 20
1594.88
 10
208.0
 20
1596.38
 10
207.25
 20
1597.88
 10
206.25
 20
1599.38
 10
205.25
 20
1600.62
 10
204.0
 20
1602.12
 10
202.75
 20
1603.38
 10
201.5
 20
1604.38
 10
200.25
 20
1605.62
 10
199.0
 20
1606.62
 10
197.5
 20
1607.62
 10
196.0
 20
1608.62
 10
194.5
 20
1609.38
 10
193.0
 20
1610.12
 10
191.5
 20
1610.62
 10
189.75
 20
1611.38
 10
189.0
 20
1611.62
 10
188.0
 20
1611.88
 10
187.25
 20
1612.38
 10
186.25
 20
1612.88
 10
185.5
 20
1613.38
 10
184.75
 20
1613.88
 10
184.0
 20
1614.38
 10
183.25
 20
1614.88
 10
182.75
 20
1615.62
 10
182.0
 20
1616.38
 10
181.5
 20
1616.88
 10
180.75
 20
1617.62
 10
180.25
 20
1618.38
 10
179.75
 20
1619.38
 10
179.25
 20
1620.12
 10
179.0
 20
1620.88
 10
178.5
 20
1621.88
 10
178.25
 20
1622.62
 10
178.0
 20
1623.62
 10
177.75
 20
1624.38
 10
177.5
 20
1625.38
 10
177.5
 20
1626.38
 10
177.25
 20
1627.12
 10
177.25
 20
1628.12
 10
176.25
 20
1703.38
 10
176.25
 20
1704.62
 10
176.25
 20
1706.12
 10
176.5
 20
1707.38
 10
176.75
 20
1708.62
 10
177.0
 20
1709.88
 10
177.5
 20
1711.12
 10
177.75
 20
1712.38
 10
178.25
 20
1713.62
 10
178.75
 20
1714.88
 10
179.5
 20
1716.12
 10
180.25
 20
1717.12
 10
181.0
 20
1718.38
 10
181.75
 20
1719.38
 10
182.5
 20
1720.38
 10
183.5
 20
1721.38
 10
184.5
 20
1722.38
 10
185.5
 20
1723.12
 10
186.5
 20
1723.88
 10
187.75
 20
1724.62
 10
188.75
 20
1725.38
 10
190.0
 20
1726.12
 10
191.25
 20
1726.62
 10
192.25
 20
1727.12
 10
193.5
 20
1727.62
 10
195.0
 20
1727.88
 10
196.25
 20
1728.12
 10
197.5
 20
1728.38
 10
198.75
 20
1728.62
 10
200.25
 20
1728.62
 10
201.5
 20
1728.62
 10
202.75
 20
1728.62
 10
204.25
 20
1728.62
 10
289.25
 20
1718.62
  0
LWPOLYLINE
  5
59
330
17
100
AcDbEntity
  8
PART_51-12726
100
AcDbPolyline
 90
11
 70
1
 10
918.0
 20
1705.75
 10
750.0
 20
1705.75
 10
750.0
 20
1787.75
 10
1028.0
 20
1787.75
 10
1028.0
 20
1769.75
 10
1073.5
 20
1769.75
 10
1073.5
 20
1787.75
 10
1145.0
 20
1787.75
 10
1145.0
 20
1747.75
 10
918.0
 20
1747.75
 10
918.0
 20
1705.75
  0
ENDSEC
  0
SECTION
  2
OBJECTS
  0
DICTIONARY
  5
A
330
0
100
AcDbDictionary
281
1
  3
ACAD_COLOR
350
B
  3
ACAD_GROUP
350
C
  3
ACAD_LAYOUT
350
D
  3
ACAD_MATERIAL
350
E
  3
ACAD_MLEADERSTYLE
350
F
  3
ACAD_MLINESTYLE
350
10
  3
ACAD_PLOTSETTINGS
350
11
  3
ACAD_PLOTSTYLENAME
350
12
  3
ACAD_SCALELIST
350
14
  3
ACAD_TABLESTYLE
350
15
  3
ACAD_VISUALSTYLE
350
16
  3
EZDXF_META
350
2D
  0
DICTIONARY
  5
B
330
A
100
AcDbDictionary
281
1
  0
DICTIONARY
  5
C
330
A
100
AcDbDictionary
281
1
  0
DICTIONARY
  5
D
330
A
100
AcDbDictionary
281
1
  3
Model
350
1A
  3
Layout1
350
1E
  0
DICTIONARY
  5
E
330
A
100
AcDbDictionary
281
1
  3
ByBlock
350
1F
  3
ByLayer
350
20
  3
Global
350
21
  0
DICTIONARY
  5
F
330
A
100
AcDbDictionary
281
1
  3
Standard
350
2C
  0
DICTIONARY
  5
10
330
A
100
AcDbDictionary
281
1
  3
Standard
350
22
  0
DICTIONARY
  5
11
330
A
100
AcDbDictionary
281
1
  0
ACDBDICTIONARYWDFLT
  5
12
330
A
100
AcDbDictionary
281
1
  3
Normal
350
13
100
AcDbDictionaryWithDefault
340
13
  0
ACDBPLACEHOLDER
  5
13
330
12
  0
DICTIONARY
  5
14
330
A
100
AcDbDictionary
281
1
  0
DICTIONARY
  5
15
330
A
100
AcDbDictionary
281
1
  0
DICTIONARY
  5
16
330
A
100
AcDbDictionary
281
1
  0
LAYOUT
  5
1A
330
D
100
AcDbPlotSettings
  1

  4
A3
  6

 40
7.5
 41
20.0
 42
7.5
 43
20.0
 44
420.0
 45
297.0
 46
0.0
 47
0.0
 48
0.0
 49
0.0
140
0.0
141
0.0
142
1.0
143
1.0
 70
1024
 72
1
 73
0
 74
5
  7

 75
16
 76
0
 77
2
 78
300
147
1.0
148
0.0
149
0.0
100
AcDbLayout
  1
Model
 70
1
 71
0
 10
0.0
 20
0.0
 11
420.0
 21
297.0
 12
0.0
 22
0.0
 32
0.0
 14
1e+20
 24
1e+20
 34
1e+20
 15
-1e+20
 25
-1e+20
 35
-1e+20
146
0.0
 13
0.0
 23
0.0
 33
0.0
 16
1.0
 26
0.0
 36
0.0
 17
0.0
 27
1.0
 37
0.0
 76
1
330
17
  0
LAYOUT
  5
1E
330
D
100
AcDbPlotSettings
  1

  4
A3
  6

 40
7.5
 41
20.0
 42
7.5
 43
20.0
 44
420.0
 45
297.0
 46
0.0
 47
0.0
 48
0.0
 49
0.0
140
0.0
141
0.0
142
1.0
143
1.0
 70
0
 72
1
 73
0
 74
5
  7

 75
16
 76
0
 77
2
 78
300
147
1.0
148
0.0
149
0.0
100
AcDbLayout
  1
Layout1
 70
1
 71
1
 10
0.0
 20
0.0
 11
420.0
 21
297.0
 12
0.0
 22
0.0
 32
0.0
 14
1e+20
 24
1e+20
 34
1e+20
 15
-1e+20
 25
-1e+20
 35
-1e+20
146
0.0
 13
0.0
 23
0.0
 33
0.0
 16
1.0
 26
0.0
 36
0.0
 17
0.0
 27
1.0
 37
0.0
 76
1
330
1B
  0
MATERIAL
  5
1F
102
{ACAD_REACTORS
330
E
102
}
330
E
100
AcDbMaterial
  1
ByBlock
  2

 70
0
 40
1.0
 71
1
 41
1.0
 91
-1023410177
 42
1.0
 72
1
  3

 73
1
 74
1
 75
1
 44
0.5
 73
0
 45
1.0
 46
1.0
 77
1
  4

 78
1
 79
1
170
1
 48
1.0
171
1
  6

172
1
173
1
174
1
140
1.0
141
1.0
175
1
  7

176
1
177
1
178
1
143
1.0
179
1
  8

270
1
271
1
272
1
145
1.0
146
1.0
273
1
  9

274
1
275
1
276
1
 42
1.0
 72
1
  3

 73
1
 74
1
 75
1
 94
63
  0
MATERIAL
  5
20
102
{ACAD_REACTORS
330
E
102
}
330
E
100
AcDbMaterial
  1
ByLayer
  2

 70
0
 40
1.0
 71
1
 41
1.0
 91
-1023410177
 42
1.0
 72
1
  3

 73
1
 74
1
 75
1
 44
0.5
 73
0
 45
1.0
 46
1.0
 77
1
  4

 78
1
 79
1
170
1
 48
1.0
171
1
  6

172
1
173
1
174
1
140
1.0
141
1.0
175
1
  7

176
1
177
1
178
1
143
1.0
179
1
  8

270
1
271
1
272
1
145
1.0
146
1.0
273
1
  9

274
1
275
1
276
1
 42
1.0
 72
1
  3

 73
1
 74
1
 75
1
 94
63
  0
MATERIAL
  5
21
102
{ACAD_REACTORS
330
E
102
}
330
E
100
AcDbMaterial
  1
Global
  2

 70
0
 40
1.0
 71
1
 41
1.0
 91
-1023410177
 42
1.0
 72
1
  3

 73
1
 74
1
 75
1
 44
0.5
 73
0
 45
1.0
 46
1.0
 77
1
  4

 78
1
 79
1
170
1
 48
1.0
171
1
  6

172
1
173
1
174
1
140
1.0
141
1.0
175
1
  7

176
1
177
1
178
1
143
1.0
179
1
  8

270
1
271
1
272
1
145
1.0
146
1.0
273
1
  9

274
1
275
1
276
1
 42
1.0
 72
1
  3

 73
1
 74
1
 75
1
 94
63
  0
MLINESTYLE
  5
22
102
{ACAD_REACTORS
330
10
102
}
330
10
100
AcDbMlineStyle
  2
Standard
 70
0
  3

 62
256
 51
90.0
 52
90.0
 71
2
 49
0.5
 62
256
  6
BYLAYER
 49
-0.5
 62
256
  6
BYLAYER
  0
MLEADERSTYLE
  5
2C
102
{ACAD_REACTORS
330
F
102
}
330
F
100
AcDbMLeaderStyle
179
2
170
2
171
1
172
0
 90
2
 40
0.0
 41
0.0
173
1
 91
-1056964608
 92
-2
290
1
 42
2.0
291
1
 43
8.0
  3
Standard
 44
4.0
300

342
29
174
1
175
1
176
0
178
1
 93
-1056964608
 45
4.0
292
0
297
0
 46
4.0
 94
-1056964608
 47
1.0
 49
1.0
140
1.0
294
1
141
0.0
177
0
142
1.0
295
0
296
0
143
3.75
271
0
272
9
273
9
  0
DICTIONARY
  5
2D
330
A
100
AcDbDictionary
280
1
281
1
  3
CREATED_BY_EZDXF
350
2E
  3
WRITTEN_BY_EZDXF
350
5C
  0
DICTIONARYVAR
  5
2E
330
2D
100
DictionaryVariables
280
0
  1
1.4.4 @ 2026-09-18T07:42:41.533382+00:00
  0
DICTIONARYVAR
  5
5C
330
2D
100
DictionaryVariables
280
0
  1
1.4.4 @ 2026-09-18T07:42:41.579666+00:00
  0
ENDSEC
  0
EOF
